<svg width="640" height="448" viewBox="0 0 640 448" fill="none" xmlns="http://www.w3.org/2000/svg">
<path d="M144 448C64.5 448 0 383.5 0 304C0 241.2 40.2 187.8 96.2 168.1C96.1 165.4 96 162.7 96 160C96 71.6 167.6 0 256 0C315.3 0 367 32.2 394.7 80.2C409.9 70 428.3 64 448 64C501 64 544 107 544 160C544 172.2 541.7 183.8 537.6 194.6C596 206.4 640 258.1 640 320C640 390.7 582.7 448 512 448H144ZM223 281L303 361C312.4 370.4 327.6 370.4 336.9 361L416.9 281C426.3 271.6 426.3 256.4 416.9 247.1C407.5 237.8 392.3 237.7 383 247.1L344 286.1V152C344 138.7 333.3 128 320 128C306.7 128 296 138.7 296 152V286.1L257 247.1C247.6 237.7 232.4 237.7 223.1 247.1C213.8 256.5 213.7 271.7 223.1 281H223Z" fill="white"/>
</svg>
