<?xml version="1.0" encoding="UTF-8" standalone="no"?>
<!-- Created with Inkscape (http://www.inkscape.org/) -->

<svg
   xmlns:dc="http://purl.org/dc/elements/1.1/"
   xmlns:cc="http://creativecommons.org/ns#"
   xmlns:rdf="http://www.w3.org/1999/02/22-rdf-syntax-ns#"
   xmlns:svg="http://www.w3.org/2000/svg"
   xmlns="http://www.w3.org/2000/svg"
   xmlns:sodipodi="http://sodipodi.sourceforge.net/DTD/sodipodi-0.dtd"
   xmlns:inkscape="http://www.inkscape.org/namespaces/inkscape"
   width="210mm"
   height="158mm"
   viewBox="0 0 210 158"
   version="1.1"
   id="svg1221"
   sodipodi:docname="avir.svg"
   inkscape:version="0.92.4 5da689c313, 2019-01-14">
  <defs
     id="defs1215">
    <linearGradient
       gradientTransform="matrix(0.26458333,0,0,0.26458333,-93.210702,-13.639696)"
       id="SVGID_1_"
       y2="1003.9"
       gradientUnits="userSpaceOnUse"
       x2="-205.03999"
       y1="1004.1"
       x1="-208.34">
      <stop
         style="stop-color:#FFFFFF"
         offset=".0056"
         id="stop2" />
      <stop
         style="stop-color:#D2D2D2"
         offset=".4008"
         id="stop4" />
      <stop
         style="stop-color:#ABABAB"
         offset=".7948"
         id="stop6" />
      <stop
         style="stop-color:#9C9C9C"
         offset="1"
         id="stop8" />
    </linearGradient>
    <linearGradient
       gradientTransform="matrix(0.16807298,0,0,0.16807298,-4.4420747,129.38738)"
       id="SVGID_2_"
       y2="641.12"
       gradientUnits="userSpaceOnUse"
       x2="1144.1"
       y1="641.12"
       x1="1134.8">
      <stop
         style="stop-color:#3D3D3D"
         offset="0"
         id="stop13" />
      <stop
         style="stop-color:#373737"
         offset=".2665"
         id="stop15" />
      <stop
         style="stop-color:#272727"
         offset=".6178"
         id="stop17" />
      <stop
         style="stop-color:#0D0D0D"
         offset="1"
         id="stop19" />
    </linearGradient>
    <linearGradient
       gradientTransform="matrix(0.16807298,0,0,0.16807298,-4.4420747,129.38738)"
       id="SVGID_3_"
       y2="641.15997"
       gradientUnits="userSpaceOnUse"
       x2="181.56"
       y1="641.15997"
       x1="188.48">
      <stop
         style="stop-color:#606163"
         offset="0"
         id="stop28" />
      <stop
         style="stop-color:#666769"
         offset=".1268"
         id="stop30" />
      <stop
         style="stop-color:#767779"
         offset=".2942"
         id="stop32" />
      <stop
         style="stop-color:#929394"
         offset=".4841"
         id="stop34" />
      <stop
         style="stop-color:#B8B8B9"
         offset=".6908"
         id="stop36" />
      <stop
         style="stop-color:#E8E9E9"
         offset=".9085"
         id="stop38" />
      <stop
         style="stop-color:#FFFFFF"
         offset="1"
         id="stop40" />
    </linearGradient>
    <linearGradient
       gradientTransform="matrix(0.26458333,0,0,0.26458333,-93.210702,-13.639696)"
       id="SVGID_4_"
       y2="623.17999"
       gradientUnits="userSpaceOnUse"
       x2="1149.9"
       y1="116.82"
       x1="185.66">
      <stop
         style="stop-color:#000000"
         offset="0"
         id="stop45" />
      <stop
         style="stop-color:#0D0D0D"
         offset=".1335"
         id="stop47" />
      <stop
         style="stop-color:#424242"
         offset=".7083"
         id="stop49" />
      <stop
         style="stop-color:#575757"
         offset=".9888"
         id="stop51" />
    </linearGradient>
    <linearGradient
       gradientTransform="matrix(0.26458333,0,0,0.26458333,-93.210702,-13.639696)"
       id="SVGID_5_"
       y2="639.65002"
       gradientUnits="userSpaceOnUse"
       x2="661.20001"
       y1="922.96002"
       x1="661.20001">
      <stop
         style="stop-color:#F4F4F6"
         offset="0"
         id="stop56" />
      <stop
         style="stop-color:#E0E0E1"
         offset=".1142"
         id="stop58" />
      <stop
         style="stop-color:#AAAAAC"
         offset=".3497"
         id="stop60" />
      <stop
         style="stop-color:#565657"
         offset=".6824"
         id="stop62" />
      <stop
         style="stop-color:#000000"
         offset="1"
         id="stop64" />
    </linearGradient>
    <linearGradient
       id="SVGID_6_"
       y2="645.28003"
       gradientUnits="userSpaceOnUse"
       x2="661.16998"
       y1="921.97998"
       x1="661.16998">
      <stop
         style="stop-color:#FFFFFF"
         offset="0"
         id="stop69" />
      <stop
         style="stop-color:#A0A0A0"
         offset=".3304"
         id="stop71" />
      <stop
         style="stop-color:#4A4A4A"
         offset=".6536"
         id="stop73" />
      <stop
         style="stop-color:#151515"
         offset=".8793"
         id="stop75" />
      <stop
         style="stop-color:#000000"
         offset=".9888"
         id="stop77" />
    </linearGradient>
    <linearGradient
       gradientTransform="matrix(0.26458333,0,0,0.26458333,-93.210702,-13.639696)"
       id="SVGID_7_"
       y2="925.96997"
       gradientUnits="userSpaceOnUse"
       x2="1215.6"
       y1="925.96997"
       x1="1206.3">
      <stop
         style="stop-color:#0D0D0D"
         offset="0"
         id="stop84" />
      <stop
         style="stop-color:#070707"
         offset=".6136"
         id="stop86" />
      <stop
         style="stop-color:#000000"
         offset="1"
         id="stop88" />
    </linearGradient>
    <linearGradient
       gradientTransform="matrix(0.26458333,0,0,0.26458333,-93.210702,-13.639696)"
       id="SVGID_8_"
       y2="926.57001"
       gradientUnits="userSpaceOnUse"
       x2="106.66"
       y1="925.53003"
       x1="117.01">
      <stop
         style="stop-color:#0D0D0D"
         offset="0"
         id="stop95" />
      <stop
         style="stop-color:#131313"
         offset=".0975"
         id="stop97" />
      <stop
         style="stop-color:#232323"
         offset=".2262"
         id="stop99" />
      <stop
         style="stop-color:#3F3F3F"
         offset=".3724"
         id="stop101" />
      <stop
         style="stop-color:#656565"
         offset=".5314"
         id="stop103" />
      <stop
         style="stop-color:#969696"
         offset=".7009"
         id="stop105" />
      <stop
         style="stop-color:#D1D1D1"
         offset=".8763"
         id="stop107" />
      <stop
         style="stop-color:#FFFFFF"
         offset="1"
         id="stop109" />
    </linearGradient>
    <linearGradient
       gradientTransform="matrix(0.26458333,0,0,0.26458333,-93.210702,-13.639696)"
       id="SVGID_9_"
       y2="822.87463"
       gradientUnits="userSpaceOnUse"
       x2="787.66998"
       y1="886.05798"
       x1="511.79901">
      <stop
         style="stop-color:#F4F4F4"
         offset="0"
         id="stop114" />
      <stop
         style="stop-color:#AAAAAA"
         offset=".4998"
         id="stop118" />
      <stop
         style="stop-color:#555555"
         offset="0.4998"
         id="stop120" />
    </linearGradient>
    <linearGradient
       gradientTransform="matrix(0.26458333,0,0,0.26458333,-93.210702,-13.639696)"
       id="SVGID_10_"
       y2="872.53998"
       gradientUnits="userSpaceOnUse"
       x2="515.85999"
       y1="887.88"
       x1="783.15997">
      <stop
         style="stop-color:#383838"
         offset="0"
         id="stop127" />
      <stop
         style="stop-color:#7D7D7D"
         offset=".4335"
         id="stop129" />
      <stop
         style="stop-color:#B2B2B2"
         offset=".8073"
         id="stop131" />
      <stop
         style="stop-color:#C7C7C7"
         offset=".9888"
         id="stop133" />
    </linearGradient>
    <linearGradient
       id="SVGID_11_"
       y2="866.69"
       gradientUnits="userSpaceOnUse"
       x2="786.83002"
       y1="850.12"
       x1="515.09998">
      <stop
         style="stop-color:#474747"
         offset="0"
         id="stop138" />
      <stop
         style="stop-color:#5C5C5C"
         offset=".1449"
         id="stop140" />
      <stop
         style="stop-color:#919191"
         offset=".4435"
         id="stop142" />
      <stop
         style="stop-color:#E6E6E6"
         offset=".8666"
         id="stop144" />
      <stop
         style="stop-color:#FFFFFF"
         offset=".9831"
         id="stop146" />
    </linearGradient>
    <linearGradient
       id="SVGID_12_"
       y2="888.44"
       gradientUnits="userSpaceOnUse"
       x2="785.48999"
       y1="871.87"
       x1="513.77002">
      <stop
         style="stop-color:#474747"
         offset="0"
         id="stop153" />
      <stop
         style="stop-color:#5C5C5C"
         offset=".1449"
         id="stop155" />
      <stop
         style="stop-color:#919191"
         offset=".4435"
         id="stop157" />
      <stop
         style="stop-color:#E6E6E6"
         offset=".8666"
         id="stop159" />
      <stop
         style="stop-color:#FFFFFF"
         offset=".9831"
         id="stop161" />
    </linearGradient>
    <linearGradient
       id="SVGID_13_"
       y2="115.08"
       gradientUnits="userSpaceOnUse"
       x2="661.25"
       y1="612.15002"
       x1="661.25">
      <stop
         style="stop-color:#E0E0E0"
         offset="0"
         id="stop168" />
      <stop
         style="stop-color:#C3C3C3"
         offset=".1379"
         id="stop170" />
      <stop
         style="stop-color:#6E6E6E"
         offset=".5532"
         id="stop172" />
      <stop
         style="stop-color:#383838"
         offset=".8465"
         id="stop174" />
      <stop
         style="stop-color:#242424"
         offset=".9888"
         id="stop176" />
    </linearGradient>
    <linearGradient
       id="SVGID_14_"
       y2="580.14001"
       gradientUnits="userSpaceOnUse"
       x2="1206.4"
       y1="24.267"
       x1="697.78003">
      <stop
         style="stop-color:#BDBDBD"
         offset="0"
         id="stop181" />
      <stop
         style="stop-color:#828282"
         offset=".3931"
         id="stop183" />
      <stop
         style="stop-color:#4D4D4D"
         offset=".7862"
         id="stop185" />
      <stop
         style="stop-color:#383838"
         offset=".9775"
         id="stop187" />
    </linearGradient>
    <linearGradient
       id="SVGID_15_"
       y2="110.11"
       gradientUnits="userSpaceOnUse"
       x2="875.59003"
       y1="612.15002"
       x1="875.59003">
      <stop
         style="stop-color:#E0E0E0"
         offset="0"
         id="stop200" />
      <stop
         style="stop-color:#D4D4D4"
         offset=".0564"
         id="stop202" />
      <stop
         style="stop-color:#AEAEAE"
         offset=".2483"
         id="stop204" />
      <stop
         style="stop-color:#919191"
         offset=".4398"
         id="stop206" />
      <stop
         style="stop-color:#7C7C7C"
         offset=".6285"
         id="stop208" />
      <stop
         style="stop-color:#6F6F6F"
         offset=".8131"
         id="stop210" />
      <stop
         style="stop-color:#6B6B6B"
         offset=".9888"
         id="stop212" />
    </linearGradient>
    <linearGradient
       id="linearGradient3182-5-4">
      <stop
         id="stop3184-6-1"
         style="stop-color:#a6a6a6"
         offset="0" />
      <stop
         id="stop3192-2-4"
         style="stop-color:#f4f4f4"
         offset=".5" />
      <stop
         id="stop3194-0-6"
         style="stop-color:#dbdbdb"
         offset=".78274" />
      <stop
         id="stop3186-3-0"
         style="stop-color:#b5b5b5"
         offset="1" />
    </linearGradient>
  </defs>
  <sodipodi:namedview
     id="base"
     pagecolor="#ffffff"
     bordercolor="#666666"
     borderopacity="1.0"
     inkscape:pageopacity="0.0"
     inkscape:pageshadow="2"
     inkscape:zoom="1.979899"
     inkscape:cx="353.97845"
     inkscape:cy="606.20967"
     inkscape:document-units="mm"
     inkscape:current-layer="layer1"
     showgrid="false"
     inkscape:window-width="1920"
     inkscape:window-height="1054"
     inkscape:window-x="1280"
     inkscape:window-y="26"
     inkscape:window-maximized="1"
     inkscape:pagecheckerboard="true"
     inkscape:showpageshadow="false"
     borderlayer="true" />
  <metadata
     id="metadata1218">
    <rdf:RDF>
      <cc:Work
         rdf:about="">
        <dc:format>image/svg+xml</dc:format>
        <dc:type
           rdf:resource="http://purl.org/dc/dcmitype/StillImage" />
        <dc:title></dc:title>
      </cc:Work>
    </rdf:RDF>
  </metadata>
  <g
     inkscape:label="Ebene 1"
     inkscape:groupmode="layer"
     id="layer1"
     transform="translate(0,-139)">
    <g
       id="g3958"
       transform="matrix(1.1245662,0,0,1.1245662,-15.028123,-22.569965)">
      <path
         inkscape:connector-curvature="0"
         id="path22"
         transform="matrix(0.26458333,0,0,0.26458333,0,131)"
         d="m 710.55664,397.28711 c -0.0161,0.0398 -0.0327,0.0793 -0.0488,0.11914 0.0145,-0.0382 0.0395,-0.0728 0.0527,-0.11133 z m -0.0488,0.11914 c -0.1935,0.50979 -0.48138,0.99454 -0.83593,1.4082 -0.36719,0.45672 -0.79768,0.85994 -1.27344,1.19141 -0.47962,0.33097 -1.00835,0.59353 -1.58008,0.77344 -0.56312,0.17894 -1.16364,0.27358 -1.79102,0.27539 l 0.002,-0.002 -602.80664,0.0449 1.55664,3.99023 599.64648,-0.0449 v 0.002 c 0.005,0 0.0103,-0.002 0.0156,-0.002 0.62436,-0.002 1.22269,-0.0985 1.7832,-0.27539 0.56731,-0.17787 1.0939,-0.44002 1.57031,-0.77149 0.47709,-0.33033 0.9021,-0.72943 1.26758,-1.18554 0.36079,-0.45419 0.65938,-0.96689 0.88086,-1.51953 0.52079,-1.29486 1.04138,-2.58992 1.56445,-3.88477 z M 96.650391,397.29688 c 0.52978,1.3359 1.06071,2.66927 1.589843,4.0039 l -0.0078,0.002 c 0.222346,0.55265 0.520243,1.07386 0.888672,1.53125 0.362078,0.45925 0.789249,0.86429 1.267574,1.19727 0.47835,0.33415 1.00895,0.59826 1.57813,0.7793 0.57043,0.1799 1.07875,0.3038 1.81054,0.27734 l -1.56054,-3.98633 c -0.63716,0 -1.24856,-0.0994 -1.81836,-0.27929 -0.572349,-0.18165 -1.105061,-0.44796 -1.585938,-0.78321 -0.480873,-0.3335 -0.91078,-0.74003 -1.275391,-1.20117 -0.364622,-0.4631 -0.664407,-0.98075 -0.886718,-1.54101 z"
         style="fill:#606163;fill-opacity:1;stroke-width:0.63523644" />
      <path
         id="path67"
         d="m 186.10227,237.57932 c 0.22841,0 0.45144,0.0195 0.65867,0.0544 0.20741,0.0348 0.39952,0.0856 0.56607,0.14841 0.1669,0.063 0.30808,0.13765 0.41431,0.22101 0.10672,0.0829 0.17714,0.17463 0.2037,0.2706 l 12.03739,44.39816 c 0.0346,0.1269 0.0143,0.24757 -0.0529,0.35716 -0.0662,0.11009 -0.17867,0.20874 -0.32858,0.29211 -0.14992,0.083 -0.33733,0.15025 -0.55296,0.19664 -0.21564,0.0469 -0.45935,0.0726 -0.72289,0.0726 l -183.283587,0.006 c -0.263706,0 -0.507916,-0.0257 -0.72389,-0.0721 -0.215803,-0.0471 -0.403376,-0.11396 -0.553634,-0.19749 -0.150424,-0.0825 -0.263369,-0.18202 -0.33026,-0.29194 -0.06706,-0.10975 -0.08807,-0.23026 -0.05444,-0.35682 l 11.870315,-44.40992 c 0.02573,-0.0961 0.09681,-0.18774 0.203034,-0.27094 0.106053,-0.083 0.247069,-0.15799 0.413457,-0.22084 0.166228,-0.0625 0.358502,-0.11312 0.565735,-0.14841 0.207068,-0.0353 0.430099,-0.0544 0.658677,-0.0544 l 159.012173,0.002 z"
         style="fill:#e1e1e1;fill-opacity:1;stroke-width:0.16807297"
         inkscape:connector-curvature="0" />
      <path
         inkscape:connector-curvature="0"
         id="path91"
         d="m 200.00187,282.82108 c -0.002,0.0107 -0.004,0.0215 -0.007,0.0322 0.011,-0.0105 0.0184,-0.0212 0.0184,-0.0321 z m -0.007,0.0322 c -0.0223,0.0215 -0.0653,0.0422 -0.13295,0.0612 -0.0839,0.0284 -0.2025,0.0537 -0.35125,0.0749 -0.14756,0.0213 -0.32424,0.0384 -0.52391,0.0499 -0.19676,0.0115 -0.41546,0.0179 -0.64931,0.018 v -3.9e-4 l -183.286866,0.002 0.0019,0.008 -0.0032,-0.008 c -0.237992,0 -0.459823,-0.006 -0.659497,-0.0181 -0.199667,-0.0118 -0.377641,-0.0289 -0.52555,-0.0501 -0.14874,-0.0212 -0.268025,-0.0466 -0.352232,-0.075 -0.08387,-0.0285 -0.132599,-0.0601 -0.139847,-0.0935 0.07597,0.36953 0.151675,0.73908 0.227821,1.1086 l -0.0013,10e-5 c 0.0084,0.034 0.05546,0.0659 0.141163,0.0942 0.08419,0.0288 0.20351,0.0544 0.351241,0.0756 0.148404,0.0215 0.325571,0.0386 0.524896,0.0504 0.159838,0.01 0.42989,0.0156 0.658181,0.0181 v 5.9e-4 h 0.03907 c 0.04193,3.8e-4 0.09396,0.002 0.129988,0.002 l -6.28e-4,-0.002 182.39726,-0.002 v 2e-4 c 0.005,0 0.015,-2e-4 0.0204,-2e-4 h 0.24193 l 7e-4,-0.003 c 0.23982,-0.003 0.51088,-0.007 0.65457,-0.0156 0.19883,-0.0119 0.37534,-0.029 0.52391,-0.0502 0.14707,-0.0214 0.26624,-0.0469 0.34994,-0.0755 0.0835,-0.0287 0.13227,-0.0605 0.13951,-0.0942 0.0747,-0.35879 0.14961,-0.71746 0.22421,-1.07621 z"
         style="fill:#2d2d2d;fill-opacity:1;stroke-width:0.09303792" />
      <path
         id="path125"
         d="m 124.33713,267.67614 -38.660157,6.4e-4 c -0.395644,0 -0.775655,0.0368 -1.12407,0.10303 -0.348923,0.0664 -0.666579,0.1627 -0.937342,0.28119 -0.271106,0.11882 -0.494811,0.26084 -0.655316,0.41816 -0.160677,0.15765 -0.25816,0.33128 -0.276144,0.51431 l -0.897513,9.17291 c -0.01918,0.19531 0.04586,0.38203 0.18068,0.55212 0.134461,0.17043 0.338499,0.32371 0.596494,0.45279 0.258325,0.12891 0.570772,0.23396 0.922211,0.30606 0.351273,0.0724 0.741206,0.11244 1.154663,0.11244 l 40.408114,-10e-4 c 0.4143,0 0.80524,-0.0398 1.15869,-0.11227 0.35363,-0.0723 0.66894,-0.17698 0.93096,-0.30606 0.26169,-0.12908 0.46976,-0.28286 0.60893,-0.45278 0.13916,-0.16993 0.20908,-0.35666 0.19547,-0.55246 0.0136,0.1958 -0.0563,0.38236 -0.19547,0.55246 -0.13917,0.17008 -0.34724,0.32387 -0.60893,0.45278 -0.26202,0.12925 -0.57733,0.23396 -0.93096,0.30606 -0.35345,0.0724 -0.74439,0.11227 -1.15869,0.11227 l -40.408114,10e-4 c -0.413457,0 -0.80339,-0.04 -1.154663,-0.11244 -0.351604,-0.0723 -0.664051,-0.17731 -0.922211,-0.30606 -0.25816,-0.12925 -0.462033,-0.28253 -0.596494,-0.45279 -0.134797,-0.17009 -0.199839,-0.35681 -0.18068,-0.55212 l 0.287572,-2.94312 45.65871,-6.4e-4 -0.44001,-6.22962 c -0.0126,-0.1827 -0.10555,-0.35615 -0.26186,-0.5138 -0.15647,-0.15766 -0.37631,-0.29934 -0.64389,-0.41834 -0.26774,-0.119 -0.58287,-0.2148 -0.92995,-0.28085 -0.34454,-0.0656 -0.7227,-0.10253 -1.11936,-0.10253 z"
         style="fill:#cdcdcd;fill-opacity:1;stroke-width:0.16807297"
         inkscape:connector-curvature="0" />
      <path
         id="path136"
         d="m 127.73388,275.22262 -45.65871,6.4e-4 -0.287572,2.94312 c -0.01918,0.1953 0.04586,0.38203 0.18068,0.55212 0.134455,0.17043 0.338499,0.32371 0.596487,0.45279 0.258332,0.12891 0.570779,0.23396 0.922218,0.30606 0.351273,0.0724 0.7412,0.11244 1.154663,0.11244 l 40.408114,-10e-4 c 0.4143,0 0.80523,-0.0398 1.15869,-0.11228 0.35363,-0.0723 0.66893,-0.17698 0.93096,-0.30606 0.26169,-0.12908 0.46976,-0.28287 0.60893,-0.45279 0.13916,-0.16992 0.20908,-0.35665 0.19546,-0.55246 l -0.2084,-2.94295 z"
         style="fill:#696969;fill-opacity:1;stroke-width:0.16807297"
         inkscape:connector-curvature="0" />
      <polygon
         id="polygon179"
         points="218.16,114.06 1105.9,114.06 1116.8,617.12 205.74,617.12 "
         style="fill:#ffe369;fill-opacity:1"
         transform="matrix(0.16807298,0,0,0.16807298,-4.4420747,129.38738)" />
      <path
         sodipodi:nodetypes="ccccc"
         inkscape:connector-curvature="0"
         id="path3131"
         d="m 105.4894,147.40283 76.27432,27.53146 1.49811,58.17428 -77.3795,-1.98828 z"
         style="opacity:0.12300002;fill:#000000;stroke:#000000;stroke-width:0.16807297px;stroke-linecap:butt;stroke-linejoin:miter;stroke-opacity:1" />
      <path
         id="path194"
         d="m 191.04361,262.28605 c 0,0.75162 -0.62338,1.36055 -1.39248,1.36055 H 24.793375 c -0.7691,0 -1.392311,-0.60893 -1.392311,-1.36055 l 5.569766,-21.04274 c 0,-0.75146 0.623218,-1.36039 1.392483,-1.36039 H 184.08119 c 0.76893,0 1.39231,0.60893 1.39231,1.36039 l 5.56322,21.04274 z"
         style="fill:#bfc1c0;fill-opacity:1;stroke-width:0.16807297"
         inkscape:connector-curvature="0" />
      <g
         id="g198"
         transform="matrix(0.16807298,0,0,0.16807298,-4.4420747,129.38738)">
        <path
           style="fill:#696969"
           inkscape:connector-curvature="0"
           id="path196"
           d="m 200.47,697.24 c 0.352,0.169 0.789,0.311 1.287,0.405 0.501,0.096 1.06,0.149 1.665,0.149 h 43.656 c 0.604,0 1.187,-0.053 1.733,-0.148 0.542,-0.095 1.045,-0.234 1.475,-0.406 0.435,-0.168 0.798,-0.373 1.068,-0.601 0.27,-0.225 0.447,-0.473 0.506,-0.734 l 3.387,-15.425 c 0.055,-0.257 -0.011,-0.501 -0.181,-0.724 -0.171,-0.222 -0.444,-0.422 -0.796,-0.589 -0.354,-0.167 -0.79,-0.304 -1.285,-0.398 -0.497,-0.092 -1.054,-0.146 -1.653,-0.146 h -43.199 c -0.597,0 -1.181,0.053 -1.719,0.146 -0.541,0.095 -1.041,0.23 -1.472,0.396 -0.434,0.17 -0.797,0.37 -1.072,0.59 -0.274,0.225 -0.456,0.467 -0.52,0.724 l -3.824,15.426 c -0.062,0.262 -0.004,0.511 0.163,0.735 0.16,0.23 0.43,0.44 0.78,0.6 z m 58.21,0.01 c 0.358,0.17 0.799,0.31 1.299,0.404 0.501,0.096 1.064,0.148 1.665,0.148 l 43.664,10e-4 c 0.599,0 1.184,-0.054 1.722,-0.147 0.541,-0.097 1.04,-0.235 1.466,-0.405 0.428,-0.171 0.784,-0.375 1.047,-0.601 0.268,-0.226 0.435,-0.476 0.484,-0.736 l 2.903,-15.425 c 0.048,-0.258 -0.028,-0.501 -0.204,-0.724 -0.178,-0.22 -0.458,-0.422 -0.819,-0.589 -0.36,-0.167 -0.798,-0.302 -1.297,-0.396 -0.5,-0.094 -1.056,-0.146 -1.653,-0.146 l -43.206,-0.003 c -0.597,0 -1.175,0.055 -1.711,0.149 -0.536,0.092 -1.033,0.229 -1.461,0.396 -0.427,0.167 -0.789,0.369 -1.055,0.59 -0.266,0.222 -0.439,0.466 -0.498,0.723 l -3.339,15.425 c -0.057,0.262 0.013,0.51 0.186,0.734 0.18,0.24 0.45,0.45 0.81,0.62 z m 62.99,-18.47 c -0.533,0.095 -1.023,0.229 -1.446,0.396 -0.421,0.167 -0.777,0.369 -1.032,0.589 -0.262,0.223 -0.428,0.466 -0.474,0.724 l -2.855,15.425 c -0.047,0.261 0.028,0.511 0.206,0.736 0.181,0.226 0.462,0.43 0.826,0.601 0.363,0.17 0.807,0.309 1.313,0.405 0.503,0.094 1.069,0.147 1.672,0.147 l 43.652,0.002 c 0.604,0 1.185,-0.054 1.723,-0.147 0.538,-0.095 1.029,-0.236 1.449,-0.407 0.423,-0.17 0.776,-0.375 1.033,-0.6 0.255,-0.226 0.416,-0.475 0.457,-0.735 l 2.416,-15.424 c 0.039,-0.259 -0.043,-0.503 -0.228,-0.726 -0.183,-0.221 -0.467,-0.42 -0.833,-0.589 -0.364,-0.168 -0.807,-0.302 -1.312,-0.396 -0.5,-0.093 -1.061,-0.147 -1.658,-0.147 h -43.197 c -0.59,0 -1.17,0.05 -1.71,0.15 z m 54.76,18.88 c 0.507,0.094 1.071,0.147 1.676,0.147 h 43.66 c 0.603,0 1.181,-0.053 1.712,-0.147 0.534,-0.095 1.021,-0.233 1.437,-0.404 0.417,-0.171 0.763,-0.374 1.012,-0.601 0.249,-0.228 0.398,-0.475 0.433,-0.734 l 1.928,-15.427 c 0.033,-0.257 -0.058,-0.501 -0.249,-0.723 -0.189,-0.222 -0.482,-0.423 -0.85,-0.589 -0.368,-0.167 -0.817,-0.305 -1.32,-0.398 -0.504,-0.093 -1.064,-0.147 -1.66,-0.147 h -43.21 c -0.597,0 -1.173,0.054 -1.704,0.146 -0.531,0.095 -1.019,0.229 -1.433,0.396 -0.417,0.169 -0.767,0.368 -1.018,0.589 -0.25,0.223 -0.41,0.467 -0.449,0.726 l -2.368,15.424 c -0.04,0.263 0.044,0.51 0.23,0.735 0.186,0.225 0.475,0.43 0.846,0.6 0.36,0.16 0.81,0.3 1.32,0.4 z m 108.4,-18.48 c -0.374,-0.169 -0.828,-0.307 -1.336,-0.398 -0.509,-0.095 -1.072,-0.146 -1.668,-0.146 h -43.198 c -0.597,0 -1.168,0.051 -1.7,0.144 -0.528,0.094 -1.01,0.231 -1.419,0.398 -0.412,0.166 -0.751,0.368 -0.997,0.589 -0.244,0.222 -0.397,0.466 -0.426,0.723 l -1.881,15.427 c -0.035,0.26 0.059,0.507 0.25,0.734 0.195,0.227 0.49,0.43 0.863,0.601 0.375,0.171 0.829,0.31 1.34,0.406 0.509,0.093 1.079,0.146 1.679,0.146 l 43.65,0.002 c 0.604,0 1.182,-0.055 1.715,-0.147 0.531,-0.097 1.015,-0.235 1.425,-0.406 0.412,-0.17 0.752,-0.374 0.992,-0.601 0.241,-0.226 0.387,-0.474 0.412,-0.733 l 1.442,-15.428 c 0.026,-0.257 -0.072,-0.498 -0.271,-0.722 -0.17,-0.21 -0.47,-0.42 -0.84,-0.58 z m 57.63,0 c -0.379,-0.166 -0.839,-0.305 -1.35,-0.395 -0.508,-0.096 -1.075,-0.148 -1.67,-0.148 l -43.196,-10e-4 c -0.596,0 -1.169,0.051 -1.694,0.146 -0.527,0.094 -1.003,0.229 -1.409,0.398 -0.406,0.165 -0.74,0.366 -0.98,0.588 -0.24,0.224 -0.384,0.465 -0.406,0.722 l -1.393,15.428 c -0.024,0.26 0.076,0.509 0.274,0.733 0.202,0.227 0.504,0.431 0.882,0.601 0.379,0.171 0.836,0.31 1.352,0.406 0.513,0.093 1.083,0.147 1.685,0.147 h 43.649 c 0.604,0 1.182,-0.053 1.709,-0.146 0.529,-0.097 1.007,-0.235 1.414,-0.407 0.406,-0.167 0.737,-0.374 0.974,-0.599 0.233,-0.227 0.371,-0.474 0.388,-0.734 l 0.955,-15.428 c 0.018,-0.254 -0.087,-0.498 -0.294,-0.721 -0.18,-0.22 -0.49,-0.42 -0.87,-0.59 z m 57.64,0 c -0.386,-0.166 -0.847,-0.305 -1.361,-0.396 -0.513,-0.096 -1.08,-0.146 -1.678,-0.146 h -43.194 c -0.595,0 -1.168,0.051 -1.688,0.146 -0.525,0.09 -0.997,0.229 -1.4,0.395 -0.399,0.167 -0.727,0.369 -0.959,0.59 -0.231,0.223 -0.366,0.467 -0.379,0.721 l -0.912,15.428 c -0.014,0.261 0.093,0.508 0.301,0.734 0.206,0.225 0.513,0.432 0.899,0.599 0.384,0.172 0.847,0.311 1.363,0.407 0.519,0.095 1.09,0.146 1.691,0.146 l 43.649,0.002 c 0.602,0 1.177,-0.051 1.703,-0.148 0.527,-0.097 1.001,-0.233 1.401,-0.405 0.402,-0.169 0.726,-0.373 0.954,-0.599 0.224,-0.229 0.354,-0.475 0.365,-0.736 l 0.47,-15.428 c 0.01,-0.254 -0.106,-0.497 -0.317,-0.72 -0.2,-0.22 -0.51,-0.42 -0.89,-0.59 z m 58.55,0.59 c -0.22,-0.221 -0.534,-0.421 -0.927,-0.588 -0.39,-0.167 -0.858,-0.303 -1.373,-0.396 -0.517,-0.094 -1.087,-0.145 -1.684,-0.145 l -43.19,-0.003 c -0.598,0 -1.168,0.051 -1.688,0.146 -0.52,0.092 -0.986,0.23 -1.385,0.396 -0.394,0.168 -0.717,0.368 -0.941,0.589 -0.225,0.223 -0.351,0.466 -0.358,0.722 l -0.424,15.426 c -0.004,0.262 0.11,0.508 0.326,0.736 0.212,0.226 0.527,0.43 0.916,0.601 0.391,0.17 0.856,0.309 1.375,0.403 0.523,0.098 1.094,0.148 1.698,0.148 l 43.643,0.001 c 0.605,0 1.18,-0.052 1.701,-0.149 0.523,-0.095 0.994,-0.233 1.388,-0.403 0.395,-0.171 0.712,-0.375 0.935,-0.6 0.221,-0.226 0.342,-0.476 0.342,-0.734 l -0.014,-15.427 c 0,-0.27 -0.12,-0.52 -0.34,-0.74 z m 57.66,0 c -0.226,-0.223 -0.549,-0.423 -0.946,-0.59 -0.396,-0.166 -0.865,-0.303 -1.385,-0.396 -0.523,-0.096 -1.091,-0.145 -1.687,-0.145 l -43.198,-0.002 c -0.598,0 -1.163,0.051 -1.678,0.146 -0.516,0.092 -0.977,0.228 -1.369,0.395 -0.39,0.167 -0.705,0.367 -0.921,0.588 -0.22,0.225 -0.341,0.468 -0.337,0.724 l 0.061,15.427 c 0.004,0.259 0.127,0.509 0.346,0.734 0.221,0.225 0.543,0.429 0.938,0.6 0.393,0.171 0.863,0.31 1.39,0.407 0.521,0.094 1.093,0.146 1.693,0.146 h 43.653 c 0.604,0 1.177,-0.051 1.695,-0.146 0.519,-0.098 0.985,-0.236 1.374,-0.406 0.389,-0.17 0.701,-0.374 0.916,-0.6 0.212,-0.227 0.327,-0.474 0.319,-0.735 l -0.502,-15.427 c -0.01,-0.25 -0.14,-0.49 -0.36,-0.72 z m 57.64,0 c -0.229,-0.222 -0.56,-0.422 -0.963,-0.588 -0.399,-0.168 -0.874,-0.305 -1.396,-0.397 -0.523,-0.094 -1.096,-0.146 -1.693,-0.146 H 726.71 c -0.597,0 -1.164,0.049 -1.676,0.145 -0.516,0.094 -0.974,0.23 -1.358,0.396 -0.386,0.167 -0.696,0.367 -0.906,0.59 -0.212,0.222 -0.323,0.465 -0.313,0.72 l 0.55,15.427 c 0.007,0.262 0.138,0.511 0.367,0.735 0.229,0.226 0.556,0.43 0.957,0.6 0.402,0.172 0.877,0.309 1.402,0.406 0.525,0.095 1.101,0.146 1.707,0.146 l 43.643,0.004 c 0.603,0 1.174,-0.053 1.69,-0.149 0.516,-0.095 0.976,-0.232 1.358,-0.404 0.388,-0.172 0.693,-0.376 0.898,-0.599 0.206,-0.228 0.313,-0.476 0.295,-0.738 l -0.984,-15.425 c -0.02,-0.26 -0.16,-0.5 -0.39,-0.73 z m 57.65,0 c -0.241,-0.219 -0.576,-0.42 -0.983,-0.588 -0.404,-0.167 -0.885,-0.303 -1.408,-0.395 -0.524,-0.096 -1.101,-0.146 -1.695,-0.146 l -43.199,-0.002 c -0.596,0 -1.156,0.052 -1.669,0.145 -0.511,0.093 -0.966,0.229 -1.345,0.397 -0.384,0.166 -0.686,0.366 -0.893,0.588 -0.201,0.222 -0.309,0.468 -0.291,0.723 l 1.038,15.424 c 0.016,0.263 0.155,0.511 0.391,0.738 0.236,0.223 0.57,0.427 0.979,0.599 0.405,0.172 0.886,0.31 1.412,0.404 0.53,0.097 1.105,0.149 1.709,0.149 h 43.651 c 0.601,0 1.171,-0.052 1.684,-0.149 0.513,-0.094 0.971,-0.232 1.353,-0.402 0.375,-0.174 0.675,-0.376 0.873,-0.601 0.2,-0.228 0.298,-0.476 0.273,-0.735 l -1.475,-15.427 c -0.02,-0.25 -0.16,-0.49 -0.4,-0.72 z m 57.64,0.01 c -0.245,-0.221 -0.589,-0.421 -0.998,-0.588 -0.41,-0.17 -0.897,-0.303 -1.425,-0.397 -0.529,-0.094 -1.104,-0.146 -1.702,-0.146 H 841.93 c -0.598,0 -1.159,0.05 -1.668,0.146 -0.509,0.095 -0.963,0.228 -1.334,0.396 -0.373,0.166 -0.672,0.367 -0.868,0.586 -0.196,0.225 -0.294,0.468 -0.267,0.723 l 1.52,15.427 c 0.027,0.26 0.172,0.508 0.415,0.735 0.242,0.225 0.583,0.427 0.993,0.601 0.413,0.17 0.897,0.309 1.429,0.402 0.532,0.098 1.111,0.149 1.715,0.149 h 43.64 c 0.604,0 1.171,-0.052 1.681,-0.147 0.512,-0.095 0.964,-0.232 1.337,-0.402 0.374,-0.173 0.667,-0.378 0.859,-0.602 0.189,-0.226 0.281,-0.474 0.248,-0.736 l -1.961,-15.425 c -0.05,-0.26 -0.21,-0.5 -0.45,-0.72 z m 57.64,0 c -0.254,-0.223 -0.603,-0.422 -1.021,-0.592 -0.419,-0.165 -0.904,-0.302 -1.434,-0.396 -0.533,-0.094 -1.108,-0.143 -1.705,-0.143 l -43.194,-0.004 c -0.594,0 -1.158,0.052 -1.663,0.146 -0.506,0.095 -0.949,0.228 -1.321,0.397 -0.367,0.167 -0.657,0.367 -0.848,0.588 -0.188,0.222 -0.279,0.465 -0.246,0.724 l 2.007,15.423 c 0.039,0.263 0.187,0.511 0.44,0.736 0.247,0.225 0.595,0.429 1.011,0.602 0.418,0.17 0.907,0.308 1.442,0.402 0.534,0.096 1.115,0.149 1.72,0.149 l 43.646,10e-4 c 0.6,0 1.167,-0.055 1.672,-0.15 0.509,-0.093 0.956,-0.23 1.326,-0.402 0.368,-0.173 0.655,-0.375 0.84,-0.602 0.187,-0.226 0.269,-0.474 0.229,-0.734 l -2.445,-15.422 c -0.05,-0.28 -0.2,-0.52 -0.46,-0.74 z m 116.22,0 c -0.268,-0.222 -0.627,-0.42 -1.057,-0.589 -0.426,-0.168 -0.921,-0.303 -1.463,-0.397 -0.537,-0.091 -1.114,-0.145 -1.709,-0.146 h -101.26 c -0.598,0 -1.159,0.049 -1.66,0.143 -0.502,0.095 -0.945,0.231 -1.309,0.396 -0.36,0.17 -0.646,0.369 -0.827,0.592 -0.186,0.221 -0.263,0.463 -0.226,0.723 l 2.499,15.422 c 0.041,0.261 0.202,0.509 0.464,0.734 0.254,0.227 0.605,0.431 1.029,0.602 0.419,0.172 0.916,0.31 1.451,0.402 0.541,0.096 1.122,0.15 1.726,0.15 l 102.32,10e-4 c 0.603,0 1.167,-0.052 1.667,-0.147 0.503,-0.096 0.941,-0.233 1.298,-0.405 0.354,-0.171 0.631,-0.374 0.802,-0.6 0.169,-0.226 0.236,-0.476 0.178,-0.735 l -3.425,-15.423 c -0.1,-0.23 -0.2,-0.48 -0.5,-0.7 z m 10.7,16.88 c 0.273,0.226 0.639,0.429 1.072,0.6 0.432,0.172 0.934,0.31 1.479,0.405 0.536,0.096 1.123,0.15 1.726,0.15 h 43.644 c 0.604,0 1.164,-0.055 1.661,-0.15 0.499,-0.094 0.935,-0.233 1.287,-0.402 0.35,-0.172 0.618,-0.374 0.778,-0.6 0.163,-0.229 0.225,-0.476 0.159,-0.735 l -3.918,-15.424 c -0.063,-0.259 -0.247,-0.501 -0.52,-0.725 -0.273,-0.222 -0.641,-0.418 -1.073,-0.586 -0.435,-0.171 -0.935,-0.303 -1.476,-0.4 -0.539,-0.091 -1.119,-0.145 -1.717,-0.145 h -43.193 c -0.593,0 -1.149,0.054 -1.644,0.145 -0.494,0.095 -0.927,0.229 -1.278,0.397 -0.357,0.169 -0.627,0.367 -0.796,0.589 -0.166,0.22 -0.233,0.466 -0.177,0.725 l 3.479,15.422 c 0,0.27 0.2,0.52 0.4,0.74 z M 330,720.36 c 0.546,-0.1 1.05,-0.241 1.479,-0.415 0.43,-0.176 0.793,-0.382 1.058,-0.615 0.263,-0.233 0.432,-0.486 0.477,-0.753 l 2.744,-15.81 c 0.045,-0.261 -0.033,-0.511 -0.214,-0.739 -0.184,-0.229 -0.47,-0.433 -0.839,-0.604 -0.364,-0.171 -0.814,-0.312 -1.321,-0.408 -0.507,-0.096 -1.072,-0.147 -1.678,-0.147 l -43.726,-0.002 c -0.601,0 -1.188,0.052 -1.732,0.149 -0.541,0.097 -1.041,0.235 -1.472,0.408 -0.429,0.171 -0.789,0.374 -1.058,0.604 -0.268,0.227 -0.44,0.476 -0.494,0.738 l -3.19,15.811 c -0.055,0.264 0.018,0.52 0.193,0.753 0.178,0.229 0.458,0.438 0.821,0.614 0.366,0.175 0.816,0.315 1.323,0.414 0.511,0.098 1.079,0.154 1.69,0.154 h 44.19 c 0.62,0.02 1.21,-0.03 1.75,-0.13 z m -135.14,-0.42 c 0.355,0.172 0.797,0.315 1.302,0.412 0.501,0.1 1.074,0.154 1.683,0.154 l 69.821,0.002 c 0.612,0 1.204,-0.057 1.753,-0.154 0.551,-0.099 1.057,-0.239 1.492,-0.414 0.433,-0.177 0.801,-0.385 1.074,-0.614 0.271,-0.233 0.446,-0.489 0.499,-0.753 l 3.256,-15.812 c 0.056,-0.262 -0.016,-0.511 -0.189,-0.737 -0.175,-0.229 -0.454,-0.433 -0.814,-0.604 -0.359,-0.173 -0.8,-0.312 -1.305,-0.408 -0.502,-0.098 -1.069,-0.149 -1.672,-0.149 h -69.089 c -0.605,0 -1.192,0.051 -1.74,0.147 -0.548,0.096 -1.055,0.235 -1.49,0.408 -0.441,0.17 -0.811,0.375 -1.088,0.602 -0.278,0.229 -0.462,0.479 -0.525,0.741 l -3.923,15.809 c -0.066,0.267 -0.005,0.521 0.163,0.756 0.17,0.21 0.44,0.42 0.8,0.6 z m 194.09,0.42 c 0.542,-0.097 1.038,-0.238 1.461,-0.415 0.422,-0.176 0.778,-0.382 1.035,-0.614 0.255,-0.232 0.414,-0.487 0.452,-0.754 l 2.245,-15.81 c 0.039,-0.261 -0.049,-0.511 -0.235,-0.738 -0.192,-0.227 -0.483,-0.433 -0.854,-0.604 -0.368,-0.171 -0.822,-0.31 -1.33,-0.408 -0.51,-0.097 -1.079,-0.147 -1.684,-0.147 l -43.723,-10e-4 c -0.605,0 -1.188,0.052 -1.728,0.147 -0.542,0.097 -1.035,0.237 -1.459,0.408 -0.426,0.171 -0.783,0.375 -1.041,0.604 -0.262,0.229 -0.425,0.479 -0.469,0.739 l -2.694,15.81 c -0.043,0.267 0.036,0.52 0.218,0.753 0.184,0.233 0.474,0.439 0.841,0.615 0.371,0.174 0.824,0.315 1.334,0.415 0.512,0.099 1.085,0.152 1.698,0.153 h 44.188 c 0.6,0 1.19,-0.05 1.74,-0.15 z m 58.93,0 c 0.538,-0.099 1.031,-0.24 1.45,-0.417 0.42,-0.175 0.766,-0.382 1.015,-0.614 0.249,-0.23 0.402,-0.484 0.431,-0.754 l 1.746,-15.809 c 0.028,-0.261 -0.066,-0.511 -0.261,-0.737 -0.197,-0.229 -0.493,-0.432 -0.869,-0.605 -0.376,-0.168 -0.834,-0.309 -1.346,-0.405 -0.512,-0.097 -1.083,-0.15 -1.688,-0.15 h -43.722 c -0.604,0 -1.185,0.053 -1.723,0.147 -0.535,0.1 -1.028,0.237 -1.446,0.408 -0.419,0.174 -0.767,0.377 -1.022,0.604 -0.251,0.228 -0.41,0.478 -0.446,0.738 l -2.193,15.81 c -0.037,0.267 0.05,0.521 0.241,0.754 0.191,0.233 0.486,0.438 0.86,0.614 0.377,0.177 0.833,0.318 1.349,0.415 0.515,0.099 1.09,0.153 1.698,0.153 h 44.188 c 0.61,0 1.2,-0.05 1.74,-0.15 z m 13.36,-19.34 c -0.534,0.097 -1.018,0.237 -1.432,0.405 -0.414,0.174 -0.754,0.378 -1,0.605 -0.246,0.227 -0.393,0.478 -0.423,0.737 l -1.696,15.809 c -0.03,0.27 0.067,0.523 0.266,0.754 0.197,0.232 0.498,0.439 0.88,0.614 0.379,0.177 0.84,0.318 1.356,0.417 0.517,0.097 1.092,0.153 1.701,0.153 l 44.192,10e-4 c 0.614,0 1.199,-0.056 1.736,-0.154 0.534,-0.098 1.023,-0.239 1.436,-0.415 0.413,-0.174 0.753,-0.384 0.996,-0.613 0.242,-0.233 0.386,-0.487 0.405,-0.755 l 1.252,-15.81 c 0.019,-0.261 -0.084,-0.509 -0.286,-0.738 -0.204,-0.228 -0.509,-0.431 -0.891,-0.603 -0.381,-0.171 -0.843,-0.312 -1.356,-0.408 -0.519,-0.097 -1.089,-0.148 -1.695,-0.148 l -43.728,-0.002 c -0.62,0 -1.2,0.05 -1.73,0.15 z m 58.32,0 c -0.531,0.097 -1.014,0.237 -1.42,0.408 -0.409,0.172 -0.747,0.375 -0.985,0.603 -0.237,0.229 -0.379,0.478 -0.399,0.738 l -1.198,15.81 c -0.021,0.268 0.083,0.521 0.291,0.755 0.205,0.23 0.511,0.439 0.898,0.613 0.386,0.176 0.851,0.317 1.374,0.415 0.519,0.099 1.099,0.154 1.708,0.154 h 44.185 c 0.61,0 1.192,-0.056 1.727,-0.153 0.533,-0.097 1.017,-0.238 1.424,-0.416 0.407,-0.174 0.74,-0.381 0.978,-0.613 0.232,-0.233 0.367,-0.486 0.381,-0.755 l 0.751,-15.81 c 0.014,-0.261 -0.099,-0.508 -0.309,-0.737 -0.209,-0.227 -0.52,-0.43 -0.907,-0.603 -0.387,-0.171 -0.854,-0.311 -1.373,-0.406 -0.518,-0.098 -1.089,-0.151 -1.694,-0.151 h -43.719 c -0.61,0 -1.19,0.05 -1.72,0.15 z m 58.32,0 c -0.527,0.096 -1.005,0.235 -1.406,0.406 -0.404,0.173 -0.735,0.377 -0.967,0.603 -0.232,0.229 -0.366,0.477 -0.378,0.737 l -0.701,15.81 c -0.011,0.269 0.101,0.522 0.316,0.755 0.212,0.232 0.527,0.439 0.92,0.613 0.392,0.178 0.862,0.319 1.388,0.416 0.521,0.098 1.101,0.153 1.71,0.153 h 44.19 c 0.61,0 1.192,-0.054 1.723,-0.151 0.53,-0.099 1.01,-0.24 1.413,-0.417 0.4,-0.174 0.728,-0.382 0.956,-0.614 0.225,-0.23 0.353,-0.486 0.358,-0.752 l 0.25,-15.81 c 0.007,-0.261 -0.112,-0.511 -0.328,-0.737 -0.218,-0.229 -0.533,-0.433 -0.927,-0.605 -0.395,-0.17 -0.862,-0.311 -1.384,-0.406 -0.523,-0.097 -1.095,-0.151 -1.702,-0.151 h -43.72 c -0.61,-0.01 -1.18,0.04 -1.71,0.14 z m 58.32,0 c -0.523,0.096 -0.996,0.236 -1.392,0.406 -0.4,0.173 -0.723,0.377 -0.948,0.605 -0.225,0.227 -0.349,0.477 -0.351,0.737 l -0.206,15.81 c -0.002,0.266 0.119,0.521 0.338,0.752 0.221,0.232 0.541,0.44 0.939,0.614 0.398,0.177 0.873,0.318 1.398,0.417 0.528,0.098 1.108,0.151 1.721,0.151 l 44.181,0.002 c 0.611,0 1.19,-0.056 1.72,-0.153 0.527,-0.097 1.001,-0.239 1.396,-0.417 0.398,-0.172 0.717,-0.382 0.936,-0.614 0.224,-0.23 0.341,-0.485 0.336,-0.751 l -0.246,-15.811 c -0.004,-0.261 -0.129,-0.509 -0.354,-0.736 -0.225,-0.229 -0.548,-0.43 -0.942,-0.604 -0.4,-0.172 -0.874,-0.313 -1.399,-0.408 -0.523,-0.097 -1.1,-0.148 -1.705,-0.148 h -43.716 c -0.62,-0.01 -1.19,0.04 -1.72,0.14 z m 58.32,0 c -0.523,0.096 -0.988,0.236 -1.386,0.408 -0.39,0.175 -0.707,0.375 -0.925,0.604 -0.219,0.228 -0.339,0.476 -0.332,0.736 l 0.297,15.811 c 0.002,0.266 0.132,0.521 0.361,0.751 0.227,0.233 0.554,0.442 0.96,0.617 0.403,0.175 0.884,0.317 1.411,0.414 0.53,0.098 1.114,0.153 1.722,0.153 h 44.188 c 0.61,0 1.188,-0.054 1.712,-0.153 0.527,-0.097 0.996,-0.239 1.389,-0.414 0.39,-0.175 0.704,-0.384 0.915,-0.616 0.213,-0.231 0.324,-0.486 0.313,-0.752 L 744.4,702.768 c -0.012,-0.26 -0.145,-0.509 -0.376,-0.734 -0.234,-0.228 -0.561,-0.432 -0.968,-0.605 -0.401,-0.173 -0.881,-0.31 -1.408,-0.406 -0.526,-0.097 -1.107,-0.151 -1.708,-0.151 h -43.727 c -0.56,-0.01 -1.14,0.05 -1.66,0.14 z m 58.32,0 c -0.516,0.097 -0.98,0.233 -1.367,0.406 -0.39,0.174 -0.697,0.378 -0.908,0.605 -0.21,0.226 -0.318,0.475 -0.308,0.734 l 0.795,15.811 c 0.015,0.266 0.152,0.521 0.384,0.752 0.235,0.232 0.572,0.441 0.977,0.616 0.41,0.175 0.894,0.317 1.43,0.414 0.533,0.1 1.113,0.153 1.728,0.153 h 44.176 c 0.612,0 1.188,-0.053 1.711,-0.151 0.521,-0.098 0.984,-0.239 1.37,-0.415 0.387,-0.176 0.694,-0.382 0.9,-0.614 0.204,-0.232 0.307,-0.487 0.286,-0.755 l -1.241,-15.808 c -0.021,-0.261 -0.164,-0.511 -0.403,-0.737 -0.237,-0.228 -0.573,-0.431 -0.983,-0.605 -0.408,-0.17 -0.89,-0.31 -1.421,-0.406 -0.531,-0.095 -1.11,-0.151 -1.713,-0.151 h -43.716 c -0.61,0.01 -1.18,0.07 -1.7,0.16 z m 58.31,0 c -0.514,0.098 -0.973,0.236 -1.355,0.409 -0.383,0.172 -0.687,0.375 -0.888,0.603 -0.204,0.227 -0.309,0.477 -0.284,0.737 l 1.291,15.808 c 0.02,0.268 0.167,0.522 0.408,0.755 0.242,0.232 0.58,0.438 0.996,0.614 0.417,0.176 0.905,0.317 1.442,0.415 0.537,0.099 1.119,0.151 1.728,0.151 l 44.187,0.001 c 0.61,0 1.186,-0.054 1.704,-0.151 0.517,-0.099 0.975,-0.238 1.357,-0.416 0.377,-0.175 0.676,-0.382 0.872,-0.614 0.195,-0.231 0.294,-0.487 0.264,-0.752 l -1.739,-15.811 c -0.029,-0.261 -0.179,-0.511 -0.422,-0.736 -0.247,-0.227 -0.589,-0.43 -1.001,-0.604 -0.413,-0.173 -0.897,-0.312 -1.431,-0.409 -0.536,-0.095 -1.115,-0.149 -1.721,-0.149 H 812.84 c -0.61,0 -1.18,0.06 -1.7,0.15 z m 58.32,0 c -0.509,0.096 -0.967,0.234 -1.341,0.407 -0.376,0.174 -0.673,0.377 -0.871,0.604 -0.192,0.226 -0.286,0.476 -0.261,0.736 l 1.795,15.811 c 0.025,0.265 0.18,0.521 0.429,0.752 0.249,0.232 0.597,0.439 1.016,0.614 0.421,0.178 0.913,0.32 1.452,0.418 0.54,0.096 1.13,0.149 1.738,0.149 h 44.178 c 0.607,0 1.183,-0.052 1.697,-0.149 0.518,-0.098 0.97,-0.24 1.346,-0.417 0.377,-0.175 0.668,-0.382 0.858,-0.615 0.192,-0.231 0.278,-0.486 0.238,-0.752 l -2.235,-15.809 c -0.036,-0.262 -0.195,-0.51 -0.446,-0.738 -0.255,-0.227 -0.604,-0.43 -1.022,-0.604 -0.422,-0.173 -0.913,-0.311 -1.449,-0.406 -0.535,-0.095 -1.119,-0.15 -1.721,-0.15 h -43.713 c -0.64,0.02 -1.21,0.07 -1.72,0.16 z m 58.31,0 c -0.511,0.096 -0.962,0.233 -1.332,0.406 -0.369,0.174 -0.662,0.377 -0.849,0.604 -0.19,0.229 -0.275,0.477 -0.236,0.738 l 2.287,15.809 c 0.039,0.266 0.196,0.521 0.453,0.752 0.26,0.233 0.608,0.44 1.039,0.615 0.425,0.177 0.921,0.319 1.464,0.417 0.541,0.098 1.131,0.151 1.74,0.151 h 44.183 c 0.611,0 1.181,-0.054 1.69,-0.151 0.514,-0.098 0.96,-0.24 1.331,-0.415 0.368,-0.177 0.655,-0.382 0.84,-0.614 0.182,-0.234 0.262,-0.486 0.216,-0.755 l -2.736,-15.809 c -0.045,-0.26 -0.213,-0.509 -0.474,-0.735 -0.256,-0.226 -0.611,-0.433 -1.037,-0.604 -0.426,-0.173 -0.918,-0.313 -1.457,-0.408 -0.538,-0.095 -1.123,-0.149 -1.724,-0.149 l -43.719,-10e-4 c -0.59,0 -1.16,0.05 -1.67,0.14 z m 137.02,0.01 c -0.542,-0.096 -1.129,-0.149 -1.734,-0.149 l -74.826,-0.004 c -0.602,0 -1.168,0.055 -1.676,0.151 -0.507,0.096 -0.952,0.234 -1.315,0.406 -0.367,0.172 -0.652,0.379 -0.83,0.604 -0.185,0.227 -0.264,0.476 -0.217,0.737 l 2.792,15.807 c 0.046,0.269 0.213,0.521 0.476,0.755 0.269,0.232 0.627,0.438 1.056,0.614 0.431,0.175 0.932,0.317 1.48,0.415 0.545,0.098 1.138,0.151 1.746,0.151 h 75.622 c 0.607,0 1.179,-0.052 1.684,-0.15 0.51,-0.099 0.955,-0.24 1.315,-0.416 0.36,-0.174 0.639,-0.382 0.808,-0.614 0.174,-0.232 0.242,-0.486 0.181,-0.751 l -3.504,-15.811 c -0.056,-0.26 -0.232,-0.51 -0.504,-0.736 -0.272,-0.227 -0.637,-0.433 -1.07,-0.604 -0.5,-0.17 -0.9,-0.31 -1.5,-0.4 z M 292.89,743.2 c 0.37,0.18 0.825,0.328 1.342,0.429 0.516,0.099 1.093,0.153 1.714,0.153 l 44.738,0.003 c 0.618,0 1.216,-0.058 1.769,-0.156 0.55,-0.101 1.057,-0.248 1.491,-0.427 0.436,-0.179 0.797,-0.395 1.063,-0.632 0.266,-0.236 0.436,-0.495 0.479,-0.769 l 2.671,-16.204 c 0.044,-0.269 -0.039,-0.523 -0.225,-0.758 -0.185,-0.233 -0.475,-0.44 -0.847,-0.618 -0.37,-0.176 -0.824,-0.318 -1.336,-0.418 -0.517,-0.098 -1.088,-0.152 -1.7,-0.152 l -44.263,-10e-4 c -0.612,0 -1.204,0.056 -1.755,0.153 -0.547,0.1 -1.051,0.242 -1.484,0.417 -0.436,0.178 -0.802,0.386 -1.068,0.619 -0.269,0.234 -0.44,0.489 -0.495,0.758 l -3.129,16.202 c -0.054,0.272 0.022,0.534 0.2,0.771 0.18,0.24 0.47,0.46 0.84,0.64 z m -103.78,0 c 0.361,0.18 0.808,0.328 1.318,0.426 0.511,0.101 1.083,0.156 1.703,0.156 h 86.035 c 0.614,0 1.214,-0.055 1.77,-0.153 0.555,-0.101 1.065,-0.249 1.507,-0.429 0.439,-0.177 0.811,-0.394 1.084,-0.63 0.274,-0.236 0.45,-0.498 0.504,-0.771 l 3.207,-16.202 c 0.053,-0.269 -0.023,-0.523 -0.201,-0.758 -0.178,-0.233 -0.462,-0.441 -0.828,-0.619 -0.365,-0.177 -0.814,-0.317 -1.325,-0.417 -0.508,-0.098 -1.079,-0.153 -1.687,-0.153 l -85.121,-0.002 c -0.614,0 -1.207,0.057 -1.76,0.153 -0.556,0.1 -1.067,0.242 -1.511,0.416 -0.444,0.178 -0.821,0.389 -1.101,0.62 -0.282,0.234 -0.47,0.488 -0.538,0.757 l -4.018,16.205 c -0.066,0.271 -0.005,0.534 0.16,0.771 0.17,0.21 0.45,0.43 0.81,0.61 z m 163.43,0 c 0.377,0.179 0.835,0.326 1.354,0.427 0.518,0.099 1.098,0.156 1.719,0.156 l 44.745,10e-4 c 0.615,0 1.21,-0.059 1.76,-0.157 0.546,-0.101 1.051,-0.248 1.479,-0.426 0.429,-0.18 0.786,-0.393 1.046,-0.63 0.255,-0.239 0.418,-0.498 0.454,-0.771 l 2.158,-16.203 c 0.036,-0.269 -0.054,-0.523 -0.249,-0.757 -0.192,-0.231 -0.49,-0.442 -0.868,-0.62 -0.378,-0.175 -0.836,-0.318 -1.351,-0.416 -0.515,-0.097 -1.09,-0.154 -1.7,-0.154 h -44.27 c -0.611,0 -1.204,0.058 -1.75,0.152 -0.544,0.1 -1.043,0.242 -1.472,0.418 -0.428,0.178 -0.788,0.385 -1.05,0.618 -0.262,0.234 -0.424,0.489 -0.468,0.758 l -2.619,16.204 c -0.046,0.273 0.037,0.532 0.223,0.769 0.19,0.23 0.49,0.45 0.86,0.63 z m 59.66,0 c 0.383,0.181 0.843,0.325 1.367,0.426 0.522,0.099 1.105,0.157 1.721,0.157 h 44.736 c 0.619,0 1.214,-0.059 1.76,-0.156 0.545,-0.102 1.041,-0.246 1.465,-0.427 0.423,-0.179 0.772,-0.393 1.021,-0.63 0.249,-0.238 0.403,-0.498 0.43,-0.771 l 1.649,-16.202 c 0.026,-0.27 -0.071,-0.524 -0.273,-0.758 -0.199,-0.231 -0.501,-0.442 -0.885,-0.618 -0.382,-0.177 -0.843,-0.319 -1.363,-0.417 -0.519,-0.097 -1.096,-0.152 -1.708,-0.152 l -44.26,-0.003 c -0.613,0 -1.199,0.058 -1.744,0.154 -0.542,0.098 -1.04,0.241 -1.46,0.416 -0.427,0.178 -0.775,0.389 -1.029,0.62 -0.255,0.233 -0.412,0.488 -0.447,0.757 l -2.109,16.203 c -0.033,0.273 0.055,0.532 0.251,0.771 0.19,0.24 0.49,0.45 0.87,0.63 z m 109.25,0.42 c 0.542,-0.1 1.034,-0.246 1.453,-0.427 0.417,-0.179 0.76,-0.393 1.002,-0.629 0.244,-0.238 0.386,-0.497 0.404,-0.772 l 1.14,-16.202 c 0.019,-0.267 -0.089,-0.523 -0.293,-0.757 -0.21,-0.232 -0.517,-0.441 -0.908,-0.619 -0.387,-0.177 -0.854,-0.317 -1.377,-0.417 -0.521,-0.097 -1.099,-0.152 -1.712,-0.152 h -44.257 c -0.612,0 -1.199,0.056 -1.738,0.152 -0.542,0.098 -1.032,0.24 -1.449,0.417 -0.418,0.176 -0.761,0.387 -1.011,0.618 -0.247,0.233 -0.393,0.488 -0.421,0.758 l -1.6,16.202 c -0.026,0.273 0.076,0.533 0.278,0.771 0.204,0.237 0.509,0.451 0.896,0.63 0.386,0.181 0.854,0.325 1.38,0.427 0.527,0.098 1.107,0.156 1.727,0.156 H 519.7 c 0.61,0 1.2,-0.05 1.75,-0.16 z m 59.67,0 c 0.539,-0.099 1.027,-0.246 1.439,-0.427 0.409,-0.178 0.746,-0.393 0.982,-0.629 0.234,-0.238 0.368,-0.497 0.381,-0.772 l 0.625,-16.202 c 0.014,-0.267 -0.102,-0.523 -0.316,-0.757 -0.216,-0.23 -0.533,-0.439 -0.926,-0.618 -0.393,-0.175 -0.865,-0.316 -1.388,-0.418 -0.526,-0.097 -1.106,-0.151 -1.72,-0.151 l -44.255,-10e-4 c -0.613,0 -1.198,0.056 -1.735,0.152 -0.538,0.102 -1.022,0.243 -1.436,0.417 -0.411,0.178 -0.75,0.387 -0.989,0.619 -0.24,0.233 -0.382,0.49 -0.399,0.757 l -1.087,16.202 c -0.017,0.275 0.09,0.534 0.297,0.772 0.212,0.236 0.527,0.45 0.917,0.629 0.393,0.181 0.864,0.327 1.395,0.427 0.529,0.101 1.115,0.156 1.733,0.156 h 44.73 c 0.65,0 1.24,-0.05 1.78,-0.16 z m 59.66,0.01 c 0.534,-0.101 1.02,-0.248 1.426,-0.429 0.406,-0.178 0.733,-0.393 0.964,-0.629 0.229,-0.236 0.352,-0.497 0.354,-0.771 l 0.119,-16.202 c 10e-4,-0.268 -0.122,-0.525 -0.343,-0.757 -0.221,-0.232 -0.543,-0.441 -0.944,-0.62 -0.399,-0.174 -0.873,-0.316 -1.402,-0.416 -0.528,-0.097 -1.11,-0.151 -1.723,-0.151 h -44.256 c -0.612,0 -1.196,0.053 -1.728,0.149 -0.535,0.102 -1.017,0.243 -1.422,0.418 -0.406,0.179 -0.738,0.388 -0.972,0.618 -0.23,0.233 -0.361,0.49 -0.373,0.757 l -0.58,16.202 c -0.007,0.275 0.107,0.534 0.326,0.772 0.218,0.236 0.536,0.451 0.935,0.629 0.398,0.181 0.875,0.328 1.406,0.429 0.533,0.099 1.12,0.154 1.737,0.154 h 44.733 c 0.59,0 1.18,-0.05 1.72,-0.15 z m 59.66,0 c 0.535,-0.101 1.012,-0.247 1.411,-0.426 0.399,-0.181 0.724,-0.395 0.941,-0.632 0.222,-0.236 0.339,-0.496 0.334,-0.77 l -0.391,-16.201 c -0.01,-0.27 -0.143,-0.527 -0.368,-0.759 -0.229,-0.231 -0.56,-0.441 -0.964,-0.617 -0.404,-0.177 -0.886,-0.319 -1.415,-0.417 -0.533,-0.099 -1.118,-0.153 -1.73,-0.153 h -44.262 c -0.608,0 -1.19,0.055 -1.722,0.153 -0.529,0.098 -1.006,0.24 -1.408,0.414 -0.401,0.179 -0.728,0.388 -0.953,0.62 -0.228,0.231 -0.351,0.489 -0.353,0.757 l -0.066,16.202 c -10e-4,0.273 0.123,0.534 0.35,0.771 0.225,0.236 0.554,0.451 0.958,0.629 0.404,0.182 0.887,0.328 1.419,0.429 0.534,0.101 1.124,0.154 1.737,0.154 l 44.74,0.002 c 0.62,0.01 1.21,-0.04 1.74,-0.14 z m 59.66,0 c 0.531,-0.101 1.004,-0.247 1.397,-0.425 0.392,-0.182 0.711,-0.394 0.923,-0.632 0.215,-0.237 0.324,-0.497 0.308,-0.771 l -0.903,-16.201 c -0.015,-0.269 -0.15,-0.524 -0.39,-0.756 -0.233,-0.234 -0.572,-0.444 -0.981,-0.619 -0.412,-0.176 -0.896,-0.319 -1.431,-0.418 -0.535,-0.099 -1.121,-0.152 -1.731,-0.152 H 713.04 c -0.613,0 -1.197,0.054 -1.721,0.152 -0.527,0.098 -1,0.24 -1.397,0.417 -0.396,0.176 -0.712,0.386 -0.931,0.617 -0.215,0.231 -0.333,0.489 -0.325,0.759 l 0.443,16.201 c 0.007,0.273 0.138,0.533 0.372,0.77 0.231,0.237 0.565,0.451 0.976,0.632 0.409,0.179 0.895,0.325 1.432,0.426 0.541,0.101 1.134,0.156 1.748,0.156 l 44.729,0.001 c 0.6,-0.01 1.19,-0.06 1.72,-0.16 z m 59.66,0 c 0.526,-0.101 0.995,-0.246 1.385,-0.425 0.39,-0.182 0.701,-0.394 0.905,-0.632 0.207,-0.237 0.308,-0.497 0.284,-0.771 l -1.415,-16.201 c -0.021,-0.269 -0.168,-0.524 -0.411,-0.754 -0.247,-0.234 -0.591,-0.445 -1.005,-0.621 -0.418,-0.176 -0.906,-0.317 -1.445,-0.418 -0.537,-0.099 -1.123,-0.152 -1.733,-0.152 h -44.262 c -0.608,0 -1.186,0.054 -1.708,0.152 -0.522,0.101 -0.99,0.242 -1.378,0.418 -0.393,0.175 -0.703,0.385 -0.914,0.619 -0.208,0.231 -0.316,0.487 -0.302,0.756 l 0.954,16.201 c 0.017,0.273 0.157,0.533 0.397,0.771 0.24,0.238 0.579,0.45 0.996,0.632 0.412,0.179 0.902,0.324 1.442,0.425 0.539,0.102 1.13,0.157 1.746,0.157 h 44.737 c 0.62,-0.02 1.2,-0.07 1.73,-0.17 z m 59.65,0 c 0.526,-0.098 0.992,-0.246 1.374,-0.423 0.382,-0.181 0.686,-0.395 0.885,-0.634 0.197,-0.236 0.291,-0.496 0.258,-0.771 l -1.924,-16.199 c -0.033,-0.268 -0.187,-0.524 -0.436,-0.756 -0.252,-0.234 -0.602,-0.443 -1.022,-0.619 -0.422,-0.177 -0.919,-0.319 -1.458,-0.42 -0.543,-0.098 -1.13,-0.149 -1.74,-0.149 h -44.251 c -0.61,0 -1.189,0.051 -1.711,0.149 -0.521,0.101 -0.983,0.242 -1.367,0.418 -0.385,0.176 -0.69,0.387 -0.891,0.621 -0.204,0.231 -0.305,0.485 -0.279,0.754 l 1.463,16.201 c 0.026,0.273 0.175,0.533 0.417,0.771 0.252,0.239 0.596,0.45 1.02,0.632 0.42,0.179 0.914,0.324 1.461,0.425 0.544,0.102 1.138,0.157 1.756,0.157 h 44.723 c 0.63,0 1.21,-0.05 1.73,-0.15 z m 59.66,0 c 0.519,-0.097 0.981,-0.244 1.357,-0.423 0.379,-0.181 0.674,-0.395 0.863,-0.634 0.19,-0.236 0.277,-0.496 0.235,-0.771 l -2.435,-16.198 c -0.039,-0.267 -0.203,-0.525 -0.461,-0.757 -0.257,-0.232 -0.615,-0.443 -1.04,-0.619 -0.426,-0.177 -0.925,-0.319 -1.473,-0.418 -0.542,-0.1 -1.133,-0.15 -1.745,-0.15 l -44.254,-10e-4 c -0.616,0 -1.191,0.052 -1.709,0.151 -0.52,0.099 -0.977,0.241 -1.354,0.418 -0.38,0.176 -0.677,0.385 -0.874,0.619 -0.195,0.231 -0.288,0.488 -0.256,0.756 l 1.977,16.199 c 0.033,0.274 0.188,0.534 0.443,0.771 0.256,0.239 0.61,0.453 1.034,0.634 0.428,0.177 0.93,0.326 1.474,0.423 0.549,0.102 1.146,0.157 1.766,0.157 h 44.734 c 0.63,-0.01 1.21,-0.06 1.73,-0.16 z m 135.63,0 c 0.514,-0.101 0.966,-0.248 1.329,-0.427 0.364,-0.181 0.645,-0.394 0.818,-0.632 0.174,-0.235 0.239,-0.496 0.179,-0.769 L 1073.43,725.6 c -0.058,-0.266 -0.238,-0.523 -0.513,-0.754 -0.276,-0.234 -0.644,-0.445 -1.086,-0.618 -0.44,-0.177 -0.949,-0.321 -1.498,-0.421 -0.552,-0.098 -1.145,-0.149 -1.758,-0.149 l -118.92,-0.002 c -0.614,0 -1.186,0.051 -1.7,0.15 -0.516,0.099 -0.969,0.241 -1.342,0.418 -0.372,0.176 -0.666,0.387 -0.854,0.619 -0.188,0.231 -0.273,0.49 -0.23,0.757 l 2.487,16.198 c 0.043,0.274 0.209,0.537 0.471,0.771 0.263,0.239 0.622,0.453 1.054,0.634 0.435,0.179 0.937,0.326 1.485,0.426 0.553,0.1 1.15,0.154 1.77,0.154 l 120.19,0.002 c 0.7,0 1.3,-0.06 1.8,-0.16 z m -695.08,4.06 c -0.19,-0.239 -0.487,-0.454 -0.867,-0.635 -0.38,-0.18 -0.84,-0.325 -1.362,-0.427 -0.521,-0.101 -1.105,-0.154 -1.723,-0.154 h -44.8 c -0.621,0 -1.219,0.054 -1.773,0.154 -0.553,0.102 -1.061,0.247 -1.497,0.427 -0.437,0.181 -0.804,0.395 -1.07,0.635 -0.27,0.238 -0.44,0.499 -0.488,0.775 l -2.898,16.597 c -0.047,0.283 0.031,0.55 0.221,0.793 0.186,0.246 0.476,0.462 0.857,0.648 0.375,0.184 0.838,0.333 1.361,0.435 0.525,0.104 1.112,0.159 1.737,0.159 l 45.289,0.002 c 0.625,0 1.232,-0.058 1.788,-0.161 0.557,-0.102 1.068,-0.251 1.506,-0.435 0.435,-0.187 0.796,-0.402 1.062,-0.646 0.266,-0.245 0.432,-0.512 0.471,-0.795 l 2.426,-16.597 c 0.03,-0.29 -0.06,-0.55 -0.25,-0.79 z m -64.22,17.37 2.963,-16.597 c 0.048,-0.276 -0.028,-0.537 -0.215,-0.775 -0.184,-0.24 -0.471,-0.454 -0.843,-0.635 -0.377,-0.18 -0.833,-0.325 -1.352,-0.429 -0.517,-0.099 -1.097,-0.153 -1.715,-0.153 l -122.78,-0.003 c -0.619,0 -1.224,0.058 -1.785,0.156 -0.56,0.102 -1.076,0.246 -1.529,0.427 -0.45,0.18 -0.832,0.396 -1.117,0.634 -0.286,0.24 -0.476,0.502 -0.544,0.777 l -4.117,16.598 c -0.069,0.283 -0.009,0.549 0.161,0.793 0.167,0.242 0.446,0.462 0.809,0.647 0.365,0.185 0.813,0.331 1.332,0.436 0.516,0.104 1.098,0.159 1.725,0.159 h 124.11 c 0.626,0 1.231,-0.056 1.792,-0.159 0.561,-0.102 1.076,-0.251 1.519,-0.435 0.443,-0.187 0.813,-0.405 1.084,-0.648 0.28,-0.24 0.46,-0.5 0.5,-0.79 z m 123.13,-18 c -0.384,-0.18 -0.851,-0.325 -1.376,-0.425 -0.525,-0.103 -1.107,-0.156 -1.725,-0.156 H 390.63 c -0.62,0 -1.218,0.054 -1.77,0.156 -0.549,0.1 -1.055,0.245 -1.484,0.425 -0.431,0.181 -0.789,0.396 -1.049,0.635 -0.262,0.238 -0.425,0.502 -0.464,0.775 l -2.372,16.597 c -0.041,0.283 0.047,0.55 0.241,0.795 0.195,0.244 0.496,0.46 0.878,0.646 0.381,0.184 0.848,0.334 1.376,0.435 0.529,0.104 1.117,0.161 1.741,0.161 h 45.287 c 0.627,0 1.231,-0.058 1.784,-0.16 0.555,-0.102 1.06,-0.252 1.49,-0.436 0.431,-0.187 0.785,-0.402 1.044,-0.646 0.257,-0.245 0.414,-0.512 0.446,-0.792 l 1.901,-16.6 c 0.033,-0.272 -0.064,-0.537 -0.262,-0.775 -0.2,-0.25 -0.51,-0.46 -0.89,-0.64 z m -68.08,23.93 c -0.383,-0.184 -0.851,-0.334 -1.377,-0.438 -0.525,-0.102 -1.114,-0.159 -1.739,-0.163 h -45.375 c -0.625,0 -1.232,0.062 -1.792,0.163 -0.56,0.104 -1.075,0.254 -1.519,0.438 -0.445,0.186 -0.815,0.406 -1.088,0.651 -0.276,0.242 -0.45,0.512 -0.5,0.794 l -3.014,17.026 c -0.05,0.288 0.029,0.563 0.218,0.812 0.189,0.251 0.486,0.477 0.868,0.664 0.383,0.188 0.852,0.341 1.378,0.447 0.532,0.105 1.126,0.164 1.756,0.164 h 45.875 c 0.632,0 1.242,-0.059 1.808,-0.164 0.565,-0.106 1.081,-0.26 1.525,-0.447 0.443,-0.188 0.813,-0.413 1.082,-0.664 0.272,-0.248 0.437,-0.523 0.484,-0.812 l 2.529,-17.026 c 0.041,-0.282 -0.045,-0.552 -0.243,-0.794 -0.21,-0.24 -0.52,-0.46 -0.9,-0.65 z m -63.42,0 c -0.375,-0.184 -0.836,-0.334 -1.361,-0.438 -0.522,-0.104 -1.112,-0.163 -1.738,-0.163 h -45.368 c -0.626,0 -1.235,0.06 -1.8,0.163 -0.564,0.104 -1.085,0.254 -1.532,0.438 -0.451,0.186 -0.829,0.406 -1.11,0.651 -0.282,0.242 -0.464,0.512 -0.526,0.794 l -3.573,17.028 c -0.062,0.286 0.01,0.562 0.189,0.812 0.18,0.249 0.468,0.475 0.844,0.662 0.375,0.188 0.838,0.341 1.363,0.447 0.529,0.105 1.119,0.164 1.754,0.164 h 45.867 c 0.633,0 1.248,-0.059 1.815,-0.164 0.569,-0.106 1.093,-0.26 1.54,-0.447 0.45,-0.188 0.825,-0.413 1.103,-0.664 0.278,-0.248 0.457,-0.523 0.508,-0.812 l 3.094,-17.026 c 0.048,-0.282 -0.026,-0.552 -0.212,-0.794 -0.17,-0.24 -0.46,-0.46 -0.84,-0.65 z M 433.38,771 c -0.388,-0.187 -0.863,-0.337 -1.391,-0.44 -0.531,-0.102 -1.122,-0.159 -1.748,-0.159 h -45.374 c -0.625,0 -1.23,0.058 -1.787,0.159 -0.558,0.104 -1.069,0.254 -1.506,0.438 -0.439,0.188 -0.803,0.406 -1.069,0.651 -0.264,0.242 -0.431,0.512 -0.472,0.794 l -2.455,17.026 c -0.04,0.288 0.045,0.563 0.244,0.812 0.196,0.251 0.5,0.477 0.887,0.664 0.387,0.188 0.861,0.341 1.396,0.447 0.535,0.105 1.128,0.164 1.759,0.164 h 45.875 c 0.636,0 1.244,-0.059 1.806,-0.164 0.561,-0.106 1.073,-0.26 1.51,-0.447 0.436,-0.188 0.799,-0.415 1.058,-0.664 0.262,-0.248 0.421,-0.523 0.455,-0.812 l 1.973,-17.026 c 0.031,-0.281 -0.063,-0.552 -0.265,-0.794 -0.2,-0.25 -0.51,-0.47 -0.9,-0.65 z M 445,766.5 c 0.388,0.184 0.858,0.334 1.388,0.436 0.53,0.103 1.117,0.16 1.74,0.16 l 45.296,10e-4 c 0.624,0 1.227,-0.059 1.775,-0.161 0.552,-0.102 1.053,-0.252 1.479,-0.436 0.423,-0.187 0.772,-0.402 1.022,-0.646 0.248,-0.245 0.399,-0.512 0.419,-0.792 l 1.38,-16.598 c 0.025,-0.274 -0.081,-0.537 -0.287,-0.777 -0.207,-0.238 -0.516,-0.454 -0.907,-0.635 -0.391,-0.179 -0.86,-0.324 -1.39,-0.425 -0.525,-0.1 -1.11,-0.156 -1.73,-0.156 h -44.807 c -0.617,0 -1.211,0.054 -1.758,0.156 -0.545,0.1 -1.042,0.245 -1.468,0.425 -0.423,0.181 -0.774,0.396 -1.029,0.635 -0.251,0.238 -0.408,0.503 -0.437,0.775 l -1.85,16.6 c -0.032,0.28 0.064,0.547 0.266,0.792 0.21,0.25 0.52,0.47 0.91,0.65 z m 60.38,0 c 0.393,0.184 0.872,0.334 1.404,0.436 0.534,0.103 1.125,0.161 1.751,0.161 h 45.282 c 0.627,0 1.228,-0.059 1.773,-0.161 0.549,-0.102 1.044,-0.252 1.465,-0.436 0.418,-0.187 0.761,-0.402 1.003,-0.646 0.24,-0.243 0.382,-0.511 0.393,-0.791 l 0.858,-16.599 c 0.013,-0.274 -0.098,-0.537 -0.309,-0.777 -0.219,-0.238 -0.534,-0.453 -0.931,-0.633 -0.397,-0.181 -0.868,-0.326 -1.399,-0.427 -0.532,-0.1 -1.12,-0.156 -1.738,-0.156 h -44.77 c -0.622,0 -1.213,0.057 -1.756,0.156 -0.544,0.101 -1.037,0.246 -1.458,0.425 -0.42,0.181 -0.765,0.396 -1.009,0.635 -0.247,0.24 -0.394,0.503 -0.415,0.777 l -1.327,16.598 c -0.021,0.28 0.081,0.547 0.291,0.792 0.22,0.25 0.53,0.47 0.92,0.65 z m 60.39,0 c 0.402,0.184 0.883,0.334 1.418,0.436 0.538,0.103 1.127,0.161 1.755,0.161 h 45.289 c 0.625,0 1.222,-0.059 1.764,-0.161 0.542,-0.102 1.035,-0.252 1.449,-0.436 0.416,-0.184 0.748,-0.402 0.986,-0.646 0.233,-0.243 0.367,-0.511 0.372,-0.791 l 0.333,-16.599 c 0.006,-0.274 -0.114,-0.537 -0.337,-0.776 -0.222,-0.239 -0.548,-0.452 -0.951,-0.634 -0.398,-0.181 -0.881,-0.325 -1.415,-0.425 -0.534,-0.102 -1.12,-0.158 -1.737,-0.158 h -44.803 c -0.617,0 -1.209,0.057 -1.748,0.156 -0.543,0.101 -1.032,0.246 -1.447,0.427 -0.415,0.18 -0.753,0.395 -0.992,0.633 -0.239,0.24 -0.381,0.503 -0.392,0.777 l -0.804,16.599 c -0.014,0.28 0.101,0.548 0.32,0.791 0.23,0.25 0.55,0.47 0.95,0.65 z m 60.39,0 c 0.407,0.184 0.892,0.334 1.434,0.436 0.538,0.103 1.135,0.161 1.762,0.161 h 45.281 c 0.623,0 1.22,-0.059 1.759,-0.161 0.542,-0.102 1.027,-0.251 1.434,-0.436 0.41,-0.184 0.736,-0.402 0.965,-0.646 0.226,-0.243 0.349,-0.511 0.346,-0.791 l -0.188,-16.598 c -0.004,-0.275 -0.135,-0.538 -0.359,-0.776 -0.232,-0.24 -0.563,-0.453 -0.971,-0.635 -0.408,-0.179 -0.891,-0.325 -1.428,-0.425 -0.535,-0.102 -1.128,-0.158 -1.748,-0.158 h -44.792 c -0.621,0 -1.21,0.057 -1.749,0.158 -0.537,0.1 -1.022,0.244 -1.432,0.425 -0.408,0.182 -0.738,0.395 -0.968,0.634 -0.232,0.239 -0.36,0.502 -0.366,0.776 l -0.28,16.599 c -0.004,0.28 0.12,0.548 0.345,0.791 0.24,0.26 0.57,0.48 0.98,0.66 z m 59.39,-0.64 c 0.235,0.244 0.571,0.463 0.981,0.646 0.414,0.185 0.905,0.334 1.45,0.436 0.542,0.103 1.136,0.161 1.761,0.161 h 45.29 c 0.624,0 1.218,-0.059 1.756,-0.161 0.538,-0.102 1.019,-0.251 1.421,-0.436 0.401,-0.184 0.723,-0.402 0.941,-0.646 0.219,-0.243 0.334,-0.511 0.319,-0.791 l -0.712,-16.595 c -0.011,-0.276 -0.147,-0.541 -0.385,-0.779 -0.236,-0.24 -0.573,-0.453 -0.985,-0.633 -0.41,-0.18 -0.9,-0.327 -1.443,-0.427 -0.54,-0.102 -1.133,-0.155 -1.748,-0.155 l -44.805,-0.003 c -0.618,0 -1.205,0.057 -1.74,0.158 -0.533,0.1 -1.013,0.246 -1.415,0.427 -0.405,0.18 -0.729,0.393 -0.955,0.633 -0.224,0.238 -0.345,0.501 -0.34,0.776 l 0.242,16.598 c 0.01,0.27 0.14,0.53 0.37,0.78 z m 60.37,0 c 0.24,0.244 0.582,0.463 1,0.646 0.418,0.185 0.912,0.334 1.459,0.436 0.547,0.103 1.145,0.161 1.772,0.161 h 45.277 c 0.626,0 1.22,-0.059 1.753,-0.161 0.534,-0.102 1.011,-0.251 1.407,-0.436 0.395,-0.184 0.712,-0.402 0.923,-0.646 0.208,-0.243 0.316,-0.511 0.295,-0.791 l -1.236,-16.595 c -0.019,-0.276 -0.163,-0.54 -0.411,-0.779 -0.243,-0.237 -0.587,-0.453 -1.005,-0.633 -0.419,-0.18 -0.912,-0.327 -1.457,-0.426 -0.543,-0.102 -1.135,-0.156 -1.754,-0.156 h -44.791 c -0.62,0 -1.208,0.054 -1.738,0.155 -0.533,0.1 -1.008,0.247 -1.403,0.427 -0.396,0.18 -0.716,0.393 -0.934,0.633 -0.213,0.238 -0.326,0.503 -0.315,0.779 l 0.767,16.595 c 0.01,0.27 0.15,0.53 0.39,0.78 z m 60.35,0 c 0.248,0.244 0.596,0.463 1.02,0.646 0.422,0.185 0.921,0.334 1.476,0.436 0.549,0.103 1.149,0.161 1.774,0.161 h 45.286 c 0.624,0 1.211,-0.059 1.745,-0.161 0.527,-0.102 0.999,-0.251 1.39,-0.436 0.392,-0.184 0.701,-0.402 0.907,-0.646 0.202,-0.243 0.302,-0.511 0.272,-0.791 l -1.759,-16.595 c -0.03,-0.276 -0.183,-0.54 -0.436,-0.779 -0.252,-0.236 -0.604,-0.453 -1.029,-0.633 -0.425,-0.18 -0.925,-0.325 -1.473,-0.426 -0.545,-0.099 -1.138,-0.156 -1.753,-0.156 h -44.8 c -0.62,0 -1.207,0.055 -1.734,0.156 -0.528,0.099 -1,0.246 -1.39,0.426 -0.39,0.18 -0.702,0.396 -0.911,0.633 -0.206,0.239 -0.314,0.503 -0.293,0.779 l 1.288,16.595 c 0.01,0.27 0.15,0.53 0.4,0.78 z m 60.36,0 c 0.258,0.244 0.611,0.463 1.04,0.646 0.429,0.185 0.938,0.334 1.488,0.436 0.554,0.103 1.156,0.161 1.783,0.161 h 45.276 c 0.626,0 1.211,-0.059 1.739,-0.161 0.53,-0.102 0.994,-0.251 1.381,-0.436 0.384,-0.183 0.684,-0.402 0.879,-0.646 0.197,-0.243 0.288,-0.51 0.251,-0.791 l -2.283,-16.595 c -0.04,-0.276 -0.199,-0.538 -0.46,-0.776 -0.259,-0.239 -0.615,-0.455 -1.047,-0.636 -0.43,-0.18 -0.932,-0.325 -1.48,-0.426 -0.552,-0.099 -1.148,-0.156 -1.766,-0.156 h -44.789 c -0.62,0 -1.203,0.058 -1.729,0.156 -0.523,0.101 -0.99,0.246 -1.375,0.426 -0.387,0.18 -0.69,0.396 -0.894,0.633 -0.198,0.239 -0.295,0.503 -0.266,0.779 l 1.812,16.595 c 0.03,0.29 0.19,0.55 0.44,0.8 z m 60.85,0 c 0.263,0.244 0.626,0.464 1.063,0.646 0.435,0.185 0.941,0.334 1.5,0.436 0.557,0.103 1.159,0.161 1.781,0.161 h 83.482 c 0.622,0 1.208,-0.057 1.729,-0.161 0.526,-0.102 0.985,-0.249 1.359,-0.434 0.374,-0.185 0.664,-0.404 0.846,-0.648 0.185,-0.243 0.261,-0.51 0.206,-0.791 l -3.137,-16.595 c -0.053,-0.276 -0.228,-0.538 -0.5,-0.776 -0.271,-0.239 -0.64,-0.452 -1.076,-0.634 -0.442,-0.182 -0.954,-0.326 -1.508,-0.425 -0.553,-0.101 -1.152,-0.159 -1.771,-0.159 H 928.87 c -0.614,0 -1.195,0.058 -1.717,0.156 -0.521,0.101 -0.984,0.246 -1.363,0.426 -0.383,0.181 -0.68,0.396 -0.875,0.636 -0.193,0.238 -0.28,0.5 -0.244,0.776 l 2.342,16.595 c 0.08,0.27 0.25,0.53 0.52,0.78 z m 195.32,-64.98 h -43.704 c -0.604,0 -1.169,0.054 -1.669,0.149 -0.5,0.095 -0.945,0.232 -1.298,0.406 -0.358,0.174 -0.631,0.377 -0.8,0.604 -0.172,0.227 -0.236,0.477 -0.178,0.737 l 3.563,15.81 c 0.062,0.265 0.244,0.519 0.52,0.751 0.271,0.232 0.642,0.44 1.082,0.614 0.441,0.176 0.947,0.317 1.499,0.416 0.552,0.099 1.146,0.152 1.757,0.152 h 44.169 c 0.61,0 1.181,-0.053 1.685,-0.149 0.504,-0.099 0.94,-0.243 1.296,-0.417 0.359,-0.176 0.628,-0.383 0.791,-0.616 0.165,-0.231 0.226,-0.483 0.156,-0.751 l -4.013,-15.808 c -0.067,-0.261 -0.25,-0.511 -0.533,-0.737 -0.276,-0.228 -0.647,-0.432 -1.09,-0.605 -0.438,-0.172 -0.943,-0.31 -1.491,-0.406 -0.7,-0.08 -1.3,-0.13 -1.9,-0.13 z m 7,22.93 c -0.552,-0.098 -1.148,-0.15 -1.761,-0.15 l -44.244,-10e-4 c -0.613,0 -1.183,0.054 -1.688,0.149 -0.508,0.1 -0.954,0.244 -1.314,0.421 -0.357,0.173 -0.638,0.384 -0.809,0.618 -0.17,0.23 -0.238,0.488 -0.177,0.754 l 3.649,16.202 c 0.062,0.272 0.244,0.533 0.523,0.769 0.281,0.238 0.655,0.451 1.101,0.632 0.445,0.179 0.96,0.326 1.52,0.427 0.557,0.102 1.159,0.155 1.778,0.155 l 44.719,0.002 c 0.618,0 1.191,-0.056 1.7,-0.157 0.513,-0.101 0.956,-0.246 1.318,-0.426 0.355,-0.181 0.631,-0.395 0.795,-0.633 0.169,-0.234 0.226,-0.494 0.154,-0.769 l -4.107,-16.2 c -0.066,-0.267 -0.254,-0.522 -0.54,-0.756 -0.284,-0.232 -0.657,-0.443 -1.104,-0.618 -0.4,-0.16 -0.9,-0.3 -1.5,-0.4 z m -35.6,43.29 h 45.281 c 0.621,0 1.199,-0.057 1.716,-0.159 0.516,-0.104 0.963,-0.251 1.324,-0.436 0.366,-0.185 0.642,-0.404 0.807,-0.648 0.167,-0.241 0.223,-0.51 0.155,-0.791 l -4.216,-16.593 c -0.068,-0.277 -0.259,-0.54 -0.548,-0.777 -0.284,-0.238 -0.669,-0.453 -1.12,-0.634 -0.448,-0.179 -0.964,-0.327 -1.527,-0.425 -0.56,-0.102 -1.161,-0.157 -1.78,-0.157 l -44.792,-0.003 c -0.618,0 -1.195,0.059 -1.713,0.16 -0.512,0.098 -0.959,0.244 -1.323,0.425 -0.364,0.181 -0.643,0.396 -0.816,0.634 -0.174,0.237 -0.237,0.499 -0.178,0.776 l 3.741,16.594 c 0.067,0.281 0.252,0.55 0.536,0.791 0.283,0.244 0.665,0.464 1.112,0.648 0.454,0.185 0.975,0.332 1.542,0.436 0.5,0.1 1.1,0.16 1.8,0.16 z m 55.4,22.36 -4.32,-17.021 c -0.072,-0.284 -0.268,-0.552 -0.558,-0.797 -0.292,-0.245 -0.681,-0.464 -1.139,-0.648 -0.455,-0.186 -0.98,-0.336 -1.551,-0.439 -0.564,-0.103 -1.175,-0.161 -1.801,-0.161 h -45.356 c -0.628,0 -1.212,0.059 -1.731,0.161 -0.518,0.104 -0.973,0.254 -1.34,0.438 -0.37,0.186 -0.65,0.404 -0.827,0.649 -0.174,0.245 -0.24,0.513 -0.178,0.794 l 3.841,17.024 c 0.063,0.289 0.255,0.563 0.541,0.813 0.29,0.248 0.675,0.473 1.132,0.664 0.458,0.187 0.987,0.34 1.56,0.445 0.572,0.104 1.189,0.162 1.821,0.162 h 45.862 c 0.629,0 1.215,-0.058 1.738,-0.164 0.519,-0.104 0.976,-0.257 1.338,-0.446 0.366,-0.188 0.647,-0.413 0.813,-0.661 0.4,-0.22 0.4,-0.5 0.3,-0.79 z m -119.3,-22.52 c 0.559,0.103 1.168,0.159 1.794,0.159 h 45.28 c 0.624,0 1.206,-0.057 1.725,-0.159 0.516,-0.104 0.97,-0.251 1.338,-0.436 0.366,-0.185 0.651,-0.404 0.825,-0.648 0.177,-0.243 0.243,-0.51 0.182,-0.791 l -3.676,-16.594 c -0.064,-0.277 -0.244,-0.539 -0.523,-0.776 -0.28,-0.238 -0.655,-0.453 -1.103,-0.634 -0.441,-0.181 -0.957,-0.327 -1.513,-0.426 -0.558,-0.101 -1.157,-0.159 -1.773,-0.159 h -44.794 c -0.62,0 -1.199,0.059 -1.715,0.159 -0.518,0.099 -0.971,0.243 -1.341,0.425 -0.369,0.182 -0.656,0.396 -0.836,0.634 -0.183,0.238 -0.259,0.5 -0.204,0.776 l 3.206,16.595 c 0.055,0.281 0.232,0.548 0.509,0.791 0.275,0.244 0.649,0.464 1.094,0.648 0.4,0.19 0.9,0.34 1.5,0.44 z m 52.3,4.71 c -0.29,-0.245 -0.667,-0.464 -1.117,-0.649 -0.449,-0.185 -0.973,-0.335 -1.534,-0.438 -0.565,-0.103 -1.176,-0.161 -1.799,-0.161 h -45.361 c -0.624,0 -1.209,0.059 -1.735,0.161 -0.521,0.104 -0.981,0.254 -1.354,0.438 -0.377,0.186 -0.665,0.404 -0.847,0.649 -0.183,0.245 -0.256,0.513 -0.203,0.794 l 3.286,17.025 c 0.058,0.288 0.237,0.562 0.52,0.812 0.278,0.249 0.66,0.473 1.11,0.664 0.453,0.188 0.973,0.34 1.543,0.445 0.566,0.104 1.182,0.165 1.816,0.165 l 45.861,-0.003 c 0.631,0 1.217,-0.058 1.743,-0.162 0.525,-0.105 0.985,-0.259 1.355,-0.445 0.372,-0.191 0.656,-0.415 0.834,-0.664 0.178,-0.25 0.245,-0.523 0.182,-0.813 l -3.772,-17.024 c -0.1,-0.29 -0.3,-0.56 -0.5,-0.8 z m -62.3,0 c -0.275,-0.245 -0.647,-0.464 -1.095,-0.649 -0.445,-0.185 -0.963,-0.337 -1.524,-0.438 -0.563,-0.103 -1.17,-0.161 -1.794,-0.161 h -45.355 c -0.622,0 -1.211,0.059 -1.741,0.161 -0.524,0.102 -0.987,0.254 -1.369,0.438 -0.379,0.186 -0.677,0.404 -0.866,0.649 -0.189,0.245 -0.274,0.513 -0.229,0.794 l 2.739,17.025 c 0.046,0.288 0.217,0.562 0.486,0.812 0.275,0.249 0.649,0.473 1.09,0.664 0.445,0.188 0.965,0.34 1.531,0.445 0.565,0.104 1.181,0.165 1.811,0.165 h 45.852 c 0.634,0 1.228,-0.061 1.756,-0.165 0.53,-0.105 0.995,-0.258 1.373,-0.445 0.38,-0.191 0.675,-0.415 0.858,-0.664 0.184,-0.25 0.261,-0.523 0.204,-0.812 l -3.218,-17.025 c -0.1,-0.28 -0.3,-0.55 -0.6,-0.79 z m -137.58,0 c -0.255,-0.245 -0.614,-0.464 -1.047,-0.649 -0.431,-0.187 -0.937,-0.337 -1.489,-0.438 -0.552,-0.104 -1.157,-0.161 -1.78,-0.161 H 833.04 c -0.626,0 -1.22,0.058 -1.752,0.161 -0.536,0.102 -1.009,0.252 -1.403,0.438 -0.395,0.186 -0.706,0.404 -0.913,0.648 -0.209,0.246 -0.311,0.513 -0.284,0.795 l 1.514,17.025 c 0.028,0.288 0.182,0.562 0.435,0.812 0.257,0.249 0.611,0.476 1.04,0.664 0.436,0.188 0.941,0.34 1.499,0.445 0.558,0.104 1.167,0.165 1.802,0.165 h 45.862 c 0.631,0 1.228,-0.061 1.763,-0.165 0.536,-0.105 1.01,-0.258 1.404,-0.445 0.39,-0.188 0.699,-0.415 0.902,-0.664 0.203,-0.25 0.299,-0.523 0.263,-0.812 l -2.001,-17.025 c -0.02,-0.28 -0.18,-0.55 -0.44,-0.79 z m -62.23,-0.01 c -0.25,-0.244 -0.599,-0.463 -1.026,-0.648 -0.428,-0.187 -0.929,-0.337 -1.481,-0.438 -0.553,-0.104 -1.152,-0.161 -1.778,-0.161 h -45.354 c -0.628,0 -1.222,0.058 -1.759,0.161 -0.536,0.102 -1.018,0.252 -1.416,0.438 -0.401,0.186 -0.72,0.404 -0.936,0.648 -0.217,0.246 -0.329,0.513 -0.31,0.795 l 0.966,17.025 c 0.016,0.288 0.156,0.562 0.404,0.812 0.248,0.249 0.594,0.476 1.021,0.664 0.426,0.188 0.929,0.34 1.481,0.445 0.556,0.104 1.162,0.166 1.796,0.166 l 45.857,-10e-4 c 0.634,0 1.23,-0.061 1.772,-0.165 0.539,-0.105 1.021,-0.258 1.42,-0.445 0.4,-0.188 0.713,-0.415 0.925,-0.664 0.213,-0.25 0.316,-0.523 0.29,-0.812 l -1.447,-17.025 c 0,-0.28 -0.16,-0.55 -0.41,-0.8 z m -63.42,0 c -0.244,-0.244 -0.587,-0.463 -1.008,-0.648 -0.421,-0.187 -0.916,-0.337 -1.464,-0.438 -0.547,-0.104 -1.147,-0.161 -1.775,-0.161 h -304.9 c -0.627,0 -1.229,0.058 -1.784,0.159 -0.552,0.104 -1.059,0.254 -1.491,0.44 -0.433,0.186 -0.788,0.403 -1.046,0.648 -0.256,0.242 -0.415,0.513 -0.447,0.794 l -1.894,17.026 c -0.033,0.288 0.066,0.563 0.27,0.812 0.206,0.249 0.516,0.477 0.913,0.664 0.394,0.188 0.871,0.341 1.406,0.447 0.538,0.105 1.134,0.164 1.766,0.164 h 308.26 c 0.634,0 1.234,-0.062 1.778,-0.166 0.543,-0.105 1.029,-0.258 1.434,-0.445 0.406,-0.188 0.731,-0.415 0.947,-0.664 0.222,-0.25 0.334,-0.523 0.318,-0.812 l -0.887,-17.025 c -0.01,-0.26 -0.16,-0.53 -0.4,-0.78 z m -513.1,-0.65 c -0.373,-0.184 -0.826,-0.334 -1.347,-0.438 -0.521,-0.104 -1.106,-0.163 -1.734,-0.163 h -56.134 c -0.627,0 -1.238,0.06 -1.809,0.163 -0.566,0.104 -1.094,0.254 -1.549,0.438 -0.456,0.186 -0.846,0.405 -1.133,0.651 -0.292,0.242 -0.486,0.512 -0.556,0.794 l -4.23,17.028 c -0.069,0.286 -0.011,0.562 0.163,0.812 0.168,0.249 0.447,0.475 0.814,0.662 0.37,0.188 0.825,0.341 1.348,0.447 0.521,0.105 1.113,0.164 1.746,0.164 h 56.754 c 0.635,0 1.252,-0.059 1.824,-0.164 0.571,-0.106 1.097,-0.26 1.554,-0.447 0.456,-0.188 0.838,-0.413 1.123,-0.662 0.286,-0.25 0.474,-0.525 0.534,-0.812 l 3.653,-17.028 c 0.062,-0.282 -0.008,-0.552 -0.186,-0.794 -0.15,-0.24 -0.44,-0.46 -0.81,-0.65 z m 712.95,0.66 c -0.267,-0.245 -0.636,-0.464 -1.075,-0.649 -0.438,-0.185 -0.951,-0.337 -1.51,-0.438 -0.557,-0.104 -1.165,-0.161 -1.792,-0.161 h -56.117 c -0.623,0 -1.216,0.058 -1.747,0.161 -0.53,0.102 -1,0.252 -1.385,0.438 -0.389,0.186 -0.694,0.404 -0.894,0.649 -0.201,0.245 -0.295,0.513 -0.258,0.794 l 2.08,17.025 c 0.032,0.288 0.195,0.562 0.456,0.812 0.262,0.249 0.626,0.476 1.064,0.664 0.438,0.188 0.951,0.34 1.511,0.445 0.563,0.104 1.175,0.165 1.81,0.165 h 56.733 c 0.635,0 1.228,-0.061 1.763,-0.165 0.529,-0.105 1,-0.258 1.385,-0.445 0.385,-0.191 0.686,-0.415 0.88,-0.664 0.192,-0.25 0.278,-0.523 0.233,-0.812 L 957.4,772.444 c -0.02,-0.28 -0.19,-0.55 -0.45,-0.79 z M 205.68,675.86 c 0.326,0.154 0.73,0.281 1.189,0.369 0.463,0.088 0.984,0.137 1.543,0.137 h 40.368 c 0.557,0 1.098,-0.049 1.604,-0.135 0.5,-0.09 0.964,-0.215 1.363,-0.371 0.4,-0.158 0.737,-0.342 0.987,-0.548 0.25,-0.207 0.415,-0.434 0.466,-0.673 l 2.063,-9.316 c 0.051,-0.234 -0.01,-0.458 -0.168,-0.662 -0.156,-0.205 -0.412,-0.389 -0.74,-0.544 -0.329,-0.153 -0.73,-0.279 -1.191,-0.365 -0.461,-0.088 -0.979,-0.136 -1.534,-0.136 h -40.087 c -0.555,0 -1.095,0.048 -1.594,0.133 -0.504,0.088 -0.966,0.213 -1.366,0.366 -0.399,0.155 -0.738,0.34 -0.993,0.544 -0.253,0.203 -0.421,0.429 -0.479,0.662 l -2.311,9.317 c -0.059,0.238 -0.001,0.465 0.15,0.672 0.15,0.21 0.4,0.39 0.73,0.55 z m 54.24,0 c 0.331,0.156 0.74,0.284 1.205,0.371 0.463,0.086 0.984,0.135 1.543,0.135 l 40.367,10e-4 c 0.559,0 1.098,-0.05 1.602,-0.136 0.498,-0.087 0.957,-0.214 1.354,-0.369 0.394,-0.157 0.725,-0.342 0.97,-0.549 0.243,-0.204 0.399,-0.434 0.444,-0.674 l 1.787,-9.315 c 0.046,-0.233 -0.024,-0.458 -0.188,-0.662 -0.16,-0.206 -0.42,-0.389 -0.754,-0.542 -0.333,-0.155 -0.743,-0.279 -1.204,-0.366 -0.463,-0.088 -0.982,-0.135 -1.538,-0.135 l -40.085,-10e-4 c -0.556,0 -1.091,0.046 -1.593,0.134 -0.497,0.086 -0.958,0.212 -1.354,0.366 -0.396,0.155 -0.729,0.338 -0.976,0.543 -0.25,0.204 -0.41,0.428 -0.462,0.662 l -2.031,9.316 c -0.053,0.239 0.011,0.466 0.168,0.673 0.16,0.21 0.41,0.4 0.74,0.55 z m 54.26,0 c 0.338,0.155 0.748,0.28 1.216,0.367 0.466,0.088 0.986,0.136 1.542,0.136 l 40.375,0.003 c 0.559,0 1.095,-0.051 1.593,-0.137 0.497,-0.088 0.956,-0.214 1.345,-0.369 0.39,-0.156 0.715,-0.344 0.958,-0.551 0.233,-0.204 0.386,-0.433 0.425,-0.673 l 1.508,-9.313 c 0.038,-0.235 -0.037,-0.461 -0.211,-0.662 -0.168,-0.207 -0.433,-0.392 -0.771,-0.545 -0.337,-0.153 -0.75,-0.278 -1.216,-0.365 -0.467,-0.088 -0.983,-0.136 -1.535,-0.136 h -40.095 c -0.553,0 -1.087,0.048 -1.584,0.136 -0.493,0.086 -0.952,0.212 -1.344,0.365 -0.39,0.153 -0.721,0.336 -0.964,0.542 -0.243,0.204 -0.396,0.43 -0.439,0.662 l -1.756,9.315 c -0.046,0.24 0.025,0.47 0.19,0.674 0.15,0.21 0.41,0.4 0.75,0.55 z m 54.24,0 c 0.341,0.155 0.755,0.281 1.224,0.371 0.466,0.084 0.99,0.135 1.545,0.135 l 40.375,10e-4 c 0.559,0 1.097,-0.049 1.592,-0.136 0.494,-0.088 0.946,-0.214 1.332,-0.369 0.384,-0.157 0.705,-0.344 0.936,-0.551 0.233,-0.205 0.375,-0.432 0.405,-0.673 l 1.234,-9.315 c 0.03,-0.232 -0.053,-0.457 -0.227,-0.662 -0.172,-0.203 -0.444,-0.388 -0.786,-0.542 -0.343,-0.154 -0.757,-0.279 -1.226,-0.365 -0.471,-0.088 -0.992,-0.135 -1.546,-0.135 l -40.092,-0.004 c -0.553,0 -1.087,0.048 -1.578,0.136 -0.49,0.087 -0.941,0.212 -1.33,0.365 -0.387,0.153 -0.709,0.338 -0.942,0.545 -0.233,0.204 -0.385,0.427 -0.421,0.662 l -1.479,9.313 c -0.039,0.24 0.037,0.469 0.21,0.673 0.2,0.22 0.46,0.41 0.8,0.56 z m 54.25,0.01 c 0.345,0.155 0.763,0.28 1.234,0.368 0.471,0.087 0.998,0.136 1.555,0.136 l 40.366,0.002 c 0.558,0 1.094,-0.05 1.587,-0.138 0.494,-0.087 0.939,-0.213 1.321,-0.368 0.382,-0.157 0.694,-0.345 0.919,-0.551 0.226,-0.206 0.364,-0.432 0.388,-0.672 l 0.954,-9.314 c 0.025,-0.235 -0.063,-0.46 -0.246,-0.664 -0.181,-0.204 -0.456,-0.389 -0.802,-0.543 -0.346,-0.154 -0.765,-0.278 -1.239,-0.364 -0.469,-0.088 -0.993,-0.136 -1.545,-0.136 h -40.084 c -0.556,0 -1.088,0.047 -1.58,0.135 -0.491,0.086 -0.94,0.211 -1.322,0.365 -0.381,0.154 -0.7,0.339 -0.927,0.543 -0.231,0.204 -0.37,0.429 -0.402,0.662 l -1.204,9.314 c -0.029,0.241 0.054,0.468 0.232,0.673 0.17,0.2 0.44,0.39 0.79,0.55 z m 54.24,0 c 0.35,0.155 0.772,0.281 1.248,0.368 0.472,0.088 1,0.138 1.559,0.138 h 40.372 c 0.559,0 1.091,-0.048 1.58,-0.137 0.488,-0.085 0.932,-0.214 1.307,-0.369 0.377,-0.155 0.686,-0.343 0.904,-0.548 0.217,-0.209 0.349,-0.433 0.364,-0.673 l 0.679,-9.314 c 0.018,-0.237 -0.076,-0.461 -0.265,-0.666 -0.188,-0.203 -0.468,-0.387 -0.818,-0.539 -0.352,-0.156 -0.771,-0.279 -1.247,-0.366 -0.472,-0.088 -0.993,-0.136 -1.545,-0.136 l -40.089,-0.002 c -0.556,0 -1.09,0.048 -1.577,0.136 -0.488,0.086 -0.932,0.21 -1.311,0.364 -0.377,0.154 -0.689,0.339 -0.914,0.543 -0.222,0.204 -0.357,0.429 -0.38,0.664 l -0.925,9.314 c -0.025,0.24 0.065,0.466 0.25,0.672 0.19,0.22 0.47,0.41 0.82,0.57 z m 54.24,0 c 0.353,0.155 0.781,0.282 1.257,0.367 0.476,0.089 1.003,0.138 1.563,0.138 l 40.368,0.003 c 0.559,0 1.09,-0.051 1.578,-0.139 0.484,-0.086 0.927,-0.213 1.302,-0.369 0.37,-0.157 0.676,-0.343 0.886,-0.548 0.217,-0.208 0.337,-0.435 0.349,-0.675 l 0.401,-9.313 c 0.012,-0.237 -0.091,-0.462 -0.285,-0.665 -0.196,-0.204 -0.48,-0.389 -0.839,-0.542 -0.356,-0.155 -0.783,-0.279 -1.258,-0.365 -0.477,-0.089 -1,-0.136 -1.552,-0.136 l -40.09,-10e-4 c -0.554,0 -1.082,0.048 -1.567,0.136 -0.486,0.087 -0.927,0.21 -1.3,0.366 -0.375,0.153 -0.681,0.338 -0.902,0.539 -0.215,0.205 -0.345,0.429 -0.36,0.666 l -0.647,9.314 c -0.019,0.24 0.077,0.464 0.269,0.673 0.19,0.21 0.47,0.39 0.82,0.55 z m 54.25,0 c 0.356,0.156 0.786,0.283 1.264,0.371 0.478,0.086 1.004,0.137 1.562,0.137 h 40.373 c 0.557,0 1.091,-0.051 1.572,-0.137 0.486,-0.088 0.921,-0.215 1.29,-0.37 0.367,-0.154 0.668,-0.344 0.873,-0.547 0.208,-0.21 0.32,-0.437 0.326,-0.674 l 0.125,-9.314 c 0.003,-0.237 -0.105,-0.46 -0.305,-0.665 -0.202,-0.203 -0.492,-0.387 -0.855,-0.54 -0.36,-0.156 -0.787,-0.281 -1.267,-0.365 -0.478,-0.088 -1.005,-0.137 -1.561,-0.137 l -40.088,-0.002 c -0.552,0 -1.079,0.047 -1.562,0.136 -0.481,0.086 -0.917,0.21 -1.286,0.365 -0.366,0.153 -0.667,0.338 -0.88,0.542 -0.212,0.203 -0.33,0.429 -0.34,0.665 l -0.371,9.313 c -0.013,0.239 0.093,0.466 0.288,0.674 0.2,0.21 0.49,0.39 0.85,0.55 z m 54.24,0 c 0.367,0.155 0.799,0.282 1.28,0.372 0.485,0.084 1.014,0.135 1.573,0.135 l 40.359,0.003 c 0.56,0 1.088,-0.05 1.569,-0.138 0.481,-0.09 0.918,-0.213 1.28,-0.368 0.361,-0.158 0.651,-0.345 0.855,-0.55 0.2,-0.207 0.309,-0.437 0.305,-0.675 l -0.15,-9.313 c -0.006,-0.235 -0.123,-0.46 -0.327,-0.664 -0.204,-0.204 -0.501,-0.389 -0.866,-0.542 -0.364,-0.156 -0.8,-0.28 -1.281,-0.366 -0.484,-0.088 -1.01,-0.135 -1.565,-0.135 l -40.077,-0.002 c -0.554,0 -1.08,0.049 -1.563,0.137 -0.48,0.084 -0.913,0.209 -1.276,0.365 -0.364,0.153 -0.661,0.339 -0.865,0.54 -0.207,0.205 -0.317,0.428 -0.32,0.665 l -0.098,9.314 c -0.002,0.238 0.109,0.464 0.311,0.674 0.21,0.23 0.5,0.42 0.87,0.57 z M 693,675.32 c 0.21,0.205 0.505,0.392 0.875,0.55 0.367,0.155 0.805,0.278 1.292,0.368 0.483,0.088 1.018,0.138 1.575,0.138 h 40.368 c 0.553,0 1.081,-0.05 1.561,-0.136 0.478,-0.09 0.907,-0.215 1.265,-0.37 0.357,-0.157 0.644,-0.343 0.837,-0.55 0.195,-0.207 0.298,-0.434 0.286,-0.671 l -0.43,-9.315 c -0.007,-0.236 -0.133,-0.461 -0.344,-0.664 -0.212,-0.204 -0.513,-0.388 -0.881,-0.541 -0.367,-0.156 -0.805,-0.282 -1.291,-0.367 -0.482,-0.086 -1.009,-0.135 -1.559,-0.135 l -40.088,-10e-4 c -0.556,0 -1.084,0.047 -1.56,0.135 -0.479,0.086 -0.911,0.21 -1.268,0.366 -0.359,0.153 -0.647,0.338 -0.851,0.542 -0.196,0.204 -0.306,0.429 -0.3,0.664 l 0.179,9.313 c -0.01,0.23 0.11,0.46 0.32,0.66 z m 54.22,0 c 0.214,0.207 0.518,0.393 0.891,0.55 0.374,0.155 0.816,0.281 1.304,0.37 0.484,0.087 1.02,0.136 1.575,0.136 h 40.366 c 0.558,0 1.084,-0.047 1.56,-0.136 0.473,-0.086 0.898,-0.213 1.254,-0.368 0.351,-0.157 0.63,-0.343 0.821,-0.549 0.188,-0.208 0.281,-0.436 0.263,-0.674 l -0.704,-9.313 c -0.018,-0.235 -0.144,-0.461 -0.365,-0.664 -0.217,-0.204 -0.523,-0.389 -0.898,-0.543 -0.372,-0.154 -0.813,-0.279 -1.297,-0.365 -0.485,-0.088 -1.017,-0.135 -1.567,-0.135 l -40.083,-0.002 c -0.556,0 -1.078,0.049 -1.554,0.135 -0.476,0.085 -0.902,0.211 -1.255,0.367 -0.357,0.153 -0.645,0.337 -0.834,0.541 -0.194,0.203 -0.297,0.428 -0.287,0.666 l 0.459,9.313 c 0.02,0.22 0.14,0.45 0.36,0.65 z m 54.22,0.01 c 0.222,0.206 0.528,0.392 0.906,0.549 0.377,0.155 0.821,0.282 1.311,0.368 0.489,0.089 1.021,0.137 1.575,0.137 h 40.37 c 0.558,0 1.083,-0.048 1.556,-0.134 0.478,-0.089 0.896,-0.215 1.246,-0.371 0.349,-0.156 0.623,-0.342 0.806,-0.548 0.184,-0.208 0.271,-0.435 0.246,-0.674 l -0.98,-9.314 c -0.027,-0.234 -0.163,-0.457 -0.386,-0.662 -0.225,-0.205 -0.538,-0.389 -0.913,-0.543 -0.379,-0.155 -0.826,-0.28 -1.314,-0.365 -0.489,-0.089 -1.021,-0.133 -1.579,-0.133 l -40.081,-0.004 c -0.552,0 -1.074,0.048 -1.546,0.135 -0.472,0.086 -0.894,0.211 -1.243,0.365 -0.348,0.154 -0.627,0.339 -0.815,0.543 -0.186,0.204 -0.28,0.429 -0.261,0.664 l 0.733,9.313 c 0,0.23 0.13,0.45 0.35,0.66 z m 54.22,0 c 0.229,0.204 0.545,0.39 0.924,0.546 0.381,0.156 0.832,0.283 1.322,0.372 0.494,0.085 1.032,0.133 1.59,0.133 l 40.357,0.002 c 0.558,0 1.08,-0.048 1.556,-0.135 0.47,-0.088 0.888,-0.216 1.231,-0.369 0.344,-0.156 0.614,-0.344 0.791,-0.549 0.175,-0.21 0.257,-0.436 0.222,-0.674 l -1.251,-9.314 c -0.037,-0.236 -0.178,-0.459 -0.407,-0.662 -0.231,-0.206 -0.55,-0.389 -0.934,-0.544 -0.383,-0.153 -0.829,-0.28 -1.32,-0.364 -0.497,-0.088 -1.029,-0.135 -1.581,-0.135 h -40.08 c -0.553,0 -1.078,0.044 -1.547,0.133 -0.472,0.085 -0.889,0.213 -1.234,0.365 -0.347,0.154 -0.619,0.338 -0.799,0.543 -0.182,0.205 -0.271,0.428 -0.245,0.662 l 1.012,9.316 c 0.02,0.24 0.16,0.46 0.39,0.67 z m 54.21,0 c 0.235,0.205 0.554,0.393 0.941,0.549 0.384,0.153 0.839,0.281 1.337,0.369 0.494,0.087 1.031,0.135 1.589,0.135 l 40.356,0.002 c 0.56,0 1.08,-0.048 1.548,-0.135 0.468,-0.09 0.883,-0.214 1.223,-0.37 0.34,-0.157 0.605,-0.342 0.776,-0.549 0.167,-0.207 0.244,-0.434 0.205,-0.672 l -1.534,-9.316 c -0.041,-0.234 -0.189,-0.457 -0.427,-0.662 -0.235,-0.204 -0.56,-0.389 -0.948,-0.543 -0.385,-0.152 -0.84,-0.28 -1.333,-0.366 -0.493,-0.087 -1.029,-0.134 -1.586,-0.134 l -40.07,-0.001 c -0.553,0 -1.076,0.047 -1.541,0.135 -0.469,0.084 -0.886,0.211 -1.228,0.364 -0.338,0.156 -0.604,0.338 -0.781,0.544 -0.176,0.203 -0.255,0.429 -0.225,0.662 l 1.288,9.314 c 0.03,0.27 0.17,0.49 0.4,0.7 z m 54.21,0 c 0.24,0.207 0.566,0.392 0.96,0.549 0.39,0.156 0.851,0.28 1.345,0.37 0.496,0.087 1.034,0.135 1.593,0.135 l 40.362,10e-4 c 0.557,0 1.074,-0.049 1.543,-0.135 0.466,-0.089 0.875,-0.215 1.21,-0.371 0.334,-0.154 0.595,-0.342 0.761,-0.548 0.165,-0.206 0.23,-0.433 0.185,-0.672 l -1.807,-9.314 c -0.048,-0.236 -0.204,-0.46 -0.448,-0.663 -0.244,-0.205 -0.572,-0.389 -0.966,-0.543 -0.392,-0.154 -0.848,-0.28 -1.345,-0.365 -0.496,-0.088 -1.03,-0.135 -1.582,-0.135 h -40.09 c -0.548,0 -1.07,0.045 -1.531,0.133 -0.467,0.085 -0.878,0.213 -1.216,0.365 -0.335,0.154 -0.6,0.339 -0.771,0.543 -0.167,0.205 -0.242,0.429 -0.203,0.662 l 1.563,9.316 c 0.04,0.24 0.19,0.46 0.43,0.67 z m 54.22,0 c 0.241,0.206 0.575,0.394 0.973,0.548 0.396,0.158 0.859,0.284 1.358,0.371 0.504,0.086 1.047,0.135 1.606,0.135 l 40.353,0.002 c 0.555,0 1.075,-0.05 1.538,-0.134 0.466,-0.087 0.872,-0.216 1.2,-0.371 0.333,-0.157 0.582,-0.342 0.741,-0.548 0.159,-0.209 0.222,-0.436 0.167,-0.675 l -2.088,-9.313 c -0.051,-0.234 -0.214,-0.458 -0.461,-0.663 -0.25,-0.203 -0.582,-0.39 -0.98,-0.542 -0.397,-0.156 -0.858,-0.28 -1.359,-0.367 -0.496,-0.088 -1.036,-0.133 -1.592,-0.133 l -40.068,-0.002 c -0.555,0 -1.073,0.047 -1.537,0.135 -0.467,0.085 -0.87,0.211 -1.204,0.365 -0.334,0.154 -0.591,0.338 -0.757,0.543 -0.163,0.203 -0.229,0.427 -0.184,0.663 l 1.841,9.314 c 0.2,0.25 0.3,0.48 0.6,0.68 z m 54.2,0.01 c 0.254,0.206 0.589,0.391 0.99,0.548 0.399,0.156 0.865,0.284 1.366,0.371 0.505,0.084 1.048,0.134 1.604,0.134 l 40.354,10e-4 c 0.559,0 1.079,-0.049 1.539,-0.134 0.462,-0.088 0.863,-0.216 1.187,-0.372 0.326,-0.156 0.575,-0.342 0.727,-0.548 0.151,-0.207 0.207,-0.434 0.146,-0.672 l -2.367,-9.314 c -0.056,-0.236 -0.228,-0.46 -0.483,-0.663 -0.253,-0.204 -0.593,-0.388 -0.992,-0.543 -0.405,-0.155 -0.865,-0.28 -1.37,-0.364 -0.498,-0.088 -1.041,-0.135 -1.593,-0.135 h -40.069 c -0.557,0 -1.072,0.045 -1.533,0.132 -0.457,0.086 -0.859,0.212 -1.189,0.367 -0.326,0.151 -0.579,0.338 -0.731,0.541 -0.162,0.205 -0.22,0.429 -0.168,0.663 l 2.12,9.313 c 0.2,0.23 0.4,0.46 0.6,0.67 z" />
      </g>
      <polygon
         id="polygon219"
         points="205.74,617.12 218.16,114.06 1105.9,114.06 1116.8,617.12 "
         style="fill:none;stroke:#474747"
         transform="matrix(0.16807298,0,0,0.16807298,-4.4420747,129.38738)" />
      <g
         transform="matrix(0.60362309,0,0,0.60362309,240.31151,26.399201)"
         id="g3172">
        <g
           id="g3111"
           style="opacity:0.5;fill:#000000;stroke:none"
           transform="translate(1.0583333,2.1166667)">
          <path
             id="path3103"
             d="m -271.72903,216.87859 c -2.94354,37.95664 -7.40154,83.78535 47.96686,120.15859 55.36953,-36.37324 50.91131,-82.20195 47.96687,-120.15859 -18.36922,-0.22459 -33.58602,-2.47055 -47.96687,-15.0479 -14.38197,12.57735 -29.59944,14.82331 -47.96686,15.0479 z"
             sodipodi:nodetypes="ccccc"
             style="fill:#000000;fill-opacity:1;stroke:none;stroke-width:0.67378646"
             inkscape:connector-curvature="0" />
          <path
             inkscape:connector-curvature="0"
             style="fill:#000000;fill-opacity:1;stroke:none;stroke-width:0.5451659"
             sodipodi:nodetypes="ccccc"
             d="m -262.57248,226.911 c -2.38164,30.71101 -5.98864,67.79138 38.81036,97.22125 44.79992,-29.42987 41.19274,-66.51024 38.81037,-97.22125 -14.86268,-0.18172 -27.17471,-1.99895 -38.81037,-12.17538 -11.63656,10.17643 -23.94914,11.99366 -38.81036,12.17538 z"
             id="path3105" />
          <path
             id="path3107"
             d="m -223.76212,324.13225 c 44.79992,-29.42987 41.19274,-66.51024 38.81037,-97.22125 -14.86268,-0.18172 -27.17471,-1.99895 -38.81037,-12.17538 0,48.48468 0,81.01598 0,109.39663 z"
             sodipodi:nodetypes="cccc"
             style="fill:#000000;fill-opacity:1;stroke:none;stroke-width:0.5451659"
             inkscape:connector-curvature="0" />
          <path
             id="path3109"
             d="m -262.57248,226.911 c -2.38164,30.71101 -5.98864,67.79138 38.81036,97.22125 44.79992,-29.42987 41.19274,-66.51024 38.81037,-97.22125 -14.86268,-0.18172 -27.17471,-1.99895 -38.81037,-12.17538 -11.63656,10.17643 -23.94914,11.99366 -38.81036,12.17538 z"
             sodipodi:nodetypes="ccccc"
             style="fill:#000000;fill-opacity:1;stroke:none;stroke-width:4.94500017;stroke-miterlimit:4;stroke-dasharray:none;stroke-opacity:1"
             inkscape:connector-curvature="0" />
        </g>
        <path
           id="path4411"
           d="m -271.72903,216.87859 c -2.94354,37.95664 -7.40154,83.78535 47.96686,120.15859 55.36953,-36.37324 50.91131,-82.20195 47.96687,-120.15859 -18.36922,-0.22459 -33.58602,-2.47055 -47.96687,-15.0479 -14.38197,12.57735 -29.59944,14.82331 -47.96686,15.0479 z"
           sodipodi:nodetypes="ccccc"
           style="fill:#fffdff;fill-opacity:1;stroke:none;stroke-width:0.67378646"
           inkscape:connector-curvature="0" />
        <path
           inkscape:connector-curvature="0"
           style="fill:#69ff69;fill-opacity:1;stroke:none;stroke-width:0.5451659"
           sodipodi:nodetypes="ccccc"
           d="m -262.57248,226.911 c -2.38164,30.71101 -5.98864,67.79138 38.81036,97.22125 44.79992,-29.42987 41.19274,-66.51024 38.81037,-97.22125 -14.86268,-0.18172 -27.17471,-1.99895 -38.81037,-12.17538 -11.63656,10.17643 -23.94914,11.99366 -38.81036,12.17538 z"
           id="path3049" />
        <path
           id="path3051"
           d="m -223.76212,324.13225 c 44.79992,-29.42987 41.19274,-66.51024 38.81037,-97.22125 -14.86268,-0.18172 -27.17471,-1.99895 -38.81037,-12.17538 0,48.48468 0,81.01598 0,109.39663 z"
           sodipodi:nodetypes="cccc"
           style="fill:#9cff9c;fill-opacity:1;stroke:none;stroke-width:0.5451659"
           inkscape:connector-curvature="0" />
        <path
           id="path3053"
           d="m -262.57248,226.911 c -2.38164,30.71101 -5.98864,67.79138 38.81036,97.22125 44.79992,-29.42987 41.19274,-66.51024 38.81037,-97.22125 -14.86268,-0.18172 -27.17471,-1.99895 -38.81037,-12.17538 -11.63656,10.17643 -23.94914,11.99366 -38.81036,12.17538 z"
           sodipodi:nodetypes="ccccc"
           style="fill:none;fill-opacity:1;stroke:#69ff69;stroke-width:4.94500017;stroke-miterlimit:4;stroke-dasharray:none;stroke-opacity:1"
           inkscape:connector-curvature="0" />
        <path
           id="path3129"
           d="m -264.71799,224.56026 c -2.5133,32.40877 -6.3197,71.539 40.95586,102.5958 13.96323,-8.07416 31.02909,-28.13079 30.37108,-28.9204 -71.32694,-73.6754 0,0 -71.32694,-73.6754 z"
           sodipodi:nodetypes="cccc"
           style="opacity:0.16300001;fill:#000000;fill-opacity:1;stroke:none;stroke-width:0.57530355"
           inkscape:connector-curvature="0" />
        <g
           id="g3123"
           transform="translate(-1.3363477,-5.6126602)">
          <g
             transform="translate(1.0583333,1.0583333)"
             style="opacity:0.49900004;fill:#000000"
             id="g3101">
            <rect
               y="271.07486"
               x="-236.53352"
               height="21.648832"
               width="25.925144"
               id="rect3093"
               style="opacity:1;fill:#000000;fill-opacity:1;stroke:none;stroke-width:4.94500017;stroke-linecap:square;stroke-linejoin:miter;stroke-miterlimit:4;stroke-dasharray:none;stroke-opacity:1;paint-order:fill markers stroke" />
            <g
               style="fill:#000000"
               transform="matrix(0.26606184,0,0,0.26606184,-249.36161,230.66195)"
               id="g3099">
              <path
                 style="fill:#000000;fill-opacity:1;stroke-width:1.06666672"
                 d="m 228.00195,157.17578 c -33.87561,0 -61.14648,27.27283 -61.14648,61.14844 v 374.41601 c 0,33.87561 27.27087,61.14844 61.14648,61.14844 H 513.7207 c 33.87561,0 61.14649,-27.27283 61.14649,-61.14844 V 218.32422 c 0,-33.87561 -27.27088,-61.14844 -61.14649,-61.14844 z m 66.57227,80.75586 h 152.57422 c 27.29942,0 49.27734,21.97792 49.27734,49.27734 v 36.05664 c 0,2.10613 -0.14642,4.17581 -0.40039,6.21094 v 79.38867 H 245.19141 v -90.83398 h 0.10547 v -30.82227 c -10e-6,-27.29942 21.97791,-49.27734 49.27734,-49.27734 z"
                 id="path3095"
                 inkscape:connector-curvature="0"
                 transform="scale(0.26458333)" />
              <path
                 style="fill:#000000;fill-opacity:1;stroke-width:1.06666672"
                 d="m 126.13477,407.99023 c -33.875613,0 -61.146489,27.27088 -61.146489,61.14649 v 414.08594 c 0,33.8756 27.270876,61.14843 61.146489,61.14843 h 475.03906 c 33.87561,0 61.14844,-27.27283 61.14844,-61.14843 V 469.13672 c 0,-33.87561 -27.27283,-61.14649 -61.14844,-61.14649 z m 240.13085,249.14258 a 84.121067,82.936267 0 0 1 84.1211,82.93555 84.121067,82.936267 0 0 1 -84.1211,82.9375 84.121067,82.936267 0 0 1 -84.12109,-82.9375 84.121067,82.936267 0 0 1 84.12109,-82.93555 z"
                 transform="scale(0.26458333)"
                 id="path3097"
                 inkscape:connector-curvature="0" />
            </g>
          </g>
          <g
             id="g3091">
            <rect
               style="opacity:1;fill:#d18f00;fill-opacity:1;stroke:none;stroke-width:4.94500017;stroke-linecap:square;stroke-linejoin:miter;stroke-miterlimit:4;stroke-dasharray:none;stroke-opacity:1;paint-order:fill markers stroke"
               id="rect3085"
               width="25.925144"
               height="21.648832"
               x="-236.53352"
               y="271.07486" />
            <g
               id="g3077"
               transform="matrix(0.26606184,0,0,0.26606184,-249.36161,230.66195)">
              <path
                 transform="scale(0.26458333)"
                 inkscape:connector-curvature="0"
                 id="rect3338"
                 d="m 228.00195,157.17578 c -33.87561,0 -61.14648,27.27283 -61.14648,61.14844 v 374.41601 c 0,33.87561 27.27087,61.14844 61.14648,61.14844 H 513.7207 c 33.87561,0 61.14649,-27.27283 61.14649,-61.14844 V 218.32422 c 0,-33.87561 -27.27088,-61.14844 -61.14649,-61.14844 z m 66.57227,80.75586 h 152.57422 c 27.29942,0 49.27734,21.97792 49.27734,49.27734 v 36.05664 c 0,2.10613 -0.14642,4.17581 -0.40039,6.21094 v 79.38867 H 245.19141 v -90.83398 h 0.10547 v -30.82227 c -10e-6,-27.29942 21.97791,-49.27734 49.27734,-49.27734 z"
                 style="fill:#fffcfb;fill-opacity:1;stroke-width:1.06666672" />
              <path
                 inkscape:connector-curvature="0"
                 id="rect3336"
                 transform="scale(0.26458333)"
                 d="m 126.13477,407.99023 c -33.875613,0 -61.146489,27.27088 -61.146489,61.14649 v 414.08594 c 0,33.8756 27.270876,61.14843 61.146489,61.14843 h 475.03906 c 33.87561,0 61.14844,-27.27283 61.14844,-61.14843 V 469.13672 c 0,-33.87561 -27.27283,-61.14649 -61.14844,-61.14649 z m 240.13085,249.14258 a 84.121067,82.936267 0 0 1 84.1211,82.93555 84.121067,82.936267 0 0 1 -84.1211,82.9375 84.121067,82.936267 0 0 1 -84.12109,-82.9375 84.121067,82.936267 0 0 1 84.12109,-82.93555 z"
                 style="fill:#ffcc23;fill-opacity:1;stroke-width:1.06666672" />
            </g>
          </g>
        </g>
      </g>
      <path
         inkscape:connector-curvature="0"
         id="path54"
         d="m 29.573856,143.6051 c -0.218159,0 -0.427662,0.0435 -0.619769,0.12179 -0.192276,0.078 -0.366954,0.19106 -0.516035,0.3309 -0.148576,0.14017 -0.271555,0.30669 -0.359121,0.49174 -0.08805,0.18521 -0.140627,0.38875 -0.150022,0.60204 l -2.471194,90.26701 c -0.0097,0.23497 0.02711,0.45938 0.102743,0.66343 0.07547,0.20369 0.189334,0.38751 0.332869,0.54197 0.144021,0.15429 0.317775,0.27914 0.513076,0.36536 0.194628,0.0867 0.411359,0.13426 0.640459,0.13426 l 159.491078,-0.0111 c 0.22892,0 0.44481,-0.0479 0.64012,-0.13393 0.19496,-0.0867 0.36823,-0.21173 0.51177,-0.36602 0.1437,-0.15446 0.25773,-0.33792 0.33286,-0.54196 0.0751,-0.20388 0.11237,-0.4278 0.10176,-0.66278 l -2.5293,-90.24501 c -0.009,-0.21345 -0.0618,-0.41734 -0.14936,-0.60171 -0.0887,-0.18522 -0.21054,-0.3519 -0.35945,-0.49208 -0.14875,-0.13949 -0.32426,-0.25274 -0.51637,-0.33089 -0.19244,-0.0783 -0.40196,-0.12179 -0.61911,-0.12179 l -0.002,-0.001 z m 2.650763,4.9529 H 181.42976 l 1.83207,84.55057 H 30.137169 Z"
         style="fill:#2d2d2d;fill-opacity:1;stroke-width:0.16807297" />
    </g>
  </g>
</svg>

