<?xml version="1.0" encoding="UTF-8" standalone="no"?>
<!-- Created with Inkscape (http://www.inkscape.org/) -->

<svg
   xmlns:dc="http://purl.org/dc/elements/1.1/"
   xmlns:cc="http://creativecommons.org/ns#"
   xmlns:rdf="http://www.w3.org/1999/02/22-rdf-syntax-ns#"
   xmlns:svg="http://www.w3.org/2000/svg"
   xmlns="http://www.w3.org/2000/svg"
   xmlns:sodipodi="http://sodipodi.sourceforge.net/DTD/sodipodi-0.dtd"
   xmlns:inkscape="http://www.inkscape.org/namespaces/inkscape"
   width="210mm"
   height="297mm"
   viewBox="0 0 210 297"
   version="1.1"
   id="svg8"
   inkscape:version="0.92.3 (2405546, 2018-03-11)"
   sodipodi:docname="Carpeta.svg">
  <defs
     id="defs2" />
  <sodipodi:namedview
     id="base"
     pagecolor="#ffffff"
     bordercolor="#666666"
     borderopacity="1.0"
     inkscape:pageopacity="0.0"
     inkscape:pageshadow="2"
     inkscape:zoom="0.35"
     inkscape:cx="561.01588"
     inkscape:cy="538.90815"
     inkscape:document-units="mm"
     inkscape:current-layer="layer2"
     showgrid="false"
     inkscape:window-width="1024"
     inkscape:window-height="703"
     inkscape:window-x="0"
     inkscape:window-y="0"
     inkscape:window-maximized="1"
     showguides="false" />
  <metadata
     id="metadata5">
    <rdf:RDF>
      <cc:Work
         rdf:about="">
        <dc:format>image/svg+xml</dc:format>
        <dc:type
           rdf:resource="http://purl.org/dc/dcmitype/StillImage" />
        <dc:title></dc:title>
      </cc:Work>
    </rdf:RDF>
  </metadata>
  <g
     inkscape:groupmode="layer"
     id="layer2"
     inkscape:label="vector"
     sodipodi:insensitive="true">
    <g
       id="g892"
       transform="translate(-211.66667,13.607143)">
      <path
         sodipodi:nodetypes="cccssccccccc"
         inkscape:connector-curvature="0"
         id="path840"
         d="m 229.05233,92.851173 0.0472,-10.677829 c 0,0 -0.52681,-2.048896 3.09082,-9.479296 0.16922,-0.442577 1.88322,-4.72458 3.17109,-7.019698 1.19915,-2.137024 1.44705,-2.710437 6.82551,-2.730543 l 50.55432,-0.188988 c 0,0 5.43341,0.283482 5.71689,4.204985 0,0 0.42522,10.205357 7.79576,10.252604 l 42.43254,0.125449 V 107.23864 H 229.31725 Z"
         style="fill:#e0a124;fill-opacity:0.43127962;stroke:#fed3a7;stroke-width:0.2;stroke-linecap:butt;stroke-linejoin:miter;stroke-miterlimit:4;stroke-dasharray:none;stroke-opacity:1" />
      <path
         sodipodi:nodetypes="cccccccscccc"
         inkscape:connector-curvature="0"
         id="path829"
         d="m 226.83172,199.01524 c 0,0 -0.66146,7.37053 6.52009,7.37053 l 166.18273,0.01 c 0,0 4.82787,0.36812 4.8515,-4.49832 l 5.07088,-123.056202 c 0,0 0.80181,-5.87993 -4.81085,-5.679477 l -46.46762,-0.201595 c 0,0 -8.92969,-0.992187 -13.22917,10.016369 -2.0122,5.15211 -1.99485,9.396834 -8.40997,9.354911 l -104.88345,0.07372 c 0,0 -9.45435,-0.168214 -9.31261,9.611924 z"
         style="fill:#f0c15f;fill-opacity:1;stroke:#e9ae5c;stroke-width:1.10000002;stroke-linecap:butt;stroke-linejoin:miter;stroke-miterlimit:4;stroke-dasharray:none;stroke-opacity:0.48341232" />
      <path
         sodipodi:nodetypes="cccccssc"
         inkscape:connector-curvature="0"
         id="path873"
         d="m 234.22449,91.575501 v -6.992559 h 1.32292 v -2.409598 h 109.09337 c 0,0 -0.59022,1.195792 -1.04314,2.224628 -0.36997,0.840432 -0.88473,2.451693 -1.36226,3.472114 -1.30927,2.797743 -2.9166,3.885088 -5.81558,3.847158 z"
         style="fill:#f5ffff;fill-opacity:1;stroke:#000000;stroke-width:0.86500001;stroke-linecap:butt;stroke-linejoin:miter;stroke-miterlimit:4;stroke-dasharray:none;stroke-opacity:0.09004738" />
      <path
         inkscape:connector-curvature="0"
         id="path875"
         d="M 236.16395,91.601975 V 86.289994 H 342.7509"
         style="fill:none;stroke:#000000;stroke-width:0.565;stroke-linecap:butt;stroke-linejoin:miter;stroke-miterlimit:4;stroke-dasharray:none;stroke-opacity:0.09004738" />
      <path
         inkscape:connector-curvature="0"
         id="path877"
         d="M 235.54741,84.582942 H 343.47266"
         style="fill:none;stroke:#000000;stroke-width:0.565;stroke-linecap:butt;stroke-linejoin:miter;stroke-miterlimit:4;stroke-dasharray:none;stroke-opacity:0.09004738" />
    </g>
  </g>
</svg>
