<?xml version="1.0" encoding="UTF-8"?>
<!DOCTYPE svg PUBLIC "-//W3C//DTD SVG 1.1//EN" "http://www.w3.org/Graphics/SVG/1.1/DTD/svg11.dtd">
<svg version="1.1" xmlns="http://www.w3.org/2000/svg" xmlns:xlink="http://www.w3.org/1999/xlink" x="0" y="0" width="645" height="715" viewBox="0, 0, 645, 715">
  <defs>
    <linearGradient id="Gradient_1" gradientUnits="userSpaceOnUse" x1="475.559" y1="132.971" x2="550.404" y2="202.594">
      <stop offset="0" stop-color="#BFC0BF"/>
      <stop offset="1" stop-color="#AAABA9"/>
    </linearGradient>
    <linearGradient id="Gradient_2" gradientUnits="userSpaceOnUse" x1="324.651" y1="417.246" x2="387.932" y2="417.246">
      <stop offset="0" stop-color="#BFC0BF"/>
      <stop offset="1" stop-color="#AAABA9"/>
    </linearGradient>
    <linearGradient id="Gradient_3" gradientUnits="userSpaceOnUse" x1="2.71" y1="570.81" x2="506.145" y2="570.81">
      <stop offset="0" stop-color="#BFC0BF"/>
      <stop offset="1" stop-color="#AAABA9"/>
    </linearGradient>
    <clipPath id="Clip_1">
      <path d="M0.3,1.58 L640.255,1.58 L640.255,714.7 L0.3,714.7 z"/>
    </clipPath>
    <clipPath id="Clip_2">
      <path d="M0.3,1.58 L640.255,1.58 L640.255,714.7 L0.3,714.7 z"/>
    </clipPath>
  </defs>
  <g id="Layer_1">
    <path d="M597.83,618.64 C596.38,616.735 596.73,614.025 598.64,612.595 C621.295,595.17 627.23,581.18 627.26,569.725 C627.28,561.715 624.265,554.325 620.6,547.475 C615.05,537.175 603.03,528.435 584.825,528.4 C576.105,528.4 565.925,530.445 554.395,535.49 C516.585,552.01 446.395,567.29 446.26,567.345 C443.935,567.845 441.635,566.37 441.125,564.06 C440.615,561.73 442.09,559.43 444.42,558.925 C444.52,558.87 514.65,543.515 550.94,527.605 C563.385,522.17 574.75,519.785 584.825,519.785 C605.9,519.74 621.205,530.225 628.195,543.42 C632.095,550.76 635.86,559.525 635.86,569.725 C635.9,584.595 627.665,601.305 603.87,619.45 C603.085,620.04 602.16,620.33 601.255,620.33 C599.96,620.33 598.675,619.74 597.83,618.64" fill="#1A1919"/>
    <path d="M128.575,490.09 C128.56,489.96 128.495,489.31 128.495,488.235 C127.99,479.265 133.78,437.88 200.815,431.32 C203.19,431.065 205.29,432.79 205.54,435.16 C205.78,437.52 204.075,439.625 201.7,439.88 C138.575,446.9 137.61,481.53 137.105,488.235 C137.105,488.975 137.135,489.215 137.135,489.215 C137.375,491.57 135.65,493.695 133.29,493.93 L132.83,493.96 C130.65,493.96 128.795,492.295 128.575,490.09" fill="#1A1919"/>
    <path d="M637.51,416.415 L637.51,64.035 C637.51,64.035 638.185,58.215 635.36,55.365 C632.515,52.565 629.855,52.58 629.855,52.58 L144.23,4.74 C144.23,4.74 136.53,3.865 131.8,4.545 C127.06,5.19 120.835,8.02 120.835,8.02 L105.225,14.735 L616.575,76.06 L616.78,439.095 L632.955,426.445 C632.955,426.445 634.795,424.645 636.19,422.53 C637.775,419.98 637.51,416.415 637.51,416.415 z" fill="url(#Gradient_1)"/>
    <path d="M632.515,52.95 L632.525,52.925 L632.515,52.95 z M132.165,7.21 C128.055,7.725 121.95,10.435 121.885,10.48 L115.47,13.245 L616.89,73.38 C618.225,73.54 619.265,74.695 619.265,76.05 L619.465,433.575 L631.07,424.515 C631.07,424.515 632.765,422.855 633.91,421.1 C634.63,420.025 634.845,417.94 634.815,417.03 L634.815,416.545 L637.51,416.415 L634.815,416.415 L634.83,63.735 C634.815,63.735 634.885,63.27 634.885,62.485 C634.945,60.825 634.425,58.09 633.46,57.265 C631.715,55.55 630.455,55.295 630.02,55.255 L629.59,55.24 L143.915,7.405 C143.915,7.415 140.035,6.955 136.24,6.955 C134.74,6.955 133.29,7.025 132.165,7.21 z M615.59,441.51 C614.675,441.075 614.09,440.12 614.09,439.09 L613.88,78.44 L104.905,17.41 C103.685,17.25 102.72,16.315 102.55,15.115 C102.38,13.915 103.04,12.74 104.16,12.25 L119.72,5.56 C119.85,5.52 126.06,2.64 131.375,1.885 C132.94,1.63 134.6,1.58 136.24,1.58 C140.435,1.58 144.485,2.055 144.485,2.055 L629.97,49.87 C630.76,49.885 634.01,50.235 637.26,53.46 C640.1,56.465 640.2,60.29 640.255,62.485 C640.255,63.55 640.2,64.235 640.2,64.035 L640.2,416.28 L640.21,417.03 C640.185,418.4 640.115,421.225 638.44,424.005 C636.83,426.425 634.915,428.275 634.615,428.56 L618.435,441.21 C617.96,441.59 617.365,441.78 616.775,441.78 L615.59,441.51" fill="#1A1919"/>
    <path d="M524.815,484.385 C524.815,469.3 466.09,449.6 358.115,435.88 C250.145,422.17 191.39,427.01 191.39,442.11 C191.39,443.655 191.39,449.685 191.39,451.215 C191.39,466.335 250.145,486.065 358.115,499.76 C466.09,513.44 524.815,508.64 524.815,493.525 C524.815,491.955 524.815,485.955 524.815,484.385" fill="#A9AAA9"/>
    <path d="M207.29,434.18 C197.3,436.54 193.725,440.1 194.07,442.11 C194.07,443.65 194.07,449.68 194.07,451.21 C193.11,455.395 206.91,465.345 235.035,473.435 C262.99,481.9 304.575,490.245 358.455,497.085 C402.28,502.62 437.935,505.12 464.775,505.12 C484.325,505.12 499.185,503.78 508.92,501.4 C518.885,499.045 522.48,495.5 522.135,493.525 C522.135,491.94 522.135,485.955 522.135,484.385 C523.1,480.21 509.295,470.275 481.165,462.195 C453.23,453.725 411.665,445.39 357.77,438.535 C313.97,432.98 278.295,430.46 251.48,430.46 C231.9,430.46 217.025,431.805 207.29,434.18 z M357.77,502.415 C303.685,495.56 261.9,487.19 233.485,478.595 C205.23,469.605 189.655,462.15 188.69,451.21 C188.69,449.68 188.69,443.65 188.69,442.11 C189.04,435.115 195.8,431.52 206.025,428.96 C216.485,426.405 231.65,425.085 251.48,425.085 C278.63,425.085 314.48,427.61 358.455,433.205 C412.535,440.085 454.325,448.445 482.735,457.03 C510.975,466.015 526.53,473.45 527.5,484.385 C527.5,485.955 527.5,491.94 527.5,493.525 C527.145,500.49 520.395,504.08 510.18,506.63 C499.735,509.175 484.575,510.51 464.775,510.51 C437.61,510.51 401.76,507.99 357.77,502.415" fill="#1A1919"/>
    <path d="M524.815,484.385 C524.815,499.53 466.09,504.335 358.115,490.655 C250.145,476.94 191.39,457.195 191.39,442.11 C191.39,427.01 250.145,418.345 358.115,432.035 C466.09,445.74 524.815,469.3 524.815,484.385" fill="#CBCCCB"/>
    <path d="M210.33,432.56 C198.35,435.41 193.635,439.84 194.08,442.105 C193.1,446.265 206.915,456.225 235.035,464.305 C263,472.775 304.575,481.13 358.445,487.985 C402.235,493.51 437.905,496.025 464.72,496.025 C484.295,496.025 499.175,494.685 508.905,492.285 C518.895,489.93 522.48,486.385 522.12,484.38 C523.025,480.125 509.175,469.28 481.105,460.235 C453.17,450.825 411.625,441.535 357.76,434.7 C320.085,429.89 288.445,427.86 263.285,427.86 C239.895,427.86 222.075,429.635 210.33,432.56 z M357.76,493.315 C303.69,486.445 261.89,478.075 233.485,469.475 C205.235,460.485 189.665,453.02 188.7,442.105 C189.14,434.55 196.83,430.505 209.035,427.335 C221.49,424.25 239.61,422.475 263.285,422.475 C288.735,422.475 320.58,424.515 358.445,429.36 C412.57,436.235 454.385,445.565 482.81,455.14 C511.09,465.08 526.6,473.565 527.5,484.38 C527.155,491.36 520.4,494.975 510.18,497.53 C499.715,500.075 484.545,501.405 464.72,501.405 C437.58,501.405 401.73,498.875 357.76,493.315" fill="#1A1919"/>
    <path d="M387.93,454.985 C387.93,455.66 387.485,456.415 386.865,456.66 C386.865,456.66 377.49,460.705 356.87,458.055 C336.295,455.49 325.665,448.81 325.665,448.81 C325.105,448.47 324.65,447.65 324.65,446.965 L324.65,376.595 C324.65,375.96 325.205,375.48 325.84,375.55 L386.76,383.28 C387.445,383.355 387.93,383.97 387.93,384.61 L387.93,454.985 z" fill="url(#Gradient_2)"/>
    <path d="M357.19,455.38 C362.17,455.995 366.475,456.245 370.095,456.245 C375.65,456.245 379.65,455.69 382.225,455.155 C383.73,454.855 384.695,454.57 385.25,454.385 L385.25,385.795 L327.33,378.445 L327.33,446.635 C328.945,447.495 338.795,453.08 357.19,455.38 z M370.095,461.625 C366.22,461.625 361.715,461.36 356.53,460.73 C335.495,458.1 324.5,451.25 324.28,451.11 C322.715,450.03 322.065,448.785 321.955,446.965 L321.955,376.595 C321.97,374.49 323.645,372.825 325.705,372.825 L326.005,372.825 L326.45,372.91 L387.055,380.6 C389.24,380.9 390.6,382.605 390.63,384.6 L390.63,454.98 C390.53,456.8 389.76,458.255 387.92,459.125 C387.61,459.27 381.935,461.625 370.22,461.625 L370.095,461.625" fill="#1A1919"/>
    <path d="M621.09,430.16 C621.09,436.91 615.915,441.725 609.57,440.915 L111.69,367.43 C105.39,366.62 100.17,360.41 100.17,353.66 L100.17,24.305 C100.17,17.51 105.39,12.695 111.69,13.505 L609.57,62.96 C615.915,63.77 621.09,69.935 621.09,76.73 L621.09,430.16" fill="#D7D8D6"/>
    <path d="M102.87,24.29 L102.87,353.665 C102.805,359.055 107.25,364.21 112.09,364.745 L609.86,438.235 L610.93,438.305 C615.09,438.265 618.32,435.08 618.39,430.16 L618.39,76.705 C618.44,71.3 614.03,66.155 609.285,65.64 L111.24,16.13 L110.315,16.07 C106.19,16.115 102.935,19.295 102.87,24.29 z M609.15,443.57 L111.345,370.065 C103.505,368.99 97.555,361.78 97.495,353.665 L97.495,24.29 C97.495,16.715 103.095,10.71 110.315,10.695 C110.825,10.695 111.46,10.71 111.965,10.805 L609.89,60.29 C617.76,61.365 623.71,68.585 623.775,76.705 L623.775,430.16 C623.75,437.69 618.15,443.68 610.93,443.68 C610.35,443.68 609.79,443.65 609.15,443.57" fill="#1A1919"/>
    <path d="M602.595,411.53 C602.595,414.905 599.985,417.335 596.79,416.93 L124.425,346.64 C121.275,346.19 118.665,343.13 118.665,339.755 L118.665,42.89 C118.665,39.515 121.275,37.04 124.425,37.49 L596.79,83.75 C599.985,84.155 602.595,87.26 602.595,90.59 L602.595,411.53" fill="#9DCDE4"/>
    <path d="M596.79,83.75 L124.425,37.49 C121.275,37.04 118.665,39.515 118.665,42.89 L118.665,52.07 L602.595,99.77 L602.595,90.59 C602.595,87.26 599.985,84.155 596.79,83.75" fill="#F2F1F0"/>
    <path d="M396.47,343.54 L162.965,313.895 L162.965,143.645 L396.47,173.285 L396.47,343.54" fill="#709ABB"/>
    <path d="M166.75,310.535 L392.67,339.215 L392.67,176.615 L166.75,147.945 L166.75,310.535 z M396.475,343.535 L396.955,339.76 L396.475,343.535 z M395.99,347.295 L162.49,317.655 C160.58,317.405 159.17,315.795 159.17,313.885 L159.17,143.635 C159.17,142.545 159.63,141.505 160.45,140.795 C161.255,140.08 162.36,139.73 163.435,139.875 L396.955,169.51 C398.835,169.75 400.26,171.37 400.26,173.28 L400.26,343.535 C400.26,344.625 399.785,345.67 398.97,346.37 C398.29,346.99 397.385,347.32 396.475,347.32 L395.99,347.295" fill="#709ABB"/>
    <path d="M553.85,268.91 L368.55,245.425 L368.55,110.295 L553.85,133.82 L553.85,268.91" fill="#709ABB"/>
    <path d="M372.345,242.065 L550.045,264.6 L550.045,137.15 L372.345,114.59 L372.345,242.065 z M553.85,268.91 L554.315,265.145 L553.85,268.91 z M553.375,272.665 L368.075,249.175 C366.18,248.94 364.765,247.33 364.765,245.425 L364.765,110.295 C364.765,109.195 365.235,108.165 366.035,107.445 C366.86,106.735 367.945,106.385 369.035,106.53 L554.315,130.055 C556.21,130.29 557.63,131.9 557.63,133.82 L557.63,268.91 C557.63,269.99 557.155,271.04 556.355,271.755 C555.64,272.36 554.74,272.695 553.82,272.695 L553.375,272.665" fill="#709ABB"/>
    <path d="M549.265,263.41 L363.935,239.925 L363.935,104.81 L549.265,128.335 L549.265,263.41" fill="#5C95C3"/>
    <path d="M367.705,236.575 L545.465,259.1 L545.465,131.67 L367.705,109.095 L367.705,236.575 z M549.25,263.41 L549.74,259.64 L549.25,263.41 z M548.775,267.16 L363.45,243.685 C361.56,243.435 360.135,241.825 360.135,239.92 L360.135,104.81 C360.135,103.715 360.615,102.68 361.415,101.95 C362.235,101.25 363.325,100.9 364.39,101.04 L549.74,124.565 C551.64,124.8 553.05,126.425 553.05,128.335 L553.05,263.41 C553.05,264.485 552.58,265.535 551.755,266.25 C551.075,266.85 550.17,267.195 549.26,267.195 L548.775,267.16" fill="#E4E4E3"/>
    <path d="M549.265,136.905 L363.935,113.41 L363.935,104.81 L549.265,128.335 L549.265,136.905" fill="#E4E4E3"/>
    <path d="M451.525,233.89 L379.97,224.825 L379.97,146.505 L451.525,155.565 L451.525,233.89" fill="#BBCEE1"/>
    <path d="M532.755,244.235 L461.2,235.125 L461.2,156.805 L532.755,165.915 L532.755,244.235" fill="#BBCEE1"/>
    <path d="M533.24,147.735 L379.97,128.26 L379.97,135.78 L533.24,155.24 L533.24,147.735" fill="#257FB6"/>
    <path d="M391.865,338.05 L158.335,308.415 L158.335,138.17 L391.865,167.79 L391.865,338.05" fill="#5C95C3"/>
    <path d="M162.125,305.06 L388.07,333.735 L388.07,171.13 L162.125,142.46 L162.125,305.06 z M391.865,338.05 L392.34,334.28 L391.865,338.05 z M391.39,341.81 L157.865,312.16 C155.955,311.93 154.55,310.315 154.55,308.405 L154.55,138.17 C154.55,137.08 155.005,136.04 155.825,135.315 C156.635,134.6 157.735,134.255 158.81,134.39 L392.34,164.025 C394.22,164.26 395.645,165.87 395.645,167.785 L395.645,338.05 C395.645,339.125 395.175,340.18 394.36,340.895 C393.66,341.51 392.745,341.835 391.835,341.835 L391.39,341.81" fill="#E4E4E3"/>
    <path d="M391.865,178.62 L158.335,148.98 L158.335,138.17 L391.865,167.79 L391.865,178.62" fill="#E4E4E3"/>
    <path d="M371.675,313.83 L178.545,289.34 L178.545,190.745 L371.675,215.23 L371.675,313.83" fill="#BBCEE1"/>
    <path d="M371.675,192.245 L178.545,167.775 L178.545,177.24 L371.675,201.73 L371.675,192.245" fill="#257FB6"/>
    <path d="M602.595,90.59 L602.595,90.59 C602.595,90.005 602.515,89.43 602.365,88.875 C602.44,88.925 602.515,88.97 602.595,89.015 L602.595,90.59" fill="#BABBB9"/>
    <path d="M122.49,345.515 C120.42,344.345 118.665,342.32 118.665,339.755 L118.665,52.07 L122.49,52.445 L122.49,345.515" fill="#8CB2C6"/>
    <path d="M602.595,90.59 C602.595,90.005 602.515,89.43 602.365,88.875 C602.515,89.43 602.595,90.005 602.595,90.59 M602.365,88.875 C601.76,88.485 601.295,88.015 600.615,87.935 L128.25,41.675 C128.02,41.645 127.79,41.63 127.565,41.63 C124.73,41.63 122.49,43.945 122.49,47.075 L122.49,52.445 L118.665,52.07 L118.665,42.89 C118.665,39.78 120.88,37.435 123.69,37.435 C123.93,37.435 124.175,37.455 124.425,37.49 L596.79,83.75 C599.425,84.085 601.66,86.255 602.365,88.875" fill="#CDCECC"/>
    <path d="M588.515,427.515 C588.515,430.88 585.92,433.27 582.76,432.9 C579.585,432.465 577.015,429.415 577.015,426.075 C577.015,422.69 579.585,420.275 582.76,420.675 C585.92,421.07 588.515,424.13 588.515,427.515" fill="#A6CE7A"/>
    <path d="M500.18,571.67 L100.57,476.24 C97.71,475.565 93.655,476.405 91.51,478.08 L3.795,546.955 C1.54,548.72 3.075,555.665 5.875,556.435 L404.49,665.21 C408.12,666.2 412.965,665.33 415.27,663.24 L505.505,582.275 C507.715,580.305 503.77,572.505 500.18,571.67 z" fill="url(#Gradient_3)"/>
    <path d="M412.75,657.37 C410.435,659.44 405.615,660.315 402.01,659.35 L4.805,551.535 C1.98,550.78 1.54,548.72 3.795,546.955 L91.51,478.08 C93.655,476.405 97.71,475.565 100.57,476.24 L500.18,571.67 C503.77,572.505 504.965,574.845 502.745,576.815 L412.75,657.37" fill="#D7D8D6"/>
    <path d="M102.23,497.215 C101.705,497.61 100.69,497.84 99.965,497.69 L85.355,494.085 C84.64,493.925 84.51,493.445 85.045,493.005 L96.46,484.025 C96.97,483.615 97.995,483.41 98.685,483.585 L113.315,487.125 C114.02,487.265 114.175,487.775 113.64,488.195 L102.23,497.215" fill="#949594"/>
    <path d="M100.73,493.77 L99.605,494 L89.85,491.585 L89.655,491.06 L97.295,485.025 L98.425,484.83 L108.225,487.2 L108.42,487.74 L100.73,493.77" fill="#A9AAA9"/>
    <path d="M122.67,502.22 C122.135,502.635 121.09,502.835 120.405,502.675 L105.565,499.06 C104.875,498.875 104.705,498.375 105.265,497.96 L116.66,488.925 C117.195,488.465 118.225,488.295 118.945,488.465 L133.74,492.04 C134.445,492.215 134.64,492.725 134.11,493.115 L122.67,502.22" fill="#949594"/>
    <path d="M121.12,498.73 L119.985,498.985 L110.03,496.535 L109.885,496 L117.525,489.93 L118.67,489.69 L128.595,492.115 L128.78,492.645 L121.12,498.73" fill="#A9AAA9"/>
    <path d="M143.365,507.32 C142.81,507.72 141.765,507.96 141.04,507.775 L126.055,504.115 C125.33,503.89 125.17,503.405 125.705,502.99 L137.155,493.86 C137.675,493.445 138.695,493.235 139.42,493.42 L154.435,497.04 C155.185,497.215 155.355,497.69 154.795,498.105 L143.365,507.32" fill="#949594"/>
    <path d="M141.73,503.775 L140.595,504.035 L130.55,501.55 L130.36,501 L138.04,494.905 L139.17,494.65 L149.23,497.075 L149.415,497.645 L141.73,503.775" fill="#A9AAA9"/>
    <path d="M164.33,512.45 C163.795,512.895 162.73,513.12 162,512.905 L146.81,509.175 C146.05,509.01 145.925,508.49 146.455,508.06 L157.9,498.875 C158.43,498.455 159.485,498.23 160.175,498.42 L175.445,502.1 C176.15,502.26 176.355,502.76 175.785,503.195 L164.33,512.45" fill="#949594"/>
    <path d="M162.68,508.89 L161.505,509.145 L151.345,506.635 L151.145,506.075 L158.795,499.905 L159.995,499.71 L170.155,502.145 L170.365,502.705 L162.68,508.89" fill="#A9AAA9"/>
    <path d="M185.58,517.67 C185.045,518.115 183.99,518.325 183.235,518.135 L167.825,514.35 C167.08,514.17 166.91,513.64 167.46,513.225 L178.935,503.95 C179.47,503.52 180.51,503.3 181.24,503.505 L196.655,507.215 C197.42,507.41 197.615,507.91 197.07,508.33 L185.58,517.67" fill="#949594"/>
    <path d="M183.86,514.08 L182.69,514.32 L172.37,511.785 L172.175,511.205 L179.83,505.02 L181.03,504.795 L191.365,507.275 L191.56,507.835 L183.86,514.08" fill="#A9AAA9"/>
    <path d="M207.125,522.955 C206.58,523.39 205.525,523.595 204.745,523.43 L189.135,519.585 C188.37,519.41 188.24,518.895 188.775,518.445 L200.225,509.13 C200.745,508.68 201.84,508.46 202.595,508.64 L218.215,512.41 C218.96,512.595 219.155,513.12 218.635,513.555 L207.125,522.955" fill="#949594"/>
    <path d="M205.315,519.325 L204.145,519.585 L193.7,517.02 L193.5,516.425 L201.19,510.18 L202.375,509.945 L212.835,512.49 L213.025,513.03 L205.315,519.325" fill="#A9AAA9"/>
    <path d="M228.91,528.31 C228.39,528.74 227.335,528.97 226.525,528.77 L210.725,524.89 C209.99,524.705 209.795,524.155 210.355,523.74 L221.85,514.32 C222.385,513.905 223.41,513.665 224.205,513.87 L240.035,517.67 C240.825,517.865 240.99,518.38 240.48,518.815 L228.91,528.31" fill="#949594"/>
    <path d="M227.085,524.675 L225.915,524.87 L215.31,522.325 L215.075,521.725 L222.805,515.405 L223.975,515.165 L234.6,517.75 L234.835,518.325 L227.085,524.675" fill="#A9AAA9"/>
    <path d="M251.055,533.75 C250.535,534.2 249.455,534.415 248.67,534.23 L232.605,530.27 C231.88,530.09 231.685,529.54 232.245,529.125 L243.71,519.585 C244.245,519.17 245.335,518.965 246.09,519.14 L262.185,522.985 C262.955,523.21 263.135,523.71 262.61,524.155 L251.055,533.75" fill="#949594"/>
    <path d="M249.17,530.02 L247.98,530.27 L237.235,527.67 L236.985,527.045 L244.685,520.715 L245.94,520.48 L256.695,523.07 L256.905,523.625 L249.17,530.02" fill="#A9AAA9"/>
    <path d="M273.52,539.245 C272.97,539.715 271.875,539.92 271.065,539.73 L254.795,535.715 C254.055,535.545 253.835,535 254.415,534.555 L265.95,524.97 C266.485,524.525 267.535,524.315 268.305,524.51 L284.6,528.435 C285.385,528.645 285.58,529.17 285.06,529.605 L273.52,539.245" fill="#949594"/>
    <path d="M271.55,535.505 L270.325,535.73 L259.435,533.085 L259.21,532.505 L266.935,526.06 L268.15,525.815 L279.065,528.47 L279.275,529.075 L271.55,535.505" fill="#A9AAA9"/>
    <path d="M296.29,544.805 C295.74,545.28 294.605,545.52 293.79,545.325 L277.29,541.265 C276.525,541.06 276.32,540.535 276.855,540.06 L288.38,530.43 C288.945,529.97 290.06,529.76 290.845,529.94 L307.335,533.9 C308.145,534.105 308.35,534.66 307.815,535.12 L296.29,544.805" fill="#949594"/>
    <path d="M294.24,541.06 L292.995,541.29 L281.935,538.595 L281.72,537.995 L289.465,531.515 L290.675,531.305 L301.73,533.975 L301.955,534.54 L294.24,541.06" fill="#A9AAA9"/>
    <path d="M319.32,550.485 C318.76,550.955 317.65,551.165 316.85,550.975 L300.13,546.845 C299.335,546.675 299.1,546.11 299.65,545.65 L311.255,535.93 C311.77,535.475 312.845,535.275 313.655,535.445 L330.395,539.48 C331.205,539.69 331.425,540.22 330.89,540.665 L319.32,550.485" fill="#949594"/>
    <path d="M317.22,546.69 L315.985,546.925 L304.795,544.165 L304.51,543.575 L312.275,537.045 L313.525,536.78 L324.77,539.495 L324.98,540.12 L317.22,546.69" fill="#A9AAA9"/>
    <path d="M342.695,556.225 C342.14,556.7 341.015,556.91 340.205,556.715 L323.23,552.52 C322.435,552.355 322.23,551.79 322.785,551.33 L334.355,541.54 C334.89,541.06 336.005,540.83 336.835,541.035 L353.795,545.11 C354.59,545.325 354.81,545.84 354.275,546.35 L342.695,556.225" fill="#949594"/>
    <path d="M340.52,552.395 L339.31,552.6 L327.93,549.825 L327.69,549.24 L335.45,542.65 L336.66,542.405 L348.075,545.145 L348.255,545.75 L340.52,552.395" fill="#A9AAA9"/>
    <path d="M366.38,562.055 C365.86,562.515 364.75,562.74 363.905,562.515 L346.71,558.285 C345.895,558.125 345.65,557.575 346.21,557.07 L357.79,547.18 C358.325,546.725 359.46,546.52 360.27,546.725 L377.49,550.84 C378.31,551.065 378.545,551.61 378.01,552.055 L366.38,562.055" fill="#949594"/>
    <path d="M364.215,558.14 L362.925,558.385 L351.37,555.555 L351.145,554.95 L358.915,548.34 L360.15,548.095 L371.705,550.855 L371.96,551.45 L364.215,558.14" fill="#A9AAA9"/>
    <path d="M86.415,509.78 C85.855,510.18 84.835,510.405 84.12,510.235 L69.515,506.565 C68.83,506.375 68.67,505.91 69.23,505.45 L80.72,496.425 C81.245,496 82.255,495.76 82.975,495.96 L97.575,499.56 C98.28,499.76 98.425,500.245 97.905,500.66 L86.415,509.78" fill="#949594"/>
    <path d="M84.915,506.265 L83.795,506.505 L74.01,504.075 L73.865,503.505 L81.555,497.455 L82.66,497.215 L92.5,499.645 L92.615,500.2 L84.915,506.265" fill="#A9AAA9"/>
    <path d="M106.76,514.855 C106.24,515.285 105.185,515.525 104.495,515.33 L89.7,511.62 C89.005,511.44 88.85,510.955 89.385,510.48 L100.89,501.415 C101.46,500.96 102.465,500.775 103.17,500.96 L117.965,504.575 C118.71,504.795 118.825,505.305 118.29,505.705 L106.76,514.855" fill="#949594"/>
    <path d="M105.265,511.355 L104.135,511.605 L94.19,509.095 L94.075,508.565 L101.745,502.45 L102.895,502.22 L112.81,504.65 L113.005,505.22 L105.265,511.355" fill="#A9AAA9"/>
    <path d="M127.48,520.06 C126.945,520.5 125.865,520.715 125.135,520.515 L110.165,516.755 C109.445,516.59 109.3,516.1 109.85,515.64 L121.34,506.445 C121.86,506.015 122.915,505.835 123.635,505.985 L138.64,509.705 C139.37,509.87 139.54,510.39 138.98,510.805 L127.48,520.06" fill="#949594"/>
    <path d="M125.885,516.47 L124.715,516.755 L114.685,514.2 L114.5,513.64 L122.25,507.51 L123.4,507.275 L133.43,509.75 L133.6,510.32 L125.885,516.47" fill="#A9AAA9"/>
    <path d="M148.395,525.285 C147.84,525.745 146.81,525.955 146.08,525.77 L130.895,521.93 C130.145,521.79 130.015,521.27 130.55,520.825 L142.08,511.58 C142.615,511.135 143.655,510.955 144.385,511.095 L159.6,514.855 C160.335,515.02 160.485,515.565 159.95,515.98 L148.395,525.285" fill="#949594"/>
    <path d="M146.77,521.725 L145.61,521.93 L135.435,519.41 L135.28,518.815 L142.98,512.625 L144.155,512.385 L154.34,514.9 L154.54,515.485 L146.77,521.725" fill="#A9AAA9"/>
    <path d="M169.59,530.67 C169.06,531.085 168.045,531.275 167.275,531.105 L151.915,527.24 C151.145,527.045 150.99,526.505 151.54,526.085 L163.065,516.755 C163.6,516.33 164.685,516.13 165.44,516.295 L180.81,520.095 C181.565,520.285 181.725,520.755 181.18,521.25 L169.59,530.67" fill="#949594"/>
    <path d="M167.94,526.99 L166.77,527.225 L156.45,524.675 L156.28,524.08 L164.02,517.83 L165.215,517.6 L175.515,520.15 L175.69,520.715 L167.94,526.99" fill="#A9AAA9"/>
    <path d="M191.145,536.005 C190.6,536.485 189.54,536.69 188.775,536.495 L173.165,532.58 C172.395,532.4 172.265,531.845 172.8,531.43 L184.355,522.01 C184.915,521.585 185.985,521.36 186.74,521.53 L202.33,525.4 C203.105,525.595 203.285,526.085 202.725,526.545 L191.145,536.005" fill="#949594"/>
    <path d="M189.38,532.375 L188.24,532.605 L177.735,529.97 L177.555,529.4 L185.315,523.07 L186.535,522.88 L196.98,525.44 L197.145,525.995 L189.38,532.375" fill="#A9AAA9"/>
    <path d="M212.92,541.495 C212.385,541.94 211.335,542.15 210.58,541.955 L194.765,537.995 C193.995,537.775 193.815,537.265 194.35,536.805 L205.93,527.315 C206.475,526.9 207.57,526.66 208.34,526.87 L224.165,530.775 C224.895,530.975 225.095,531.47 224.56,531.93 L212.92,541.495" fill="#949594"/>
    <path d="M211.155,537.775 L209.955,537.995 L199.335,535.39 L199.155,534.775 L206.93,528.435 L208.105,528.205 L218.71,530.815 L218.915,531.395 L211.155,537.775" fill="#A9AAA9"/>
    <path d="M235.06,547.035 C234.51,547.49 233.42,547.69 232.605,547.49 L216.64,543.455 C215.87,543.295 215.675,542.765 216.21,542.31 L227.8,532.73 C228.335,532.275 229.415,532.045 230.225,532.275 L246.225,536.2 C247.02,536.42 247.225,536.975 246.655,537.39 L235.06,547.035" fill="#949594"/>
    <path d="M233.185,543.295 L231.985,543.52 L221.225,540.83 L221.04,540.22 L228.805,533.815 L230,533.575 L240.765,536.275 L240.96,536.85 L233.185,543.295" fill="#A9AAA9"/>
    <path d="M257.47,552.635 C256.935,553.11 255.81,553.32 255.03,553.11 L238.785,549.07 C237.99,548.84 237.805,548.305 238.355,547.86 L249.99,538.22 C250.535,537.735 251.59,537.535 252.4,537.735 L268.63,541.735 C269.465,541.94 269.63,542.475 269.085,542.92 L257.47,552.635" fill="#949594"/>
    <path d="M255.525,548.875 L254.31,549.105 L243.42,546.375 L243.215,545.795 L250.99,539.315 L252.2,539.08 L263.12,541.765 L263.315,542.355 L255.525,548.875" fill="#A9AAA9"/>
    <path d="M280.185,558.33 C279.64,558.825 278.545,559.025 277.74,558.825 L261.255,554.685 C260.49,554.495 260.255,553.955 260.815,553.51 L272.475,543.765 C273.03,543.295 274.09,543.075 274.87,543.295 L291.395,547.38 C292.17,547.535 292.38,548.095 291.845,548.535 L280.185,558.33" fill="#949594"/>
    <path d="M278.205,554.525 L276.99,554.755 L265.95,552.01 L265.67,551.39 L273.52,544.88 L274.725,544.655 L285.775,547.38 L285.98,547.95 L278.205,554.525" fill="#A9AAA9"/>
    <path d="M303.245,564.13 C302.685,564.6 301.555,564.805 300.755,564.605 L284.07,560.41 C283.235,560.21 283.065,559.675 283.625,559.225 L295.22,549.395 C295.78,548.91 296.9,548.675 297.72,548.91 L314.45,553.03 C315.245,553.23 315.435,553.765 314.88,554.24 L303.245,564.13" fill="#949594"/>
    <path d="M301.185,560.275 L299.905,560.515 L288.735,557.725 L288.5,557.095 L296.33,550.53 L297.535,550.255 L308.755,553.04 L308.99,553.63 L301.185,560.275" fill="#A9AAA9"/>
    <path d="M326.605,569.975 C326.045,570.475 324.935,570.675 324.065,570.475 L307.155,566.21 C306.345,566.015 306.165,565.46 306.695,564.975 L318.345,555.1 C318.905,554.625 320.01,554.415 320.845,554.625 L337.765,558.795 C338.595,558.985 338.85,559.55 338.265,560 L326.605,569.975" fill="#949594"/>
    <path d="M324.47,566.075 L323.205,566.315 L311.87,563.48 L311.595,562.87 L319.44,556.255 L320.665,556 L332.055,558.795 L332.295,559.415 L324.47,566.075" fill="#A9AAA9"/>
    <path d="M350.315,575.925 C349.755,576.385 348.61,576.605 347.785,576.43 L330.605,572.09 C329.76,571.89 329.52,571.33 330.08,570.865 L341.77,560.885 C342.325,560.41 343.48,560.17 344.28,560.41 L361.47,564.64 C362.285,564.86 362.535,565.405 362.005,565.87 L350.315,575.925" fill="#949594"/>
    <path d="M348.115,571.975 L346.825,572.215 L335.29,569.37 L335.08,568.73 L342.9,562.04 L344.13,561.79 L355.685,564.64 L355.91,565.245 L348.115,571.975" fill="#A9AAA9"/>
    <path d="M70.44,522.405 C69.905,522.825 68.865,523.015 68.16,522.85 L53.595,519.095 C52.885,518.935 52.75,518.445 53.3,518 L64.87,508.89 C65.415,508.46 66.405,508.25 67.12,508.45 L81.72,512.14 C82.44,512.29 82.545,512.795 82.01,513.25 L70.44,522.405" fill="#949594"/>
    <path d="M69.02,518.885 L67.875,519.095 L58.09,516.59 L57.945,516.025 L65.7,509.945 L66.845,509.705 L76.59,512.17 L76.76,512.75 L69.02,518.885" fill="#A9AAA9"/>
    <path d="M90.815,527.6 C90.255,528.04 89.24,528.235 88.515,528.085 L73.75,524.275 C73.02,524.11 72.905,523.595 73.425,523.175 L85.005,513.985 C85.58,513.555 86.585,513.325 87.31,513.55 L102.11,517.285 C102.825,517.435 102.96,517.935 102.425,518.38 L90.815,527.6" fill="#949594"/>
    <path d="M89.315,524.055 L88.155,524.27 L78.245,521.77 L78.115,521.2 L85.855,515.02 L87.015,514.795 L96.925,517.31 L97.095,517.865 L89.315,524.055" fill="#A9AAA9"/>
    <path d="M111.45,532.89 C110.88,533.305 109.85,533.545 109.145,533.345 L94.15,529.5 C93.45,529.33 93.305,528.815 93.855,528.4 L105.42,519.14 C105.995,518.71 107.035,518.48 107.725,518.68 L122.75,522.44 C123.465,522.65 123.595,523.13 123.06,523.545 L111.45,532.89" fill="#949594"/>
    <path d="M109.885,529.285 L108.745,529.54 L98.71,526.945 L98.555,526.4 L106.33,520.185 L107.455,519.98 L117.525,522.48 L117.68,523.055 L109.885,529.285" fill="#A9AAA9"/>
    <path d="M132.36,538.27 C131.8,538.705 130.76,538.885 130.06,538.705 L114.855,534.835 C114.135,534.66 113.98,534.14 114.525,533.69 L126.175,524.355 C126.71,523.94 127.745,523.71 128.48,523.9 L143.655,527.7 C144.36,527.94 144.555,528.435 143.995,528.85 L132.36,538.27" fill="#949594"/>
    <path d="M130.76,534.6 L129.585,534.845 L119.425,532.24 L119.255,531.675 L127.06,525.415 L128.21,525.21 L138.395,527.76 L138.55,528.355 L130.76,534.6" fill="#A9AAA9"/>
    <path d="M153.555,543.69 C153.01,544.105 151.955,544.345 151.185,544.135 L135.84,540.195 C135.085,540.01 134.955,539.495 135.505,539.035 L147.11,529.66 C147.695,529.2 148.725,529.005 149.455,529.2 L164.83,533.085 C165.595,533.245 165.75,533.75 165.215,534.23 L153.555,543.69" fill="#949594"/>
    <path d="M151.915,540 L150.73,540.22 L140.425,537.62 L140.255,537.045 L148.03,530.745 L149.21,530.49 L159.525,533.13 L159.72,533.69 L151.915,540" fill="#A9AAA9"/>
    <path d="M175.05,549.19 C174.48,549.625 173.465,549.835 172.67,549.64 L157.09,545.65 C156.335,545.47 156.185,544.95 156.72,544.495 L168.405,535 C168.94,534.555 169.99,534.345 170.755,534.54 L186.31,538.475 C187.105,538.665 187.3,539.195 186.71,539.645 L175.05,549.19" fill="#949594"/>
    <path d="M173.32,545.47 L172.135,545.68 L161.67,543.04 L161.505,542.46 L169.325,536.095 L170.52,535.875 L180.995,538.5 L181.15,539.08 L173.32,545.47" fill="#A9AAA9"/>
    <path d="M196.845,554.755 C196.265,555.215 195.195,555.425 194.4,555.265 L178.625,551.21 C177.895,550.99 177.71,550.455 178.245,550.035 L189.945,540.46 C190.505,540 191.56,539.79 192.305,540 L208.105,543.96 C208.89,544.165 209.065,544.695 208.485,545.13 L196.845,554.755" fill="#949594"/>
    <path d="M195.08,551.02 L193.84,551.255 L183.275,548.535 L183.06,547.95 L190.88,541.54 L192.08,541.335 L202.7,544.005 L202.88,544.575 L195.08,551.02" fill="#A9AAA9"/>
    <path d="M218.905,560.41 C218.345,560.885 217.26,561.09 216.48,560.915 L200.51,556.79 C199.73,556.58 199.56,556.065 200.09,555.595 L211.79,545.96 C212.35,545.52 213.41,545.28 214.185,545.505 L230.2,549.52 C230.995,549.71 231.135,550.255 230.605,550.725 L218.905,560.41" fill="#949594"/>
    <path d="M217.055,556.625 L215.87,556.88 L205.15,554.135 L204.91,553.555 L212.755,547.075 L213.945,546.82 L224.7,549.55 L224.895,550.15 L217.055,556.625" fill="#A9AAA9"/>
    <path d="M241.285,566.175 C240.75,566.63 239.655,566.83 238.855,566.63 L222.595,562.46 C221.865,562.245 221.665,561.71 222.225,561.275 L233.93,551.535 C234.485,551.095 235.54,550.885 236.35,551.065 L252.605,555.18 C253.375,555.38 253.58,555.87 253.01,556.37 L241.285,566.175" fill="#949594"/>
    <path d="M239.385,562.34 L238.17,562.59 L227.32,559.785 L227.075,559.195 L234.93,552.665 L236.14,552.425 L247.02,555.18 L247.225,555.795 L239.385,562.34" fill="#A9AAA9"/>
    <path d="M264.005,571.975 C263.42,572.435 262.325,572.66 261.545,572.435 L245.08,568.245 C244.31,568.035 244.1,567.475 244.65,567.025 L256.4,557.21 C256.935,556.73 258.025,556.525 258.795,556.73 L275.3,560.885 C276.07,561.09 276.305,561.64 275.745,562.1 L264.005,571.975" fill="#949594"/>
    <path d="M262,568.09 L260.79,568.36 L249.74,565.53 L249.53,564.93 L257.425,558.33 L258.64,558.125 L269.675,560.915 L269.895,561.485 L262,568.09" fill="#A9AAA9"/>
    <path d="M287.03,577.865 C286.465,578.36 285.37,578.55 284.565,578.36 L267.85,574.045 C267.055,573.865 266.82,573.3 267.365,572.85 L279.145,562.945 C279.675,562.485 280.815,562.245 281.605,562.485 L298.295,566.67 C299.1,566.905 299.335,567.425 298.775,567.9 L287.03,577.865" fill="#949594"/>
    <path d="M284.97,573.98 L283.73,574.205 L272.58,571.36 L272.315,570.745 L280.185,564.085 L281.425,563.87 L292.625,566.67 L292.86,567.275 L284.97,573.98" fill="#A9AAA9"/>
    <path d="M310.385,583.855 C309.84,584.335 308.69,584.555 307.86,584.335 L290.925,580.01 C290.115,579.78 289.905,579.205 290.44,578.73 L302.215,568.775 C302.78,568.33 303.9,568.09 304.7,568.3 L321.655,572.545 C322.475,572.78 322.67,573.315 322.145,573.795 L310.385,583.855" fill="#949594"/>
    <path d="M308.26,579.905 L307.01,580.15 L295.65,577.23 L295.415,576.62 L303.295,569.94 L304.52,569.705 L315.91,572.545 L316.155,573.165 L308.26,579.905" fill="#A9AAA9"/>
    <path d="M54.365,535.145 C53.815,535.56 52.79,535.755 52.075,535.585 L37.505,531.765 C36.815,531.585 36.7,531.085 37.265,530.67 L48.905,521.48 C49.47,521.07 50.445,520.84 51.145,521.01 L65.715,524.765 C66.44,524.97 66.585,525.475 66.025,525.89 L54.365,535.145" fill="#949594"/>
    <path d="M52.955,531.545 L51.8,531.795 L42.04,529.245 L41.925,528.665 L49.725,522.525 L50.85,522.325 L60.615,524.8 L60.76,525.37 L52.955,531.545" fill="#A9AAA9"/>
    <path d="M74.685,540.46 C74.155,540.89 73.115,541.095 72.405,540.89 L57.645,537.045 C56.93,536.85 56.8,536.36 57.36,535.93 L69.02,526.66 C69.58,526.245 70.6,526.01 71.315,526.215 L86.06,530.015 C86.775,530.205 86.935,530.7 86.35,531.145 L74.685,540.46" fill="#949594"/>
    <path d="M73.255,536.85 L72.06,537.06 L62.195,534.465 L62.05,533.93 L69.865,527.745 L71.015,527.51 L80.905,530.045 L81.045,530.625 L73.255,536.85" fill="#A9AAA9"/>
    <path d="M95.285,545.84 C94.75,546.29 93.695,546.495 92.98,546.29 L78.01,542.39 C77.32,542.205 77.165,541.695 77.725,541.23 L89.42,531.93 C89.97,531.47 91,531.275 91.73,531.47 L106.685,535.315 C107.415,535.48 107.545,536.005 106.995,536.46 L95.285,545.84" fill="#949594"/>
    <path d="M93.81,542.205 L92.615,542.435 L82.625,539.805 L82.48,539.245 L90.295,532.985 L91.465,532.76 L101.46,535.355 L101.655,535.93 L93.81,542.205" fill="#A9AAA9"/>
    <path d="M116.225,551.3 C115.63,551.755 114.58,551.955 113.88,551.79 L98.71,547.815 C97.995,547.61 97.85,547.09 98.385,546.64 L110.11,537.25 C110.645,536.78 111.695,536.575 112.415,536.78 L127.555,540.695 C128.325,540.89 128.48,541.385 127.895,541.835 L116.225,551.3" fill="#949594"/>
    <path d="M114.645,547.65 L113.445,547.86 L103.3,545.22 L103.125,544.655 L110.97,538.32 L112.145,538.1 L122.305,540.735 L122.46,541.29 L114.645,547.65" fill="#A9AAA9"/>
    <path d="M137.355,556.85 C136.82,557.295 135.76,557.485 135.005,557.295 L119.66,553.29 C118.905,553.11 118.775,552.565 119.305,552.12 L131.03,542.65 C131.595,542.205 132.645,542 133.375,542.205 L148.75,546.155 C149.495,546.35 149.675,546.845 149.115,547.325 L137.355,556.85" fill="#949594"/>
    <path d="M135.735,553.11 L134.555,553.37 L124.27,550.685 L124.085,550.115 L131.93,543.735 L133.13,543.52 L143.425,546.165 L143.62,546.765 L135.735,553.11" fill="#A9AAA9"/>
    <path d="M158.835,562.46 C158.26,562.9 157.205,563.11 156.45,562.9 L140.885,558.825 C140.135,558.63 139.97,558.14 140.545,557.68 L152.27,548.105 C152.84,547.69 153.885,547.46 154.655,547.65 L170.205,551.685 C170.975,551.87 171.16,552.395 170.61,552.83 L158.835,562.46" fill="#949594"/>
    <path d="M157.14,558.71 L155.955,558.93 L145.495,556.225 L145.325,555.63 L153.205,549.225 L154.375,548.985 L164.83,551.685 L165.025,552.28 L157.14,558.71" fill="#A9AAA9"/>
    <path d="M180.565,568.13 C180.005,568.645 178.95,568.82 178.165,568.645 L162.4,564.485 C161.625,564.285 161.495,563.76 162.04,563.31 L173.83,553.645 C174.365,553.185 175.445,553.03 176.185,553.185 L191.98,557.25 C192.745,557.44 192.9,558.01 192.365,558.455 L180.565,568.13" fill="#949594"/>
    <path d="M178.82,564.39 L177.635,564.6 L167.04,561.815 L166.87,561.255 L174.74,554.755 L175.935,554.565 L186.545,557.25 L186.74,557.87 L178.82,564.39" fill="#A9AAA9"/>
    <path d="M202.645,573.935 C202.075,574.395 200.98,574.59 200.225,574.395 L184.225,570.2 C183.455,570.02 183.275,569.475 183.835,569 L195.635,559.295 C196.16,558.825 197.255,558.63 198.02,558.825 L214.045,562.945 C214.815,563.14 214.995,563.67 214.42,564.13 L202.645,573.935" fill="#949594"/>
    <path d="M200.825,570.095 L199.61,570.32 L188.89,567.53 L188.68,566.945 L196.59,560.41 L197.8,560.17 L208.51,562.945 L208.745,563.555 L200.825,570.095" fill="#A9AAA9"/>
    <path d="M225.01,579.78 C224.44,580.255 223.345,580.45 222.54,580.255 L206.36,576.015 C205.565,575.775 205.385,575.245 205.93,574.795 L217.775,564.96 C218.295,564.515 219.36,564.325 220.17,564.515 L236.415,568.685 C237.185,568.92 237.365,569.46 236.83,569.905 L225.01,579.78" fill="#949594"/>
    <path d="M223.115,575.895 L221.9,576.14 L211.025,573.3 L210.785,572.705 L218.745,566.105 L219.96,565.9 L230.835,568.685 L231.045,569.29 L223.115,575.895" fill="#A9AAA9"/>
    <path d="M247.68,585.715 C247.11,586.175 246.015,586.38 245.195,586.175 L228.78,581.89 C227.97,581.665 227.8,581.12 228.335,580.635 L240.14,570.76 C240.69,570.305 241.835,570.095 242.64,570.275 L259.08,574.55 C259.89,574.72 260.085,575.29 259.525,575.735 L247.68,585.715" fill="#949594"/>
    <path d="M245.725,581.795 L244.52,582.03 L233.465,579.135 L233.26,578.55 L241.165,571.92 L242.405,571.68 L253.45,574.515 L253.665,575.12 L245.725,581.795" fill="#A9AAA9"/>
    <path d="M270.68,591.725 C270.13,592.19 269.025,592.42 268.19,592.19 L251.51,587.835 C250.69,587.625 250.535,587.055 251.055,586.58 L262.925,576.605 C263.445,576.165 264.575,575.95 265.36,576.14 L282.085,580.425 C282.87,580.635 283.105,581.22 282.545,581.665 L270.68,591.725" fill="#949594"/>
    <path d="M268.695,587.78 L267.42,588.04 L256.24,585.08 L256.03,584.485 L263.965,577.78 L265.195,577.55 L276.38,580.425 L276.605,581.04 L268.695,587.78" fill="#A9AAA9"/>
    <path d="M305.88,600.935 C305.315,601.41 304.16,601.645 303.335,601.41 L274.585,593.86 C273.76,593.685 273.565,593.115 274.125,592.64 L285.97,582.54 C286.545,582.08 287.68,581.89 288.46,582.08 L317.265,589.495 C318.07,589.72 318.305,590.265 317.745,590.77 L305.88,600.935" fill="#949594"/>
    <path d="M317.665,604.02 C317.095,604.5 315.955,604.725 315.1,604.495 L297.995,600.005 C297.175,599.8 296.91,599.23 297.475,598.74 L325.63,574.68 C326.2,574.205 327.335,574.005 328.12,574.19 L345.3,578.55 C346.18,578.73 346.395,579.28 345.85,579.78 L317.665,604.02" fill="#949594"/>
    <path d="M315.515,600 L314.25,600.205 L302.765,597.215 L302.49,596.595 L326.76,575.85 L328.005,575.62 L339.52,578.55 L339.78,579.13 L315.515,600" fill="#A9AAA9"/>
    <path d="M38.16,547.95 C37.59,548.395 36.545,548.57 35.85,548.425 L21.33,544.535 C20.635,544.345 20.51,543.825 21.08,543.38 L32.815,534.15 C33.365,533.735 34.38,533.545 35.07,533.69 L49.61,537.505 C50.325,537.735 50.445,538.22 49.895,538.665 L38.16,547.95" fill="#949594"/>
    <path d="M36.775,544.345 L35.63,544.535 L25.885,541.99 L25.745,541.42 L33.63,535.205 L34.745,534.96 L44.5,537.55 L44.635,538.115 L36.775,544.345" fill="#A9AAA9"/>
    <path d="M58.455,553.37 C57.895,553.84 56.855,554.03 56.15,553.84 L41.43,549.88 C40.735,549.71 40.585,549.19 41.155,548.755 L52.92,539.445 C53.45,539.005 54.495,538.805 55.185,539.005 L69.945,542.865 C70.65,543.04 70.795,543.56 70.21,544.005 L58.455,553.37" fill="#949594"/>
    <path d="M57.035,549.72 L55.88,549.95 L46,547.34 L45.87,546.78 L53.73,540.505 L54.915,540.295 L64.765,542.88 L64.905,543.455 L57.035,549.72" fill="#A9AAA9"/>
    <path d="M79.05,558.87 C78.48,559.34 77.435,559.55 76.705,559.34 L61.79,555.335 C61.085,555.17 60.955,554.645 61.49,554.18 L73.28,544.805 C73.83,544.365 74.86,544.165 75.6,544.345 L90.505,548.26 C91.255,548.465 91.39,548.985 90.815,549.435 L79.05,558.87" fill="#949594"/>
    <path d="M77.555,555.185 L76.395,555.41 L66.39,552.755 L66.235,552.185 L74.155,545.88 L75.26,545.65 L85.32,548.305 L85.475,548.875 L77.555,555.185" fill="#A9AAA9"/>
    <path d="M99.885,564.445 C99.35,564.925 98.28,565.1 97.54,564.925 L82.44,560.885 C81.695,560.675 81.555,560.17 82.125,559.71 L93.93,550.22 C94.475,549.785 95.515,549.595 96.24,549.785 L111.375,553.735 C112.115,553.955 112.295,554.445 111.695,554.91 L99.885,564.445" fill="#949594"/>
    <path d="M98.345,560.735 L97.185,560.97 L87.05,558.255 L86.895,557.68 L94.79,551.33 L95.96,551.1 L106.11,553.765 L106.285,554.325 L98.345,560.735" fill="#A9AAA9"/>
    <path d="M208.56,593.495 C208.015,593.965 206.92,594.17 206.125,593.965 L103.36,566.475 C102.595,566.27 102.465,565.745 103.01,565.29 L114.855,555.74 C115.39,555.295 116.445,555.1 117.195,555.295 L220.05,582.32 C220.86,582.525 221.04,583.09 220.495,583.565 L208.56,593.495" fill="#949594"/>
    <path d="M206.695,589.57 L205.49,589.825 L107.99,563.835 L107.83,563.23 L115.75,556.85 L116.925,556.595 L214.5,582.32 L214.71,582.925 L206.695,589.57" fill="#A9AAA9"/>
    <path d="M231.215,599.555 C230.64,600.03 229.565,600.24 228.765,600.03 L212.35,595.61 C211.53,595.415 211.35,594.875 211.91,594.395 L223.84,584.425 C224.375,583.97 225.51,583.735 226.275,583.97 L242.705,588.265 C243.54,588.505 243.71,589.04 243.175,589.495 L231.215,599.555" fill="#949594"/>
    <path d="M229.34,595.565 L228.05,595.83 L217.055,592.88 L216.845,592.285 L224.82,585.575 L226.055,585.35 L237.08,588.245 L237.325,588.88 L229.34,595.565" fill="#A9AAA9"/>
    <path d="M254.18,605.715 C253.625,606.185 252.49,606.365 251.71,606.185 L235.045,601.715 C234.255,601.5 234.065,600.935 234.6,600.445 L246.55,590.4 C247.11,589.925 248.23,589.725 249.04,589.925 L265.67,594.3 C266.52,594.51 266.715,595.075 266.155,595.565 L254.18,605.715" fill="#949594"/>
    <path d="M252.23,601.705 L250.98,601.915 L239.815,598.945 L239.58,598.34 L247.58,591.575 L248.845,591.355 L259.98,594.29 L260.21,594.915 L252.23,601.705" fill="#A9AAA9"/>
    <path d="M277.515,611.945 C276.915,612.415 275.795,612.62 275.015,612.415 L258.105,607.86 C257.275,607.635 257.065,607.09 257.635,606.63 L269.595,596.455 C270.165,595.995 271.29,595.785 272.095,595.995 L288.98,600.44 C289.825,600.685 290.06,601.215 289.465,601.705 L277.515,611.945" fill="#949594"/>
    <path d="M275.43,607.86 L274.18,608.1 L262.845,605.105 L262.655,604.465 L270.68,597.66 L271.9,597.415 L283.235,600.415 L283.47,601.055 L275.43,607.86" fill="#A9AAA9"/>
    <path d="M301.16,618.245 C300.575,618.74 299.44,618.94 298.605,618.705 L281.45,614.13 C280.625,613.92 280.405,613.32 280.97,612.845 L292.94,602.625 C293.515,602.145 294.645,601.915 295.455,602.145 L312.64,606.65 C313.455,606.885 313.655,607.445 313.12,607.93 L301.16,618.245" fill="#949594"/>
    <path d="M299.01,614.165 L297.76,614.405 L286.27,611.335 L286.035,610.695 L294.035,603.845 L295.325,603.56 L306.815,606.63 L307.06,607.235 L299.01,614.165" fill="#A9AAA9"/>
    <path d="M400.72,570.475 C400.16,570.93 399.015,571.165 398.185,570.97 L380.62,566.63 C379.8,566.43 379.51,565.9 380.11,565.405 L391.685,555.38 C392.22,554.895 393.36,554.685 394.23,554.87 L411.725,559.14 C412.6,559.34 412.885,559.875 412.335,560.365 L400.72,570.475" fill="#949594"/>
    <path d="M398.4,566.515 L397.09,566.745 L385.34,563.87 L385.04,563.245 L392.86,556.525 C393.115,556.315 393.645,556.18 394.115,556.3 L405.89,559.14 L406.165,559.755 L398.4,566.515" fill="#A9AAA9"/>
    <path d="M425.26,576.465 C424.72,576.98 423.545,577.205 422.685,576.98 L404.89,572.59 C404.03,572.405 403.775,571.815 404.325,571.36 L415.965,561.21 C416.52,560.75 417.655,560.52 418.515,560.75 L436.305,565.04 C437.165,565.245 437.46,565.82 436.915,566.3 L425.26,576.465" fill="#949594"/>
    <path d="M422.84,572.5 L421.56,572.735 L409.64,569.8 L409.365,569.205 L417.135,562.415 L418.425,562.145 L430.36,565.04 L430.64,565.67 L422.84,572.5" fill="#A9AAA9"/>
    <path d="M450.185,582.58 C449.625,583.09 448.455,583.31 447.595,583.09 L429.515,578.62 C428.67,578.45 428.385,577.865 428.95,577.42 L440.56,567.205 C441.11,566.715 442.265,566.475 443.115,566.67 L461.2,571.045 C462.08,571.235 462.37,571.815 461.805,572.3 L450.185,582.58" fill="#949594"/>
    <path d="M447.67,578.55 L446.395,578.82 L434.29,575.85 C433.83,575.735 433.695,575.48 433.96,575.195 L441.765,568.36 L443.07,568.13 L455.175,571.045 L455.455,571.68 L447.67,578.55" fill="#A9AAA9"/>
    <path d="M475.445,588.785 C474.905,589.31 473.74,589.495 472.845,589.31 L454.555,584.81 C453.63,584.59 453.35,584.01 453.885,583.54 L465.53,573.225 C466.075,572.735 467.265,572.505 468.155,572.705 L486.47,577.12 C487.335,577.35 487.615,577.96 487.08,578.435 L475.445,588.785" fill="#949594"/>
    <path d="M472.88,584.735 C472.59,584.96 472.01,585.08 471.55,584.96 L459.3,581.965 L458.965,581.31 L466.805,574.415 L468.075,574.16 L480.35,577.12 L480.66,577.78 L472.88,584.735" fill="#A9AAA9"/>
    <path d="M384.57,584.51 C384.015,585.005 382.875,585.235 382.015,585.005 L364.465,580.595 C363.65,580.39 363.405,579.81 363.945,579.335 L375.665,569.25 C376.185,568.775 377.355,568.52 378.18,568.745 L395.73,573.09 C396.575,573.27 396.82,573.835 396.27,574.32 L384.57,584.51" fill="#949594"/>
    <path d="M382.27,580.51 L380.97,580.775 L369.23,577.835 L368.965,577.205 L376.81,570.42 L378.085,570.17 L389.84,573.09 L390.115,573.7 L382.27,580.51" fill="#A9AAA9"/>
    <path d="M409.095,590.655 C408.535,591.145 407.405,591.38 406.525,591.145 L388.755,586.695 C387.905,586.5 387.64,585.925 388.17,585.435 L399.9,575.215 C400.43,574.72 401.605,574.55 402.465,574.72 L420.24,579.13 C421.13,579.32 421.4,579.905 420.805,580.39 L409.095,590.655" fill="#949594"/>
    <path d="M406.71,586.62 L405.435,586.885 L393.515,583.865 L393.23,583.225 L401.065,576.43 L402.36,576.165 L414.265,579.13 L414.555,579.735 L406.71,586.62" fill="#A9AAA9"/>
    <path d="M434.02,596.9 C433.445,597.405 432.3,597.615 431.385,597.405 L413.37,592.85 C412.485,592.64 412.235,592.08 412.81,591.62 L424.5,581.31 C425.04,580.835 426.205,580.58 427.065,580.82 L445.15,585.25 C446.015,585.48 446.26,586.04 445.725,586.54 L434.02,596.9" fill="#949594"/>
    <path d="M431.545,592.825 C431.26,593.07 430.685,593.195 430.21,593.07 L418.12,590.05 L417.84,589.38 L425.7,582.495 L427.005,582.25 L439.11,585.25 L439.385,585.885 L431.545,592.825" fill="#A9AAA9"/>
    <path d="M459.255,603.245 C458.72,603.72 457.505,603.945 456.63,603.72 L438.325,599.145 C437.46,598.94 437.165,598.34 437.745,597.83 L449.435,587.465 C449.985,586.98 451.17,586.73 452.045,586.97 L470.395,591.5 C471.26,591.68 471.55,592.285 470.975,592.76 L459.255,603.245" fill="#949594"/>
    <path d="M456.73,599.11 C456.45,599.36 455.865,599.455 455.41,599.36 L443.115,596.27 L442.82,595.64 L450.71,588.67 L451.985,588.43 L464.285,591.47 L464.575,592.11 L456.73,599.11" fill="#A9AAA9"/>
    <path d="M368.28,598.68 C367.745,599.185 366.605,599.405 365.73,599.185 L348.195,594.67 C347.35,594.44 347.11,593.885 347.685,593.4 L359.485,583.205 C360.045,582.735 361.175,582.525 362.035,582.735 L379.555,587.155 C380.41,587.38 380.65,587.92 380.115,588.385 L368.28,598.68" fill="#949594"/>
    <path d="M366.035,594.63 L364.75,594.875 L353.015,591.88 L352.725,591.25 L360.63,584.385 L361.885,584.18 L373.665,587.11 L373.935,587.78 L366.035,594.63" fill="#A9AAA9"/>
    <path d="M392.83,604.97 C392.25,605.465 391.095,605.695 390.23,605.465 L372.435,600.89 C371.59,600.685 371.35,600.115 371.895,599.6 L383.74,589.35 C384.28,588.83 385.425,588.64 386.285,588.83 L404.045,593.295 C404.92,593.53 405.17,594.11 404.62,594.615 L392.83,604.97" fill="#949594"/>
    <path d="M390.44,600.875 L389.195,601.13 L377.24,598.07 L376.97,597.415 L384.895,590.54 L386.185,590.3 L398.09,593.295 L398.4,593.915 L390.44,600.875" fill="#A9AAA9"/>
    <path d="M417.695,611.365 C417.11,611.85 415.97,612.06 415.085,611.82 L397.045,607.195 C396.185,606.965 395.915,606.39 396.47,605.905 L408.33,595.53 C408.88,595.03 410.005,594.84 410.88,595.03 L428.92,599.59 C429.81,599.805 430.09,600.4 429.515,600.875 L417.695,611.365" fill="#949594"/>
    <path d="M415.24,607.195 L413.95,607.445 L401.88,604.375 L401.565,603.72 L409.49,596.725 C409.75,596.49 410.35,596.37 410.81,596.49 L422.9,599.555 L423.21,600.175 L415.24,607.195" fill="#A9AAA9"/>
    <path d="M442.935,617.78 C442.38,618.29 441.175,618.52 440.28,618.29 L421.995,613.61 C421.13,613.39 420.865,612.79 421.425,612.295 L433.25,601.83 C433.8,601.305 434.975,601.13 435.83,601.305 L454.18,605.95 C455.085,606.185 455.33,606.76 454.775,607.235 L442.935,617.78" fill="#949594"/>
    <path d="M440.405,613.635 C440.15,613.87 439.585,613.975 439.11,613.87 L426.86,610.75 L426.54,610.065 L434.46,603.03 L435.76,602.8 L448.05,605.905 L448.34,606.53 L440.405,613.635" fill="#A9AAA9"/>
    <path d="M351.87,612.98 C351.295,613.48 350.185,613.69 349.325,613.48 L331.775,608.87 C330.945,608.635 330.72,608.055 331.3,607.605 L343.185,597.3 C343.725,596.81 344.895,596.6 345.735,596.81 L363.25,601.305 C364.095,601.545 364.32,602.145 363.785,602.6 L351.87,612.98" fill="#949594"/>
    <path d="M349.615,608.87 L348.355,609.115 L336.625,606.035 L336.35,605.385 L344.325,598.5 L345.615,598.28 L357.33,601.3 L357.63,601.915 L349.615,608.87" fill="#A9AAA9"/>
    <path d="M376.355,619.385 C375.825,619.91 374.655,620.1 373.805,619.865 L356.03,615.22 C355.175,614.995 354.955,614.405 355.51,613.92 L367.39,603.53 C367.95,603.07 369.11,602.845 369.955,603.07 L387.74,607.635 C388.585,607.86 388.87,608.455 388.33,608.945 L376.355,619.385" fill="#949594"/>
    <path d="M374.065,615.25 L372.76,615.49 L360.855,612.375 L360.6,611.735 L368.56,604.745 L369.845,604.5 L381.78,607.605 L382.04,608.235 L374.065,615.25" fill="#A9AAA9"/>
    <path d="M401.25,625.9 C400.66,626.37 399.505,626.61 398.62,626.37 L380.62,621.655 C379.765,621.435 379.47,620.825 380.04,620.325 L391.97,609.865 C392.51,609.39 393.69,609.18 394.535,609.39 L412.6,614.02 C413.465,614.25 413.73,614.82 413.15,615.325 L401.25,625.9" fill="#949594"/>
    <path d="M398.85,621.7 L397.53,621.94 L385.45,618.78 L385.175,618.125 L393.14,611.095 L394.44,610.89 L406.565,613.975 L406.835,614.64 L398.85,621.7" fill="#A9AAA9"/>
    <path d="M335.35,627.355 C334.755,627.885 333.595,628.08 332.735,627.84 L315.285,623.185 C314.45,622.98 314.19,622.37 314.775,621.85 L326.76,611.495 C327.335,611.02 328.45,610.83 329.31,611.02 L346.785,615.625 C347.645,615.85 347.91,616.435 347.32,616.94 L335.35,627.355" fill="#949594"/>
    <path d="M333.12,623.225 L331.835,623.455 L320.115,620.325 C319.65,620.24 319.555,619.98 319.855,619.695 L327.86,612.75 C328.135,612.505 328.705,612.39 329.16,612.505 L340.895,615.575 L341.17,616.24 L333.12,623.225" fill="#A9AAA9"/>
    <path d="M359.825,633.925 C359.255,634.43 358.105,634.67 357.2,634.385 L339.455,629.645 C338.61,629.43 338.38,628.855 338.97,628.33 L350.955,617.88 C351.545,617.4 352.69,617.165 353.53,617.4 L371.26,622.065 C372.15,622.28 372.395,622.87 371.795,623.35 L359.825,633.925" fill="#949594"/>
    <path d="M357.54,629.74 C357.26,629.97 356.68,630.075 356.22,629.97 L344.325,626.775 L344.05,626.165 L352.125,619.135 L353.37,618.855 L365.315,622.01 L365.595,622.705 L357.54,629.74" fill="#A9AAA9"/>
    <path d="M384.685,640.555 C384.095,641.06 382.905,641.28 382.04,641.015 L364.02,636.225 C363.16,635.96 362.925,635.39 363.46,634.885 L375.495,624.355 C376.05,623.86 377.22,623.63 378.1,623.875 L396.105,628.575 C397,628.855 397.265,629.43 396.7,629.905 L384.685,640.555" fill="#949594"/>
    <path d="M382.27,636.33 L380.97,636.535 L368.88,633.345 L368.605,632.655 L376.68,625.6 C376.955,625.335 377.525,625.245 377.98,625.335 L390.07,628.51 L390.355,629.21 L382.27,636.33" fill="#A9AAA9"/>
    <path d="M409.89,647.295 C409.325,647.78 408.08,648.02 407.19,647.75 L388.945,642.9 C388.085,642.645 387.825,642.07 388.38,641.55 L416.74,616.435 C417.26,615.95 418.495,615.71 419.37,615.95 L437.66,620.67 C438.535,620.88 438.815,621.48 438.25,621.995 L409.89,647.295" fill="#949594"/>
    <path d="M407.425,643.005 L406.12,643.225 L393.87,639.96 C393.39,639.845 393.275,639.575 393.555,639.29 L417.955,617.71 L419.27,617.445 L431.545,620.59 C432,620.725 432.115,621.005 431.86,621.255 L407.425,643.005" fill="#A9AAA9"/>
    <g clip-path="url(#Clip_1)">
      <path d="M309.055,598.31 L307.83,598.545 L279.315,591.115 L279.105,590.5 L287.03,583.735 L288.29,583.505 L316.805,590.85 L317.055,591.5 L309.055,598.31" fill="#A9AAA9"/>
      <path d="M608.215,612.375 C630.18,623.2 638.595,645.6 617.225,675.745 C593.565,709 560.81,715.36 535.915,702.085 C511.44,689.005 506.01,662.865 533.29,632.655 C558.055,605.355 586.555,601.645 608.215,612.375" fill="#1A1919"/>
      <path d="M538.065,636.985 C526.14,650.16 521.505,661.85 521.52,670.975 C521.615,681.525 527.255,689.975 538.945,696.37 C545.99,700.105 553.67,702.07 561.6,702.085 C578.445,702.055 596.74,693.27 611.95,672.01 C620.035,660.58 623.15,650.925 623.135,643.315 C623.035,632.185 616.965,624.055 605.35,618.165 L608.205,612.365 L605.335,618.15 C598.9,614.975 591.87,613.24 584.48,613.24 C569.87,613.265 553.595,619.925 538.065,636.985 z M561.6,715 C551.52,715 541.715,712.47 532.875,707.775 C518.205,700.085 508.535,686.86 508.605,670.975 C508.635,657.45 515.225,642.98 528.49,628.31 C545.88,609.09 565.79,600.3 584.48,600.33 C593.9,600.315 602.93,602.535 611.075,606.575 L611.075,606.58 C625.68,613.595 636.155,626.65 636.055,643.315 C636.04,654.465 631.61,666.57 622.485,679.475 C605.5,703.44 583.19,715 561.685,715 L561.6,715" fill="#1A1919"/>
      <path d="M608.215,612.375 C630.18,623.2 638.595,645.6 617.225,675.745 C593.565,709 560.81,715.36 535.915,702.085 C511.44,689.005 506.01,662.865 533.29,632.655 C558.055,605.355 586.555,601.645 608.215,612.375" fill="#D7D8D6"/>
    </g>
    <path d="M622.34,666.31 C607.985,629.89 566.28,625.51 548.195,625.525 C545.54,625.525 543.45,625.615 542.085,625.715 L542.085,625.73 C539.995,625.87 538.185,624.29 538.035,622.195 C537.895,620.1 539.46,618.29 541.58,618.15 C543.08,618.05 545.35,617.94 548.195,617.94 C566.945,617.955 612.59,622.11 629.385,663.48 C630.17,665.43 629.235,667.64 627.28,668.415 C626.815,668.6 626.34,668.685 625.87,668.685 C624.37,668.685 622.935,667.785 622.34,666.31" fill="#1A1919"/>
    <path d="M577.205,627.865 C575.635,626.47 575.49,624.065 576.9,622.51 C577.29,622.4 591.86,604.94 608.72,604.51 C609.575,604.51 610.49,604.555 611.475,604.715 C613.54,605.03 614.965,606.965 614.65,609.025 C614.325,611.09 612.395,612.52 610.335,612.205 C609.845,612.135 609.305,612.105 608.72,612.105 C603.215,612.02 596.425,615.69 591.255,619.685 C586.065,623.63 582.55,627.545 582.55,627.545 L582.55,627.57 C581.795,628.4 580.76,628.83 579.72,628.83 C578.82,628.83 577.92,628.51 577.205,627.865" fill="#1A1919"/>
    <g clip-path="url(#Clip_2)">
      <path d="M121.35,42.875 L121.35,339.765 C121.285,341.74 123.135,343.79 124.825,343.955 L596.985,414.245 L597.475,414.275 C598.81,414.245 599.815,413.355 599.875,411.525 L599.875,90.59 C599.94,88.6 598.125,86.53 596.54,86.42 L123.86,40.095 L123.735,40.095 C122.47,40.125 121.415,41.04 121.35,42.875 z M596.425,419.6 L124.07,349.28 C119.435,348.57 116.04,344.525 115.975,339.765 L115.975,42.875 C115.975,38.45 119.34,34.73 123.735,34.715 L124.7,34.785 L597.15,81.075 C601.855,81.755 605.205,85.865 605.27,90.59 L605.27,411.525 C605.255,415.95 601.87,419.645 597.475,419.66 L596.425,419.6" fill="#1A1919"/>
      <path d="M405.19,662.59 C405.905,662.8 406.79,662.91 407.73,662.91 C410.065,662.945 412.62,662.055 413.48,661.225 L503.445,580.49 L503.445,580.465 C503.49,579.81 502.91,578.005 501.97,576.62 C501.1,575.175 499.765,574.23 499.585,574.29 L500.18,571.67 L499.56,574.275 L99.94,478.85 C99.48,478.735 98.94,478.665 98.385,478.665 C96.46,478.64 94.065,479.42 93.165,480.185 L5.475,549.05 L5.51,549.065 L5.395,550.025 C5.33,551.35 6.06,553.31 6.57,553.755 L6.59,553.825 L405.19,662.59 z M403.775,667.8 L5.145,559.025 C1,557.36 0.24,553.425 -0,550.025 C0.05,548.295 0.32,546.335 2.13,544.82 L89.83,475.965 C92.21,474.13 95.32,473.335 98.385,473.29 C99.355,473.29 100.3,473.405 101.19,473.625 L500.76,569.045 L500.76,569.035 L500.805,569.05 L500.815,569.05 C505.795,570.735 508.445,575.905 508.83,580.465 C508.83,581.65 508.54,583.11 507.3,584.27 L417.045,665.245 C414.57,667.355 411.17,668.245 407.73,668.295 C406.42,668.295 405.08,668.145 403.775,667.8" fill="#1A1919"/>
    </g>
  </g>
</svg>
